%TF.GenerationSoftware,KiCad,Pcbnew,5.1.8-db9833491~87~ubuntu18.04.1*%
%TF.CreationDate,2020-11-24T07:54:30-06:00*%
%TF.ProjectId,binary-clock-01,62696e61-7279-42d6-936c-6f636b2d3031,rev?*%
%TF.SameCoordinates,Original*%
%TF.FileFunction,Soldermask,Top*%
%TF.FilePolarity,Negative*%
%FSLAX46Y46*%
G04 Gerber Fmt 4.6, Leading zero omitted, Abs format (unit mm)*
G04 Created by KiCad (PCBNEW 5.1.8-db9833491~87~ubuntu18.04.1) date 2020-11-24 07:54:30*
%MOMM*%
%LPD*%
G01*
G04 APERTURE LIST*
%ADD10C,4.000000*%
%ADD11C,3.000000*%
%ADD12O,1.200000X2.000000*%
%ADD13C,1.600000*%
%ADD14R,1.800000X1.800000*%
%ADD15C,1.800000*%
%ADD16O,1.600000X1.600000*%
%ADD17C,2.000000*%
%ADD18R,1.000000X1.000000*%
%ADD19C,1.000000*%
G04 APERTURE END LIST*
D10*
%TO.C,REF\u002A\u002A*%
X167000000Y-172000000D03*
%TD*%
%TO.C,REF\u002A\u002A*%
X83000000Y-172000000D03*
%TD*%
D11*
%TO.C,REF\u002A\u002A*%
X159000000Y-172000000D03*
%TD*%
%TO.C,REF\u002A\u002A*%
X91000000Y-172000000D03*
%TD*%
D12*
%TO.C,U102*%
X100110000Y-74700000D03*
X100110000Y-81300000D03*
X102650000Y-74700000D03*
X102650000Y-81300000D03*
X105190000Y-74700000D03*
X105190000Y-81300000D03*
X107730000Y-74700000D03*
X107730000Y-81300000D03*
X110270000Y-74700000D03*
X110270000Y-81300000D03*
X112810000Y-74700000D03*
X112810000Y-81300000D03*
X115350000Y-74700000D03*
X115350000Y-81300000D03*
X117890000Y-74700000D03*
X117890000Y-81300000D03*
%TD*%
D13*
%TO.C,C100*%
X156000000Y-41500000D03*
X156000000Y-39000000D03*
%TD*%
%TO.C,C101*%
X135000000Y-38500000D03*
X135000000Y-41000000D03*
%TD*%
D14*
%TO.C,D100*%
X93000000Y-155000000D03*
D15*
X95540000Y-155000000D03*
%TD*%
%TO.C,D101*%
X105540000Y-125000000D03*
D14*
X103000000Y-125000000D03*
%TD*%
D15*
%TO.C,D102*%
X105540000Y-135000000D03*
D14*
X103000000Y-135000000D03*
%TD*%
%TO.C,D103*%
X103000000Y-145000000D03*
D15*
X105540000Y-145000000D03*
%TD*%
%TO.C,D104*%
X105540000Y-155000000D03*
D14*
X103000000Y-155000000D03*
%TD*%
%TO.C,D105*%
X137000000Y-135000000D03*
D15*
X139540000Y-135000000D03*
%TD*%
%TO.C,D106*%
X139540000Y-145000000D03*
D14*
X137000000Y-145000000D03*
%TD*%
%TO.C,D107*%
X137000000Y-155000000D03*
D15*
X139540000Y-155000000D03*
%TD*%
%TO.C,D108*%
X149540000Y-125000000D03*
D14*
X147000000Y-125000000D03*
%TD*%
%TO.C,D109*%
X147000000Y-135000000D03*
D15*
X149540000Y-135000000D03*
%TD*%
%TO.C,D110*%
X149540000Y-145000000D03*
D14*
X147000000Y-145000000D03*
%TD*%
%TO.C,D111*%
X147000000Y-155000000D03*
D15*
X149540000Y-155000000D03*
%TD*%
D13*
%TO.C,R100*%
X94000000Y-148000000D03*
D16*
X94000000Y-135300000D03*
%TD*%
%TO.C,R101*%
X117000000Y-93300000D03*
D13*
X117000000Y-106000000D03*
%TD*%
%TO.C,R102*%
X117000000Y-123000000D03*
D16*
X117000000Y-110300000D03*
%TD*%
%TO.C,R103*%
X117000000Y-127300000D03*
D13*
X117000000Y-140000000D03*
%TD*%
%TO.C,R104*%
X117000000Y-157000000D03*
D16*
X117000000Y-144300000D03*
%TD*%
%TO.C,R105*%
X128000000Y-110300000D03*
D13*
X128000000Y-123000000D03*
%TD*%
%TO.C,R106*%
X128000000Y-140000000D03*
D16*
X128000000Y-127300000D03*
%TD*%
D13*
%TO.C,R107*%
X128000000Y-157000000D03*
D16*
X128000000Y-144300000D03*
%TD*%
D13*
%TO.C,R108*%
X163000000Y-106000000D03*
D16*
X163000000Y-93300000D03*
%TD*%
D13*
%TO.C,R109*%
X163000000Y-123000000D03*
D16*
X163000000Y-110300000D03*
%TD*%
D13*
%TO.C,R110*%
X163000000Y-140000000D03*
D16*
X163000000Y-127300000D03*
%TD*%
%TO.C,R111*%
X163000000Y-144300000D03*
D13*
X163000000Y-157000000D03*
%TD*%
%TO.C,R112*%
X149000000Y-61000000D03*
D16*
X161700000Y-61000000D03*
%TD*%
D15*
%TO.C,RV100*%
X149000000Y-73000000D03*
X149000000Y-75500000D03*
X149000000Y-78000000D03*
D10*
X156500000Y-70750000D03*
X156500000Y-80250000D03*
%TD*%
D17*
%TO.C,SW100*%
X96000000Y-111500000D03*
X96000000Y-107000000D03*
X102500000Y-111500000D03*
X102500000Y-107000000D03*
%TD*%
%TO.C,SW101*%
X150500000Y-106000000D03*
X150500000Y-110500000D03*
X144000000Y-106000000D03*
X144000000Y-110500000D03*
%TD*%
D18*
%TO.C,U100*%
X147000000Y-35460000D03*
D19*
X147000000Y-38000000D03*
X147000000Y-40540000D03*
%TD*%
D12*
%TO.C,U101*%
X115380000Y-55000000D03*
X115380000Y-63000000D03*
X117920000Y-55000000D03*
X117920000Y-63000000D03*
X120460000Y-55000000D03*
X120460000Y-63000000D03*
X123000000Y-55000000D03*
X123000000Y-63000000D03*
X125540000Y-55000000D03*
X125540000Y-63000000D03*
X128080000Y-55000000D03*
X128080000Y-63000000D03*
X130620000Y-55000000D03*
X130620000Y-63000000D03*
%TD*%
%TO.C,U103*%
X150890000Y-94300000D03*
X150890000Y-87700000D03*
X148350000Y-94300000D03*
X148350000Y-87700000D03*
X145810000Y-94300000D03*
X145810000Y-87700000D03*
X143270000Y-94300000D03*
X143270000Y-87700000D03*
X140730000Y-94300000D03*
X140730000Y-87700000D03*
X138190000Y-94300000D03*
X138190000Y-87700000D03*
X135650000Y-94300000D03*
X135650000Y-87700000D03*
X133110000Y-94300000D03*
X133110000Y-87700000D03*
%TD*%
M02*
