%TF.GenerationSoftware,KiCad,Pcbnew,5.1.8-db9833491~87~ubuntu18.04.1*%
%TF.CreationDate,2020-11-24T07:54:30-06:00*%
%TF.ProjectId,binary-clock-01,62696e61-7279-42d6-936c-6f636b2d3031,rev?*%
%TF.SameCoordinates,Original*%
%TF.FileFunction,Copper,L1,Top*%
%TF.FilePolarity,Positive*%
%FSLAX46Y46*%
G04 Gerber Fmt 4.6, Leading zero omitted, Abs format (unit mm)*
G04 Created by KiCad (PCBNEW 5.1.8-db9833491~87~ubuntu18.04.1) date 2020-11-24 07:54:30*
%MOMM*%
%LPD*%
G01*
G04 APERTURE LIST*
%TA.AperFunction,ComponentPad*%
%ADD10O,1.200000X2.000000*%
%TD*%
%TA.AperFunction,ComponentPad*%
%ADD11C,1.600000*%
%TD*%
%TA.AperFunction,ComponentPad*%
%ADD12R,1.800000X1.800000*%
%TD*%
%TA.AperFunction,ComponentPad*%
%ADD13C,1.800000*%
%TD*%
%TA.AperFunction,ComponentPad*%
%ADD14O,1.600000X1.600000*%
%TD*%
%TA.AperFunction,WasherPad*%
%ADD15C,4.000000*%
%TD*%
%TA.AperFunction,ComponentPad*%
%ADD16C,2.000000*%
%TD*%
%TA.AperFunction,ComponentPad*%
%ADD17R,1.000000X1.000000*%
%TD*%
%TA.AperFunction,ComponentPad*%
%ADD18C,1.000000*%
%TD*%
%TA.AperFunction,ViaPad*%
%ADD19C,1.600000*%
%TD*%
%TA.AperFunction,ViaPad*%
%ADD20C,0.800000*%
%TD*%
%TA.AperFunction,Conductor*%
%ADD21C,0.250000*%
%TD*%
G04 APERTURE END LIST*
D10*
%TO.P,U102,8*%
%TO.N,GND*%
X100110000Y-74700000D03*
%TO.P,U102,9*%
%TO.N,Net-(U102-Pad9)*%
X100110000Y-81300000D03*
%TO.P,U102,7*%
%TO.N,/SR_DATA*%
X102650000Y-74700000D03*
%TO.P,U102,10*%
%TO.N,Net-(U102-Pad10)*%
X102650000Y-81300000D03*
%TO.P,U102,6*%
%TO.N,/SR_RESET*%
X105190000Y-74700000D03*
%TO.P,U102,11*%
%TO.N,/MM_D1_B2*%
X105190000Y-81300000D03*
%TO.P,U102,5*%
%TO.N,Net-(U102-Pad5)*%
X107730000Y-74700000D03*
%TO.P,U102,12*%
%TO.N,/MM_D1_B1*%
X107730000Y-81300000D03*
%TO.P,U102,4*%
%TO.N,Net-(U102-Pad4)*%
X110270000Y-74700000D03*
%TO.P,U102,13*%
%TO.N,/MM_D1_B0*%
X110270000Y-81300000D03*
%TO.P,U102,3*%
%TO.N,Net-(U102-Pad3)*%
X112810000Y-74700000D03*
%TO.P,U102,14*%
%TO.N,/SR_RESET*%
X112810000Y-81300000D03*
%TO.P,U102,2*%
%TO.N,/HH_D1_B0*%
X115350000Y-74700000D03*
%TO.P,U102,15*%
%TO.N,/SR_DATA*%
X115350000Y-81300000D03*
%TO.P,U102,1*%
%TO.N,/SR_CLK_3*%
X117890000Y-74700000D03*
%TO.P,U102,16*%
%TO.N,+3V3*%
X117890000Y-81300000D03*
%TD*%
D11*
%TO.P,C100,2*%
%TO.N,GND*%
X156000000Y-41500000D03*
%TO.P,C100,1*%
%TO.N,+BATT*%
X156000000Y-39000000D03*
%TD*%
%TO.P,C101,1*%
%TO.N,+3V3*%
X135000000Y-38500000D03*
%TO.P,C101,2*%
%TO.N,GND*%
X135000000Y-41000000D03*
%TD*%
D12*
%TO.P,D100,1*%
%TO.N,GND*%
X93000000Y-155000000D03*
D13*
%TO.P,D100,2*%
%TO.N,Net-(D100-Pad2)*%
X95540000Y-155000000D03*
%TD*%
%TO.P,D101,2*%
%TO.N,Net-(D101-Pad2)*%
X105540000Y-125000000D03*
D12*
%TO.P,D101,1*%
%TO.N,GND*%
X103000000Y-125000000D03*
%TD*%
D13*
%TO.P,D102,2*%
%TO.N,Net-(D102-Pad2)*%
X105540000Y-135000000D03*
D12*
%TO.P,D102,1*%
%TO.N,GND*%
X103000000Y-135000000D03*
%TD*%
%TO.P,D103,1*%
%TO.N,GND*%
X103000000Y-145000000D03*
D13*
%TO.P,D103,2*%
%TO.N,Net-(D103-Pad2)*%
X105540000Y-145000000D03*
%TD*%
%TO.P,D104,2*%
%TO.N,Net-(D104-Pad2)*%
X105540000Y-155000000D03*
D12*
%TO.P,D104,1*%
%TO.N,GND*%
X103000000Y-155000000D03*
%TD*%
%TO.P,D105,1*%
%TO.N,GND*%
X137000000Y-135000000D03*
D13*
%TO.P,D105,2*%
%TO.N,Net-(D105-Pad2)*%
X139540000Y-135000000D03*
%TD*%
%TO.P,D106,2*%
%TO.N,Net-(D106-Pad2)*%
X139540000Y-145000000D03*
D12*
%TO.P,D106,1*%
%TO.N,GND*%
X137000000Y-145000000D03*
%TD*%
%TO.P,D107,1*%
%TO.N,GND*%
X137000000Y-155000000D03*
D13*
%TO.P,D107,2*%
%TO.N,Net-(D107-Pad2)*%
X139540000Y-155000000D03*
%TD*%
%TO.P,D108,2*%
%TO.N,Net-(D108-Pad2)*%
X149540000Y-125000000D03*
D12*
%TO.P,D108,1*%
%TO.N,GND*%
X147000000Y-125000000D03*
%TD*%
%TO.P,D109,1*%
%TO.N,GND*%
X147000000Y-135000000D03*
D13*
%TO.P,D109,2*%
%TO.N,Net-(D109-Pad2)*%
X149540000Y-135000000D03*
%TD*%
%TO.P,D110,2*%
%TO.N,Net-(D110-Pad2)*%
X149540000Y-145000000D03*
D12*
%TO.P,D110,1*%
%TO.N,GND*%
X147000000Y-145000000D03*
%TD*%
%TO.P,D111,1*%
%TO.N,GND*%
X147000000Y-155000000D03*
D13*
%TO.P,D111,2*%
%TO.N,Net-(D111-Pad2)*%
X149540000Y-155000000D03*
%TD*%
D11*
%TO.P,R100,1*%
%TO.N,Net-(D100-Pad2)*%
X94000000Y-148000000D03*
D14*
%TO.P,R100,2*%
%TO.N,/HH_D1_B0*%
X94000000Y-135300000D03*
%TD*%
%TO.P,R101,2*%
%TO.N,/HH_D0_B3*%
X117000000Y-93300000D03*
D11*
%TO.P,R101,1*%
%TO.N,Net-(D101-Pad2)*%
X117000000Y-106000000D03*
%TD*%
%TO.P,R102,1*%
%TO.N,Net-(D102-Pad2)*%
X117000000Y-123000000D03*
D14*
%TO.P,R102,2*%
%TO.N,/HH_D0_B2*%
X117000000Y-110300000D03*
%TD*%
%TO.P,R103,2*%
%TO.N,/HH_D0_B1*%
X117000000Y-127300000D03*
D11*
%TO.P,R103,1*%
%TO.N,Net-(D103-Pad2)*%
X117000000Y-140000000D03*
%TD*%
%TO.P,R104,1*%
%TO.N,Net-(D104-Pad2)*%
X117000000Y-157000000D03*
D14*
%TO.P,R104,2*%
%TO.N,/HH_D0_B0*%
X117000000Y-144300000D03*
%TD*%
%TO.P,R105,2*%
%TO.N,/MM_D1_B2*%
X128000000Y-110300000D03*
D11*
%TO.P,R105,1*%
%TO.N,Net-(D105-Pad2)*%
X128000000Y-123000000D03*
%TD*%
%TO.P,R106,1*%
%TO.N,Net-(D106-Pad2)*%
X128000000Y-140000000D03*
D14*
%TO.P,R106,2*%
%TO.N,/MM_D1_B1*%
X128000000Y-127300000D03*
%TD*%
D11*
%TO.P,R107,1*%
%TO.N,Net-(D107-Pad2)*%
X128000000Y-157000000D03*
D14*
%TO.P,R107,2*%
%TO.N,/MM_D1_B0*%
X128000000Y-144300000D03*
%TD*%
D11*
%TO.P,R108,1*%
%TO.N,Net-(D108-Pad2)*%
X163000000Y-106000000D03*
D14*
%TO.P,R108,2*%
%TO.N,/MM_D0_B3*%
X163000000Y-93300000D03*
%TD*%
D11*
%TO.P,R109,1*%
%TO.N,Net-(D109-Pad2)*%
X163000000Y-123000000D03*
D14*
%TO.P,R109,2*%
%TO.N,/MM_D0_B2*%
X163000000Y-110300000D03*
%TD*%
D11*
%TO.P,R110,1*%
%TO.N,Net-(D110-Pad2)*%
X163000000Y-140000000D03*
D14*
%TO.P,R110,2*%
%TO.N,/MM_D0_B1*%
X163000000Y-127300000D03*
%TD*%
%TO.P,R111,2*%
%TO.N,/MM_D0_B0*%
X163000000Y-144300000D03*
D11*
%TO.P,R111,1*%
%TO.N,Net-(D111-Pad2)*%
X163000000Y-157000000D03*
%TD*%
%TO.P,R112,1*%
%TO.N,+3V3*%
X149000000Y-61000000D03*
D14*
%TO.P,R112,2*%
%TO.N,Net-(R112-Pad2)*%
X161700000Y-61000000D03*
%TD*%
D13*
%TO.P,RV100,3*%
%TO.N,Net-(RV100-Pad3)*%
X149000000Y-73000000D03*
%TO.P,RV100,2*%
%TO.N,Net-(R112-Pad2)*%
X149000000Y-75500000D03*
%TO.P,RV100,1*%
%TO.N,Net-(RV100-Pad1)*%
X149000000Y-78000000D03*
D15*
%TO.P,RV100,*%
%TO.N,*%
X156500000Y-70750000D03*
X156500000Y-80250000D03*
%TD*%
D16*
%TO.P,SW100,2*%
%TO.N,GND*%
X96000000Y-111500000D03*
%TO.P,SW100,1*%
%TO.N,Net-(SW100-Pad1)*%
X96000000Y-107000000D03*
%TO.P,SW100,2*%
%TO.N,GND*%
X102500000Y-111500000D03*
%TO.P,SW100,1*%
%TO.N,Net-(SW100-Pad1)*%
X102500000Y-107000000D03*
%TD*%
%TO.P,SW101,1*%
%TO.N,Net-(SW101-Pad1)*%
X150500000Y-106000000D03*
%TO.P,SW101,2*%
%TO.N,GND*%
X150500000Y-110500000D03*
%TO.P,SW101,1*%
%TO.N,Net-(SW101-Pad1)*%
X144000000Y-106000000D03*
%TO.P,SW101,2*%
%TO.N,GND*%
X144000000Y-110500000D03*
%TD*%
D17*
%TO.P,U100,1*%
%TO.N,+BATT*%
X147000000Y-35460000D03*
D18*
%TO.P,U100,2*%
%TO.N,GND*%
X147000000Y-38000000D03*
%TO.P,U100,3*%
%TO.N,+3V3*%
X147000000Y-40540000D03*
%TD*%
D10*
%TO.P,U101,14*%
%TO.N,GND*%
X115380000Y-55000000D03*
%TO.P,U101,1*%
%TO.N,+3V3*%
X115380000Y-63000000D03*
%TO.P,U101,13*%
%TO.N,Net-(SW100-Pad1)*%
X117920000Y-55000000D03*
%TO.P,U101,2*%
%TO.N,Net-(U101-Pad2)*%
X117920000Y-63000000D03*
%TO.P,U101,12*%
%TO.N,Net-(SW101-Pad1)*%
X120460000Y-55000000D03*
%TO.P,U101,3*%
%TO.N,Net-(U101-Pad3)*%
X120460000Y-63000000D03*
%TO.P,U101,11*%
%TO.N,/SR_RESET*%
X123000000Y-55000000D03*
%TO.P,U101,4*%
%TO.N,Net-(U101-Pad4)*%
X123000000Y-63000000D03*
%TO.P,U101,10*%
%TO.N,/SR_DATA*%
X125540000Y-55000000D03*
%TO.P,U101,5*%
%TO.N,Net-(U101-Pad5)*%
X125540000Y-63000000D03*
%TO.P,U101,9*%
%TO.N,/SR_CLK_1*%
X128080000Y-55000000D03*
%TO.P,U101,6*%
%TO.N,Net-(RV100-Pad1)*%
X128080000Y-63000000D03*
%TO.P,U101,8*%
%TO.N,/SR_CLK_2*%
X130620000Y-55000000D03*
%TO.P,U101,7*%
%TO.N,/SR_CLK_3*%
X130620000Y-63000000D03*
%TD*%
%TO.P,U103,16*%
%TO.N,+3V3*%
X150890000Y-94300000D03*
%TO.P,U103,1*%
%TO.N,/SR_CLK_2*%
X150890000Y-87700000D03*
%TO.P,U103,15*%
%TO.N,/SR_DATA*%
X148350000Y-94300000D03*
%TO.P,U103,2*%
%TO.N,/HH_D0_B3*%
X148350000Y-87700000D03*
%TO.P,U103,14*%
%TO.N,/SR_RESET*%
X145810000Y-94300000D03*
%TO.P,U103,3*%
%TO.N,/MM_D0_B2*%
X145810000Y-87700000D03*
%TO.P,U103,13*%
%TO.N,/HH_D0_B0*%
X143270000Y-94300000D03*
%TO.P,U103,4*%
%TO.N,/MM_D0_B1*%
X143270000Y-87700000D03*
%TO.P,U103,12*%
%TO.N,/HH_D0_B1*%
X140730000Y-94300000D03*
%TO.P,U103,5*%
%TO.N,/MM_D0_B0*%
X140730000Y-87700000D03*
%TO.P,U103,11*%
%TO.N,/HH_D0_B2*%
X138190000Y-94300000D03*
%TO.P,U103,6*%
%TO.N,/SR_RESET*%
X138190000Y-87700000D03*
%TO.P,U103,10*%
%TO.N,/MM_D0_B3*%
X135650000Y-94300000D03*
%TO.P,U103,7*%
%TO.N,/SR_DATA*%
X135650000Y-87700000D03*
%TO.P,U103,9*%
%TO.N,/SR_CLK_1*%
X133110000Y-94300000D03*
%TO.P,U103,8*%
%TO.N,GND*%
X133110000Y-87700000D03*
%TD*%
D19*
%TO.N,GND*%
X88000000Y-140000000D03*
X123000000Y-45000000D03*
D20*
X85000000Y-125000000D03*
X85000000Y-75000000D03*
D19*
%TO.N,+BATT*%
X88000000Y-150000000D03*
X123000000Y-37000000D03*
%TO.N,+3V3*%
X123000000Y-41000000D03*
D20*
X163000000Y-89000000D03*
%TO.N,/SR_RESET*%
X110000000Y-67000000D03*
%TO.N,/SR_DATA*%
X122000000Y-85000000D03*
%TD*%
D21*
%TO.N,GND*%
X123000000Y-45000000D02*
X85000000Y-45000000D01*
X85000000Y-45000000D02*
X85000000Y-75000000D01*
X137000000Y-135000000D02*
X137000000Y-145000000D01*
X137000000Y-145000000D02*
X137000000Y-155000000D01*
X147000000Y-135000000D02*
X147000000Y-125000000D01*
X147000000Y-135000000D02*
X147000000Y-145000000D01*
X147000000Y-145000000D02*
X147000000Y-155000000D01*
X103000000Y-155000000D02*
X103000000Y-145000000D01*
X103000000Y-135000000D02*
X103000000Y-145000000D01*
X103000000Y-125000000D02*
X103000000Y-135000000D01*
X147000000Y-113500000D02*
X144000000Y-110500000D01*
X147000000Y-125000000D02*
X147000000Y-113500000D01*
X103000000Y-112000000D02*
X102500000Y-111500000D01*
X103000000Y-125000000D02*
X103000000Y-112000000D01*
X131000000Y-45000000D02*
X135000000Y-41000000D01*
X123000000Y-45000000D02*
X131000000Y-45000000D01*
X150500000Y-41500000D02*
X147000000Y-38000000D01*
X156000000Y-41500000D02*
X150500000Y-41500000D01*
X135000000Y-41000000D02*
X138000000Y-44000000D01*
X153500000Y-44000000D02*
X156000000Y-41500000D01*
X138000000Y-44000000D02*
X153500000Y-44000000D01*
X85000000Y-75000000D02*
X85000000Y-125000000D01*
X115380000Y-55000000D02*
X115380000Y-47620000D01*
X115380000Y-47620000D02*
X118000000Y-45000000D01*
X134035010Y-100535010D02*
X144000000Y-110500000D01*
X134035010Y-88625010D02*
X134035010Y-100535010D01*
X133110000Y-87700000D02*
X134035010Y-88625010D01*
X85000000Y-125000000D02*
X85000000Y-137000000D01*
X85000000Y-137000000D02*
X88000000Y-140000000D01*
%TO.N,+BATT*%
X123000000Y-37000000D02*
X127000000Y-33000000D01*
X150000000Y-33000000D02*
X156000000Y-39000000D01*
X127000000Y-33000000D02*
X150000000Y-33000000D01*
X147540000Y-35460000D02*
X150000000Y-33000000D01*
X147000000Y-35460000D02*
X147540000Y-35460000D01*
X92363590Y-37000000D02*
X83000000Y-46363590D01*
X123000000Y-37000000D02*
X92363590Y-37000000D01*
X83000000Y-46363590D02*
X83000000Y-143000000D01*
X83000000Y-143000000D02*
X83000000Y-145000000D01*
X83000000Y-145000000D02*
X88000000Y-150000000D01*
%TO.N,+3V3*%
X143460000Y-37000000D02*
X147000000Y-40540000D01*
X123000000Y-41000000D02*
X127000000Y-37000000D01*
X133500000Y-37000000D02*
X133000000Y-37000000D01*
X135000000Y-38500000D02*
X133500000Y-37000000D01*
X127000000Y-37000000D02*
X133000000Y-37000000D01*
X133000000Y-37000000D02*
X143460000Y-37000000D01*
X156190000Y-89000000D02*
X150890000Y-94300000D01*
X163000000Y-89000000D02*
X156190000Y-89000000D01*
%TO.N,Net-(D100-Pad2)*%
X94000000Y-153460000D02*
X95540000Y-155000000D01*
X94000000Y-148000000D02*
X94000000Y-153460000D01*
%TO.N,Net-(D108-Pad2)*%
X163000000Y-106000000D02*
X157000000Y-106000000D01*
X157000000Y-106000000D02*
X154000000Y-109000000D01*
X154000000Y-120540000D02*
X149540000Y-125000000D01*
X154000000Y-109000000D02*
X154000000Y-120540000D01*
%TO.N,Net-(D109-Pad2)*%
X161540000Y-123000000D02*
X149540000Y-135000000D01*
X163000000Y-123000000D02*
X161540000Y-123000000D01*
%TO.N,Net-(D110-Pad2)*%
X154540000Y-140000000D02*
X149540000Y-145000000D01*
X163000000Y-140000000D02*
X154540000Y-140000000D01*
%TO.N,Net-(D111-Pad2)*%
X151540000Y-157000000D02*
X149540000Y-155000000D01*
X163000000Y-157000000D02*
X151540000Y-157000000D01*
%TO.N,/HH_D1_B0*%
X94000000Y-135300000D02*
X94000000Y-75000000D01*
X94000000Y-75000000D02*
X97000000Y-72000000D01*
X112650000Y-72000000D02*
X115350000Y-74700000D01*
X97000000Y-72000000D02*
X112650000Y-72000000D01*
%TO.N,/MM_D1_B2*%
X118000000Y-90000000D02*
X113890000Y-90000000D01*
X120000000Y-92000000D02*
X118000000Y-90000000D01*
X120000000Y-107000000D02*
X120000000Y-92000000D01*
X113890000Y-90000000D02*
X105190000Y-81300000D01*
X128000000Y-110300000D02*
X123300000Y-110300000D01*
X123300000Y-110300000D02*
X120000000Y-107000000D01*
%TO.N,/MM_D1_B1*%
X128000000Y-127300000D02*
X131000000Y-124300000D01*
X121000000Y-98000000D02*
X121000000Y-91000000D01*
X131000000Y-124300000D02*
X131000000Y-108000000D01*
X113430000Y-87000000D02*
X107730000Y-81300000D01*
X131000000Y-108000000D02*
X121000000Y-98000000D01*
X117000000Y-87000000D02*
X113430000Y-87000000D01*
X121000000Y-91000000D02*
X117000000Y-87000000D01*
%TO.N,/MM_D1_B0*%
X111101839Y-81300000D02*
X110270000Y-81300000D01*
X114801839Y-85000000D02*
X111101839Y-81300000D01*
X132000000Y-140300000D02*
X132000000Y-107000000D01*
X122000000Y-90000000D02*
X117000000Y-85000000D01*
X132000000Y-107000000D02*
X122000000Y-97000000D01*
X128000000Y-144300000D02*
X132000000Y-140300000D01*
X122000000Y-97000000D02*
X122000000Y-90000000D01*
X117000000Y-85000000D02*
X114801839Y-85000000D01*
%TO.N,/MM_D0_B2*%
X163000000Y-110300000D02*
X166000000Y-107300000D01*
X166000000Y-107300000D02*
X166000000Y-88000000D01*
X164374990Y-86374990D02*
X147135010Y-86374990D01*
X147135010Y-86374990D02*
X145810000Y-87700000D01*
X166000000Y-88000000D02*
X164374990Y-86374990D01*
%TO.N,/MM_D0_B1*%
X165000000Y-85000000D02*
X145970000Y-85000000D01*
X167000000Y-87000000D02*
X165000000Y-85000000D01*
X163000000Y-127300000D02*
X167000000Y-123300000D01*
X145970000Y-85000000D02*
X143270000Y-87700000D01*
X167000000Y-123300000D02*
X167000000Y-87000000D01*
%TO.N,/MM_D0_B0*%
X144000000Y-84000000D02*
X144000000Y-84430000D01*
X167000000Y-84000000D02*
X144000000Y-84000000D01*
X144000000Y-84430000D02*
X140730000Y-87700000D01*
X169000000Y-86000000D02*
X167000000Y-84000000D01*
X163000000Y-144300000D02*
X169000000Y-138300000D01*
X169000000Y-138300000D02*
X169000000Y-86000000D01*
%TO.N,Net-(R112-Pad2)*%
X154174999Y-70325001D02*
X149000000Y-75500000D01*
X154174999Y-68525001D02*
X154174999Y-70325001D01*
X161700000Y-61000000D02*
X154174999Y-68525001D01*
%TO.N,Net-(SW101-Pad1)*%
X144000000Y-106000000D02*
X135000000Y-97000000D01*
X135000000Y-97000000D02*
X135000000Y-95358161D01*
X134724990Y-95083151D02*
X134724990Y-54724990D01*
X135000000Y-95358161D02*
X134724990Y-95083151D01*
X121785010Y-53674990D02*
X120460000Y-55000000D01*
X133674990Y-53674990D02*
X121785010Y-53674990D01*
X134724990Y-54724990D02*
X133674990Y-53674990D01*
%TO.N,/SR_RESET*%
X140535010Y-89025010D02*
X145810000Y-94300000D01*
X139515010Y-89025010D02*
X140535010Y-89025010D01*
X138190000Y-87700000D02*
X139515010Y-89025010D01*
X110000000Y-66434315D02*
X120000000Y-56434315D01*
X121565685Y-56434315D02*
X123000000Y-55000000D01*
X120000000Y-56434315D02*
X121565685Y-56434315D01*
X110000000Y-67000000D02*
X110000000Y-66434315D01*
%TO.N,/SR_DATA*%
X116275010Y-80374990D02*
X115350000Y-81300000D01*
X121385010Y-68806849D02*
X116275010Y-73916849D01*
X121385010Y-59154990D02*
X121385010Y-68806849D01*
X125540000Y-55000000D02*
X121385010Y-59154990D01*
X104674990Y-76724990D02*
X116275010Y-76724990D01*
X102650000Y-74700000D02*
X104674990Y-76724990D01*
X116275010Y-73916849D02*
X116275010Y-76724990D01*
X116275010Y-76724990D02*
X116275010Y-80374990D01*
X147024990Y-95625010D02*
X148350000Y-94300000D01*
X142886849Y-95625010D02*
X147024990Y-95625010D01*
X142344990Y-95083151D02*
X142886849Y-95625010D01*
X142344990Y-94206829D02*
X142344990Y-95083151D01*
X135838161Y-87700000D02*
X142344990Y-94206829D01*
X135650000Y-87700000D02*
X135838161Y-87700000D01*
X115350000Y-81300000D02*
X119050000Y-85000000D01*
X119050000Y-85000000D02*
X122000000Y-85000000D01*
X122000000Y-85000000D02*
X122000000Y-85000000D01*
%TO.N,/SR_CLK_1*%
X133110000Y-94300000D02*
X131300000Y-94300000D01*
X131300000Y-94300000D02*
X128000000Y-91000000D01*
X128000000Y-91000000D02*
X128000000Y-71000000D01*
X131545010Y-58465010D02*
X128080000Y-55000000D01*
X131545010Y-67454990D02*
X131545010Y-58465010D01*
X128000000Y-71000000D02*
X131545010Y-67454990D01*
%TO.N,/SR_CLK_3*%
X118920000Y-74700000D02*
X117890000Y-74700000D01*
X130620000Y-63000000D02*
X118920000Y-74700000D01*
%TD*%
M02*
