M48
; DRILL file {KiCad 5.1.8-db9833491~87~ubuntu18.04.1} date Tue Nov 24 07:54:21 2020
; FORMAT={-:-/ absolute / metric / decimal}
; #@! TF.CreationDate,2020-11-24T07:54:21-06:00
; #@! TF.GenerationSoftware,Kicad,Pcbnew,5.1.8-db9833491~87~ubuntu18.04.1
; #@! TF.FileFunction,Plated,1,2,PTH
FMAT,2
METRIC
T1C0.400
T2C0.600
T3C0.800
T4C0.900
T5C1.000
T6C1.100
%
G90
G05
T1
X85.0Y-75.0
X85.0Y-125.0
X110.0Y-67.0
X122.0Y-85.0
X163.0Y-89.0
T2
X147.0Y-35.46
X147.0Y-38.0
X147.0Y-40.54
T3
X88.0Y-140.0
X88.0Y-150.0
X123.0Y-37.0
X123.0Y-41.0
X123.0Y-45.0
X163.0Y-110.3
X163.0Y-123.0
X117.0Y-93.3
X117.0Y-106.0
X100.11Y-74.7
X100.11Y-81.3
X102.65Y-74.7
X102.65Y-81.3
X105.19Y-74.7
X105.19Y-81.3
X107.73Y-74.7
X107.73Y-81.3
X110.27Y-74.7
X110.27Y-81.3
X112.81Y-74.7
X112.81Y-81.3
X115.35Y-74.7
X115.35Y-81.3
X117.89Y-74.7
X117.89Y-81.3
X117.0Y-110.3
X117.0Y-123.0
X135.0Y-38.5
X135.0Y-41.0
X128.0Y-144.3
X128.0Y-157.0
X128.0Y-127.3
X128.0Y-140.0
X128.0Y-110.3
X128.0Y-123.0
X163.0Y-144.3
X163.0Y-157.0
X117.0Y-144.3
X117.0Y-157.0
X115.38Y-55.0
X115.38Y-63.0
X117.92Y-55.0
X117.92Y-63.0
X120.46Y-55.0
X120.46Y-63.0
X123.0Y-55.0
X123.0Y-63.0
X125.54Y-55.0
X125.54Y-63.0
X128.08Y-55.0
X128.08Y-63.0
X130.62Y-55.0
X130.62Y-63.0
X163.0Y-93.3
X163.0Y-106.0
X133.11Y-87.7
X133.11Y-94.3
X135.65Y-87.7
X135.65Y-94.3
X138.19Y-87.7
X138.19Y-94.3
X140.73Y-87.7
X140.73Y-94.3
X143.27Y-87.7
X143.27Y-94.3
X145.81Y-87.7
X145.81Y-94.3
X148.35Y-87.7
X148.35Y-94.3
X150.89Y-87.7
X150.89Y-94.3
X94.0Y-135.3
X94.0Y-148.0
X149.0Y-61.0
X161.7Y-61.0
X117.0Y-127.3
X117.0Y-140.0
X156.0Y-39.0
X156.0Y-41.5
X163.0Y-127.3
X163.0Y-140.0
T4
X147.0Y-145.0
X149.54Y-145.0
X93.0Y-155.0
X95.54Y-155.0
X103.0Y-155.0
X105.54Y-155.0
X103.0Y-135.0
X105.54Y-135.0
X137.0Y-155.0
X139.54Y-155.0
X103.0Y-125.0
X105.54Y-125.0
X147.0Y-135.0
X149.54Y-135.0
X147.0Y-125.0
X149.54Y-125.0
X103.0Y-145.0
X105.54Y-145.0
X147.0Y-155.0
X149.54Y-155.0
X137.0Y-135.0
X139.54Y-135.0
X137.0Y-145.0
X139.54Y-145.0
T5
X149.0Y-73.0
X149.0Y-75.5
X149.0Y-78.0
T6
X144.0Y-106.0
X144.0Y-110.5
X150.5Y-106.0
X150.5Y-110.5
X96.0Y-107.0
X96.0Y-111.5
X102.5Y-107.0
X102.5Y-111.5
T0
M30
