%TF.GenerationSoftware,KiCad,Pcbnew,5.1.8-db9833491~87~ubuntu18.04.1*%
%TF.CreationDate,2020-11-24T07:54:30-06:00*%
%TF.ProjectId,binary-clock-01,62696e61-7279-42d6-936c-6f636b2d3031,rev?*%
%TF.SameCoordinates,Original*%
%TF.FileFunction,Legend,Top*%
%TF.FilePolarity,Positive*%
%FSLAX46Y46*%
G04 Gerber Fmt 4.6, Leading zero omitted, Abs format (unit mm)*
G04 Created by KiCad (PCBNEW 5.1.8-db9833491~87~ubuntu18.04.1) date 2020-11-24 07:54:30*
%MOMM*%
%LPD*%
G01*
G04 APERTURE LIST*
%ADD10C,0.150000*%
%ADD11C,0.500000*%
%ADD12C,0.120000*%
G04 APERTURE END LIST*
D10*
X82261904Y-147928571D02*
X82404761Y-147976190D01*
X82452380Y-148023809D01*
X82500000Y-148119047D01*
X82500000Y-148261904D01*
X82452380Y-148357142D01*
X82404761Y-148404761D01*
X82309523Y-148452380D01*
X81928571Y-148452380D01*
X81928571Y-147452380D01*
X82261904Y-147452380D01*
X82357142Y-147500000D01*
X82404761Y-147547619D01*
X82452380Y-147642857D01*
X82452380Y-147738095D01*
X82404761Y-147833333D01*
X82357142Y-147880952D01*
X82261904Y-147928571D01*
X81928571Y-147928571D01*
X83357142Y-148452380D02*
X83357142Y-147928571D01*
X83309523Y-147833333D01*
X83214285Y-147785714D01*
X83023809Y-147785714D01*
X82928571Y-147833333D01*
X83357142Y-148404761D02*
X83261904Y-148452380D01*
X83023809Y-148452380D01*
X82928571Y-148404761D01*
X82880952Y-148309523D01*
X82880952Y-148214285D01*
X82928571Y-148119047D01*
X83023809Y-148071428D01*
X83261904Y-148071428D01*
X83357142Y-148023809D01*
X83690476Y-147785714D02*
X84071428Y-147785714D01*
X83833333Y-147452380D02*
X83833333Y-148309523D01*
X83880952Y-148404761D01*
X83976190Y-148452380D01*
X84071428Y-148452380D01*
X84261904Y-147785714D02*
X84642857Y-147785714D01*
X84404761Y-147452380D02*
X84404761Y-148309523D01*
X84452380Y-148404761D01*
X84547619Y-148452380D01*
X84642857Y-148452380D01*
X85357142Y-148404761D02*
X85261904Y-148452380D01*
X85071428Y-148452380D01*
X84976190Y-148404761D01*
X84928571Y-148309523D01*
X84928571Y-147928571D01*
X84976190Y-147833333D01*
X85071428Y-147785714D01*
X85261904Y-147785714D01*
X85357142Y-147833333D01*
X85404761Y-147928571D01*
X85404761Y-148023809D01*
X84928571Y-148119047D01*
X85833333Y-148452380D02*
X85833333Y-147785714D01*
X85833333Y-147976190D02*
X85880952Y-147880952D01*
X85928571Y-147833333D01*
X86023809Y-147785714D01*
X86119047Y-147785714D01*
X86357142Y-147785714D02*
X86595238Y-148452380D01*
X86833333Y-147785714D02*
X86595238Y-148452380D01*
X86500000Y-148690476D01*
X86452380Y-148738095D01*
X86357142Y-148785714D01*
X88261904Y-148833333D02*
X88214285Y-148785714D01*
X88119047Y-148642857D01*
X88071428Y-148547619D01*
X88023809Y-148404761D01*
X87976190Y-148166666D01*
X87976190Y-147976190D01*
X88023809Y-147738095D01*
X88071428Y-147595238D01*
X88119047Y-147500000D01*
X88214285Y-147357142D01*
X88261904Y-147309523D01*
X88642857Y-148071428D02*
X89404761Y-148071428D01*
X89023809Y-148452380D02*
X89023809Y-147690476D01*
X89785714Y-148833333D02*
X89833333Y-148785714D01*
X89928571Y-148642857D01*
X89976190Y-148547619D01*
X90023809Y-148404761D01*
X90071428Y-148166666D01*
X90071428Y-147976190D01*
X90023809Y-147738095D01*
X89976190Y-147595238D01*
X89928571Y-147500000D01*
X89833333Y-147357142D01*
X89785714Y-147309523D01*
X85238095Y-140500000D02*
X85142857Y-140452380D01*
X85000000Y-140452380D01*
X84857142Y-140500000D01*
X84761904Y-140595238D01*
X84714285Y-140690476D01*
X84666666Y-140880952D01*
X84666666Y-141023809D01*
X84714285Y-141214285D01*
X84761904Y-141309523D01*
X84857142Y-141404761D01*
X85000000Y-141452380D01*
X85095238Y-141452380D01*
X85238095Y-141404761D01*
X85285714Y-141357142D01*
X85285714Y-141023809D01*
X85095238Y-141023809D01*
X85714285Y-141452380D02*
X85714285Y-140452380D01*
X86285714Y-141452380D01*
X86285714Y-140452380D01*
X86761904Y-141452380D02*
X86761904Y-140452380D01*
X87000000Y-140452380D01*
X87142857Y-140500000D01*
X87238095Y-140595238D01*
X87285714Y-140690476D01*
X87333333Y-140880952D01*
X87333333Y-141023809D01*
X87285714Y-141214285D01*
X87238095Y-141309523D01*
X87142857Y-141404761D01*
X87000000Y-141452380D01*
X86761904Y-141452380D01*
X86238095Y-126500000D02*
X86142857Y-126452380D01*
X86000000Y-126452380D01*
X85857142Y-126500000D01*
X85761904Y-126595238D01*
X85714285Y-126690476D01*
X85666666Y-126880952D01*
X85666666Y-127023809D01*
X85714285Y-127214285D01*
X85761904Y-127309523D01*
X85857142Y-127404761D01*
X86000000Y-127452380D01*
X86095238Y-127452380D01*
X86238095Y-127404761D01*
X86285714Y-127357142D01*
X86285714Y-127023809D01*
X86095238Y-127023809D01*
X86714285Y-127452380D02*
X86714285Y-126452380D01*
X87285714Y-127452380D01*
X87285714Y-126452380D01*
X87761904Y-127452380D02*
X87761904Y-126452380D01*
X88000000Y-126452380D01*
X88142857Y-126500000D01*
X88238095Y-126595238D01*
X88285714Y-126690476D01*
X88333333Y-126880952D01*
X88333333Y-127023809D01*
X88285714Y-127214285D01*
X88238095Y-127309523D01*
X88142857Y-127404761D01*
X88000000Y-127452380D01*
X87761904Y-127452380D01*
X86238095Y-75500000D02*
X86142857Y-75452380D01*
X86000000Y-75452380D01*
X85857142Y-75500000D01*
X85761904Y-75595238D01*
X85714285Y-75690476D01*
X85666666Y-75880952D01*
X85666666Y-76023809D01*
X85714285Y-76214285D01*
X85761904Y-76309523D01*
X85857142Y-76404761D01*
X86000000Y-76452380D01*
X86095238Y-76452380D01*
X86238095Y-76404761D01*
X86285714Y-76357142D01*
X86285714Y-76023809D01*
X86095238Y-76023809D01*
X86714285Y-76452380D02*
X86714285Y-75452380D01*
X87285714Y-76452380D01*
X87285714Y-75452380D01*
X87761904Y-76452380D02*
X87761904Y-75452380D01*
X88000000Y-75452380D01*
X88142857Y-75500000D01*
X88238095Y-75595238D01*
X88285714Y-75690476D01*
X88333333Y-75880952D01*
X88333333Y-76023809D01*
X88285714Y-76214285D01*
X88238095Y-76309523D01*
X88142857Y-76404761D01*
X88000000Y-76452380D01*
X87761904Y-76452380D01*
X122238095Y-46500000D02*
X122142857Y-46452380D01*
X122000000Y-46452380D01*
X121857142Y-46500000D01*
X121761904Y-46595238D01*
X121714285Y-46690476D01*
X121666666Y-46880952D01*
X121666666Y-47023809D01*
X121714285Y-47214285D01*
X121761904Y-47309523D01*
X121857142Y-47404761D01*
X122000000Y-47452380D01*
X122095238Y-47452380D01*
X122238095Y-47404761D01*
X122285714Y-47357142D01*
X122285714Y-47023809D01*
X122095238Y-47023809D01*
X122714285Y-47452380D02*
X122714285Y-46452380D01*
X123285714Y-47452380D01*
X123285714Y-46452380D01*
X123761904Y-47452380D02*
X123761904Y-46452380D01*
X124000000Y-46452380D01*
X124142857Y-46500000D01*
X124238095Y-46595238D01*
X124285714Y-46690476D01*
X124333333Y-46880952D01*
X124333333Y-47023809D01*
X124285714Y-47214285D01*
X124238095Y-47309523D01*
X124142857Y-47404761D01*
X124000000Y-47452380D01*
X123761904Y-47452380D01*
X114261904Y-34928571D02*
X114404761Y-34976190D01*
X114452380Y-35023809D01*
X114500000Y-35119047D01*
X114500000Y-35261904D01*
X114452380Y-35357142D01*
X114404761Y-35404761D01*
X114309523Y-35452380D01*
X113928571Y-35452380D01*
X113928571Y-34452380D01*
X114261904Y-34452380D01*
X114357142Y-34500000D01*
X114404761Y-34547619D01*
X114452380Y-34642857D01*
X114452380Y-34738095D01*
X114404761Y-34833333D01*
X114357142Y-34880952D01*
X114261904Y-34928571D01*
X113928571Y-34928571D01*
X115357142Y-35452380D02*
X115357142Y-34928571D01*
X115309523Y-34833333D01*
X115214285Y-34785714D01*
X115023809Y-34785714D01*
X114928571Y-34833333D01*
X115357142Y-35404761D02*
X115261904Y-35452380D01*
X115023809Y-35452380D01*
X114928571Y-35404761D01*
X114880952Y-35309523D01*
X114880952Y-35214285D01*
X114928571Y-35119047D01*
X115023809Y-35071428D01*
X115261904Y-35071428D01*
X115357142Y-35023809D01*
X115690476Y-34785714D02*
X116071428Y-34785714D01*
X115833333Y-34452380D02*
X115833333Y-35309523D01*
X115880952Y-35404761D01*
X115976190Y-35452380D01*
X116071428Y-35452380D01*
X116261904Y-34785714D02*
X116642857Y-34785714D01*
X116404761Y-34452380D02*
X116404761Y-35309523D01*
X116452380Y-35404761D01*
X116547619Y-35452380D01*
X116642857Y-35452380D01*
X117357142Y-35404761D02*
X117261904Y-35452380D01*
X117071428Y-35452380D01*
X116976190Y-35404761D01*
X116928571Y-35309523D01*
X116928571Y-34928571D01*
X116976190Y-34833333D01*
X117071428Y-34785714D01*
X117261904Y-34785714D01*
X117357142Y-34833333D01*
X117404761Y-34928571D01*
X117404761Y-35023809D01*
X116928571Y-35119047D01*
X117833333Y-35452380D02*
X117833333Y-34785714D01*
X117833333Y-34976190D02*
X117880952Y-34880952D01*
X117928571Y-34833333D01*
X118023809Y-34785714D01*
X118119047Y-34785714D01*
X118357142Y-34785714D02*
X118595238Y-35452380D01*
X118833333Y-34785714D02*
X118595238Y-35452380D01*
X118500000Y-35690476D01*
X118452380Y-35738095D01*
X118357142Y-35785714D01*
X120261904Y-35833333D02*
X120214285Y-35785714D01*
X120119047Y-35642857D01*
X120071428Y-35547619D01*
X120023809Y-35404761D01*
X119976190Y-35166666D01*
X119976190Y-34976190D01*
X120023809Y-34738095D01*
X120071428Y-34595238D01*
X120119047Y-34500000D01*
X120214285Y-34357142D01*
X120261904Y-34309523D01*
X120642857Y-35071428D02*
X121404761Y-35071428D01*
X121023809Y-35452380D02*
X121023809Y-34690476D01*
X121785714Y-35833333D02*
X121833333Y-35785714D01*
X121928571Y-35642857D01*
X121976190Y-35547619D01*
X122023809Y-35404761D01*
X122071428Y-35166666D01*
X122071428Y-34976190D01*
X122023809Y-34738095D01*
X121976190Y-34595238D01*
X121928571Y-34500000D01*
X121833333Y-34357142D01*
X121785714Y-34309523D01*
D11*
X97380952Y-166809523D02*
X97380952Y-162809523D01*
X97380952Y-164714285D02*
X99666666Y-164714285D01*
X99666666Y-166809523D02*
X99666666Y-162809523D01*
X102142857Y-166809523D02*
X101761904Y-166619047D01*
X101571428Y-166428571D01*
X101380952Y-166047619D01*
X101380952Y-164904761D01*
X101571428Y-164523809D01*
X101761904Y-164333333D01*
X102142857Y-164142857D01*
X102714285Y-164142857D01*
X103095238Y-164333333D01*
X103285714Y-164523809D01*
X103476190Y-164904761D01*
X103476190Y-166047619D01*
X103285714Y-166428571D01*
X103095238Y-166619047D01*
X102714285Y-166809523D01*
X102142857Y-166809523D01*
X106904761Y-164142857D02*
X106904761Y-166809523D01*
X105190476Y-164142857D02*
X105190476Y-166238095D01*
X105380952Y-166619047D01*
X105761904Y-166809523D01*
X106333333Y-166809523D01*
X106714285Y-166619047D01*
X106904761Y-166428571D01*
X108809523Y-166809523D02*
X108809523Y-164142857D01*
X108809523Y-164904761D02*
X109000000Y-164523809D01*
X109190476Y-164333333D01*
X109571428Y-164142857D01*
X109952380Y-164142857D01*
X111095238Y-166619047D02*
X111476190Y-166809523D01*
X112238095Y-166809523D01*
X112619047Y-166619047D01*
X112809523Y-166238095D01*
X112809523Y-166047619D01*
X112619047Y-165666666D01*
X112238095Y-165476190D01*
X111666666Y-165476190D01*
X111285714Y-165285714D01*
X111095238Y-164904761D01*
X111095238Y-164714285D01*
X111285714Y-164333333D01*
X111666666Y-164142857D01*
X112238095Y-164142857D01*
X112619047Y-164333333D01*
X109857142Y-143190476D02*
X110047619Y-143000000D01*
X110428571Y-142809523D01*
X111380952Y-142809523D01*
X111761904Y-143000000D01*
X111952380Y-143190476D01*
X112142857Y-143571428D01*
X112142857Y-143952380D01*
X111952380Y-144523809D01*
X109666666Y-146809523D01*
X112142857Y-146809523D01*
X110619047Y-124523809D02*
X110238095Y-124333333D01*
X110047619Y-124142857D01*
X109857142Y-123761904D01*
X109857142Y-123571428D01*
X110047619Y-123190476D01*
X110238095Y-123000000D01*
X110619047Y-122809523D01*
X111380952Y-122809523D01*
X111761904Y-123000000D01*
X111952380Y-123190476D01*
X112142857Y-123571428D01*
X112142857Y-123761904D01*
X111952380Y-124142857D01*
X111761904Y-124333333D01*
X111380952Y-124523809D01*
X110619047Y-124523809D01*
X110238095Y-124714285D01*
X110047619Y-124904761D01*
X109857142Y-125285714D01*
X109857142Y-126047619D01*
X110047619Y-126428571D01*
X110238095Y-126619047D01*
X110619047Y-126809523D01*
X111380952Y-126809523D01*
X111761904Y-126619047D01*
X111952380Y-126428571D01*
X112142857Y-126047619D01*
X112142857Y-125285714D01*
X111952380Y-124904761D01*
X111761904Y-124714285D01*
X111380952Y-124523809D01*
X111761904Y-134142857D02*
X111761904Y-136809523D01*
X110809523Y-132619047D02*
X109857142Y-135476190D01*
X112333333Y-135476190D01*
X112142857Y-156809523D02*
X109857142Y-156809523D01*
X111000000Y-156809523D02*
X111000000Y-152809523D01*
X110619047Y-153380952D01*
X110238095Y-153761904D01*
X109857142Y-153952380D01*
X154619047Y-124523809D02*
X154238095Y-124333333D01*
X154047619Y-124142857D01*
X153857142Y-123761904D01*
X153857142Y-123571428D01*
X154047619Y-123190476D01*
X154238095Y-123000000D01*
X154619047Y-122809523D01*
X155380952Y-122809523D01*
X155761904Y-123000000D01*
X155952380Y-123190476D01*
X156142857Y-123571428D01*
X156142857Y-123761904D01*
X155952380Y-124142857D01*
X155761904Y-124333333D01*
X155380952Y-124523809D01*
X154619047Y-124523809D01*
X154238095Y-124714285D01*
X154047619Y-124904761D01*
X153857142Y-125285714D01*
X153857142Y-126047619D01*
X154047619Y-126428571D01*
X154238095Y-126619047D01*
X154619047Y-126809523D01*
X155380952Y-126809523D01*
X155761904Y-126619047D01*
X155952380Y-126428571D01*
X156142857Y-126047619D01*
X156142857Y-125285714D01*
X155952380Y-124904761D01*
X155761904Y-124714285D01*
X155380952Y-124523809D01*
X155761904Y-134142857D02*
X155761904Y-136809523D01*
X154809523Y-132619047D02*
X153857142Y-135476190D01*
X156333333Y-135476190D01*
X153857142Y-143190476D02*
X154047619Y-143000000D01*
X154428571Y-142809523D01*
X155380952Y-142809523D01*
X155761904Y-143000000D01*
X155952380Y-143190476D01*
X156142857Y-143571428D01*
X156142857Y-143952380D01*
X155952380Y-144523809D01*
X153666666Y-146809523D01*
X156142857Y-146809523D01*
X156142857Y-156809523D02*
X153857142Y-156809523D01*
X155000000Y-156809523D02*
X155000000Y-152809523D01*
X154619047Y-153380952D01*
X154238095Y-153761904D01*
X153857142Y-153952380D01*
X132619047Y-166809523D02*
X132619047Y-162809523D01*
X133952380Y-165666666D01*
X135285714Y-162809523D01*
X135285714Y-166809523D01*
X137190476Y-166809523D02*
X137190476Y-164142857D01*
X137190476Y-162809523D02*
X137000000Y-163000000D01*
X137190476Y-163190476D01*
X137380952Y-163000000D01*
X137190476Y-162809523D01*
X137190476Y-163190476D01*
X139095238Y-164142857D02*
X139095238Y-166809523D01*
X139095238Y-164523809D02*
X139285714Y-164333333D01*
X139666666Y-164142857D01*
X140238095Y-164142857D01*
X140619047Y-164333333D01*
X140809523Y-164714285D01*
X140809523Y-166809523D01*
X144428571Y-164142857D02*
X144428571Y-166809523D01*
X142714285Y-164142857D02*
X142714285Y-166238095D01*
X142904761Y-166619047D01*
X143285714Y-166809523D01*
X143857142Y-166809523D01*
X144238095Y-166619047D01*
X144428571Y-166428571D01*
X145761904Y-164142857D02*
X147285714Y-164142857D01*
X146333333Y-162809523D02*
X146333333Y-166238095D01*
X146523809Y-166619047D01*
X146904761Y-166809523D01*
X147285714Y-166809523D01*
X150142857Y-166619047D02*
X149761904Y-166809523D01*
X149000000Y-166809523D01*
X148619047Y-166619047D01*
X148428571Y-166238095D01*
X148428571Y-164714285D01*
X148619047Y-164333333D01*
X149000000Y-164142857D01*
X149761904Y-164142857D01*
X150142857Y-164333333D01*
X150333333Y-164714285D01*
X150333333Y-165095238D01*
X148428571Y-165476190D01*
X151857142Y-166619047D02*
X152238095Y-166809523D01*
X153000000Y-166809523D01*
X153380952Y-166619047D01*
X153571428Y-166238095D01*
X153571428Y-166047619D01*
X153380952Y-165666666D01*
X153000000Y-165476190D01*
X152428571Y-165476190D01*
X152047619Y-165285714D01*
X151857142Y-164904761D01*
X151857142Y-164714285D01*
X152047619Y-164333333D01*
X152428571Y-164142857D01*
X153000000Y-164142857D01*
X153380952Y-164333333D01*
D12*
%TO.C,U102*%
X119490000Y-76233334D02*
X119490000Y-72700001D01*
X119130000Y-76233334D02*
X119490000Y-76233334D01*
X119130000Y-79766666D02*
X119130000Y-76233334D01*
X119490000Y-79766666D02*
X119130000Y-79766666D01*
X119490000Y-83300000D02*
X119490000Y-79766666D01*
X98510000Y-83299999D02*
X119490000Y-83300000D01*
X98510000Y-72700000D02*
X98510000Y-83299999D01*
X119490000Y-72700001D02*
X98510000Y-72700000D01*
%TO.C,C100*%
X159270000Y-40250000D02*
G75*
G03*
X159270000Y-40250000I-3270000J0D01*
G01*
%TO.C,C101*%
X138270000Y-39750000D02*
G75*
G03*
X138270000Y-39750000I-3270000J0D01*
G01*
%TO.C,D100*%
X96770000Y-155000000D02*
G75*
G03*
X96770000Y-155000000I-2500000J0D01*
G01*
X91710000Y-153455000D02*
X91710000Y-156545000D01*
X97260000Y-155000462D02*
G75*
G03*
X91710000Y-153455170I-2990000J462D01*
G01*
X97260000Y-154999538D02*
G75*
G02*
X91710000Y-156544830I-2990000J-462D01*
G01*
%TO.C,D101*%
X101710000Y-123455000D02*
X101710000Y-126545000D01*
X106770000Y-125000000D02*
G75*
G03*
X106770000Y-125000000I-2500000J0D01*
G01*
X107260000Y-124999538D02*
G75*
G02*
X101710000Y-126544830I-2990000J-462D01*
G01*
X107260000Y-125000462D02*
G75*
G03*
X101710000Y-123455170I-2990000J462D01*
G01*
%TO.C,D102*%
X101710000Y-133455000D02*
X101710000Y-136545000D01*
X106770000Y-135000000D02*
G75*
G03*
X106770000Y-135000000I-2500000J0D01*
G01*
X107260000Y-134999538D02*
G75*
G02*
X101710000Y-136544830I-2990000J-462D01*
G01*
X107260000Y-135000462D02*
G75*
G03*
X101710000Y-133455170I-2990000J462D01*
G01*
%TO.C,D103*%
X106770000Y-145000000D02*
G75*
G03*
X106770000Y-145000000I-2500000J0D01*
G01*
X101710000Y-143455000D02*
X101710000Y-146545000D01*
X107260000Y-145000462D02*
G75*
G03*
X101710000Y-143455170I-2990000J462D01*
G01*
X107260000Y-144999538D02*
G75*
G02*
X101710000Y-146544830I-2990000J-462D01*
G01*
%TO.C,D104*%
X101710000Y-153455000D02*
X101710000Y-156545000D01*
X106770000Y-155000000D02*
G75*
G03*
X106770000Y-155000000I-2500000J0D01*
G01*
X107260000Y-154999538D02*
G75*
G02*
X101710000Y-156544830I-2990000J-462D01*
G01*
X107260000Y-155000462D02*
G75*
G03*
X101710000Y-153455170I-2990000J462D01*
G01*
%TO.C,D105*%
X140770000Y-135000000D02*
G75*
G03*
X140770000Y-135000000I-2500000J0D01*
G01*
X135710000Y-133455000D02*
X135710000Y-136545000D01*
X141260000Y-135000462D02*
G75*
G03*
X135710000Y-133455170I-2990000J462D01*
G01*
X141260000Y-134999538D02*
G75*
G02*
X135710000Y-136544830I-2990000J-462D01*
G01*
%TO.C,D106*%
X135710000Y-143455000D02*
X135710000Y-146545000D01*
X140770000Y-145000000D02*
G75*
G03*
X140770000Y-145000000I-2500000J0D01*
G01*
X141260000Y-144999538D02*
G75*
G02*
X135710000Y-146544830I-2990000J-462D01*
G01*
X141260000Y-145000462D02*
G75*
G03*
X135710000Y-143455170I-2990000J462D01*
G01*
%TO.C,D107*%
X140770000Y-155000000D02*
G75*
G03*
X140770000Y-155000000I-2500000J0D01*
G01*
X135710000Y-153455000D02*
X135710000Y-156545000D01*
X141260000Y-155000462D02*
G75*
G03*
X135710000Y-153455170I-2990000J462D01*
G01*
X141260000Y-154999538D02*
G75*
G02*
X135710000Y-156544830I-2990000J-462D01*
G01*
%TO.C,D108*%
X145710000Y-123455000D02*
X145710000Y-126545000D01*
X150770000Y-125000000D02*
G75*
G03*
X150770000Y-125000000I-2500000J0D01*
G01*
X151260000Y-124999538D02*
G75*
G02*
X145710000Y-126544830I-2990000J-462D01*
G01*
X151260000Y-125000462D02*
G75*
G03*
X145710000Y-123455170I-2990000J462D01*
G01*
%TO.C,D109*%
X150770000Y-135000000D02*
G75*
G03*
X150770000Y-135000000I-2500000J0D01*
G01*
X145710000Y-133455000D02*
X145710000Y-136545000D01*
X151260000Y-135000462D02*
G75*
G03*
X145710000Y-133455170I-2990000J462D01*
G01*
X151260000Y-134999538D02*
G75*
G02*
X145710000Y-136544830I-2990000J-462D01*
G01*
%TO.C,D110*%
X145710000Y-143455000D02*
X145710000Y-146545000D01*
X150770000Y-145000000D02*
G75*
G03*
X150770000Y-145000000I-2500000J0D01*
G01*
X151260000Y-144999538D02*
G75*
G02*
X145710000Y-146544830I-2990000J-462D01*
G01*
X151260000Y-145000462D02*
G75*
G03*
X145710000Y-143455170I-2990000J462D01*
G01*
%TO.C,D111*%
X150770000Y-155000000D02*
G75*
G03*
X150770000Y-155000000I-2500000J0D01*
G01*
X145710000Y-153455000D02*
X145710000Y-156545000D01*
X151260000Y-155000462D02*
G75*
G03*
X145710000Y-153455170I-2990000J462D01*
G01*
X151260000Y-154999538D02*
G75*
G02*
X145710000Y-156544830I-2990000J-462D01*
G01*
%TO.C,R100*%
X92280000Y-146270000D02*
X95720000Y-146270000D01*
X95720000Y-146270000D02*
X95720000Y-137030000D01*
X95720000Y-137030000D02*
X92280000Y-137030000D01*
X92280000Y-137030000D02*
X92280000Y-146270000D01*
X94000000Y-146960000D02*
X94000000Y-146270000D01*
X94000000Y-136340000D02*
X94000000Y-137030000D01*
%TO.C,R101*%
X117000000Y-94340000D02*
X117000000Y-95030000D01*
X117000000Y-104960000D02*
X117000000Y-104270000D01*
X115280000Y-95030000D02*
X115280000Y-104270000D01*
X118720000Y-95030000D02*
X115280000Y-95030000D01*
X118720000Y-104270000D02*
X118720000Y-95030000D01*
X115280000Y-104270000D02*
X118720000Y-104270000D01*
%TO.C,R102*%
X115280000Y-121270000D02*
X118720000Y-121270000D01*
X118720000Y-121270000D02*
X118720000Y-112030000D01*
X118720000Y-112030000D02*
X115280000Y-112030000D01*
X115280000Y-112030000D02*
X115280000Y-121270000D01*
X117000000Y-121960000D02*
X117000000Y-121270000D01*
X117000000Y-111340000D02*
X117000000Y-112030000D01*
%TO.C,R103*%
X117000000Y-128340000D02*
X117000000Y-129030000D01*
X117000000Y-138960000D02*
X117000000Y-138270000D01*
X115280000Y-129030000D02*
X115280000Y-138270000D01*
X118720000Y-129030000D02*
X115280000Y-129030000D01*
X118720000Y-138270000D02*
X118720000Y-129030000D01*
X115280000Y-138270000D02*
X118720000Y-138270000D01*
%TO.C,R104*%
X115280000Y-155270000D02*
X118720000Y-155270000D01*
X118720000Y-155270000D02*
X118720000Y-146030000D01*
X118720000Y-146030000D02*
X115280000Y-146030000D01*
X115280000Y-146030000D02*
X115280000Y-155270000D01*
X117000000Y-155960000D02*
X117000000Y-155270000D01*
X117000000Y-145340000D02*
X117000000Y-146030000D01*
%TO.C,R105*%
X128000000Y-111340000D02*
X128000000Y-112030000D01*
X128000000Y-121960000D02*
X128000000Y-121270000D01*
X126280000Y-112030000D02*
X126280000Y-121270000D01*
X129720000Y-112030000D02*
X126280000Y-112030000D01*
X129720000Y-121270000D02*
X129720000Y-112030000D01*
X126280000Y-121270000D02*
X129720000Y-121270000D01*
%TO.C,R106*%
X126280000Y-138270000D02*
X129720000Y-138270000D01*
X129720000Y-138270000D02*
X129720000Y-129030000D01*
X129720000Y-129030000D02*
X126280000Y-129030000D01*
X126280000Y-129030000D02*
X126280000Y-138270000D01*
X128000000Y-138960000D02*
X128000000Y-138270000D01*
X128000000Y-128340000D02*
X128000000Y-129030000D01*
%TO.C,R107*%
X126280000Y-155270000D02*
X129720000Y-155270000D01*
X129720000Y-155270000D02*
X129720000Y-146030000D01*
X129720000Y-146030000D02*
X126280000Y-146030000D01*
X126280000Y-146030000D02*
X126280000Y-155270000D01*
X128000000Y-155960000D02*
X128000000Y-155270000D01*
X128000000Y-145340000D02*
X128000000Y-146030000D01*
%TO.C,R108*%
X161280000Y-104270000D02*
X164720000Y-104270000D01*
X164720000Y-104270000D02*
X164720000Y-95030000D01*
X164720000Y-95030000D02*
X161280000Y-95030000D01*
X161280000Y-95030000D02*
X161280000Y-104270000D01*
X163000000Y-104960000D02*
X163000000Y-104270000D01*
X163000000Y-94340000D02*
X163000000Y-95030000D01*
%TO.C,R109*%
X161280000Y-121270000D02*
X164720000Y-121270000D01*
X164720000Y-121270000D02*
X164720000Y-112030000D01*
X164720000Y-112030000D02*
X161280000Y-112030000D01*
X161280000Y-112030000D02*
X161280000Y-121270000D01*
X163000000Y-121960000D02*
X163000000Y-121270000D01*
X163000000Y-111340000D02*
X163000000Y-112030000D01*
%TO.C,R110*%
X161280000Y-138270000D02*
X164720000Y-138270000D01*
X164720000Y-138270000D02*
X164720000Y-129030000D01*
X164720000Y-129030000D02*
X161280000Y-129030000D01*
X161280000Y-129030000D02*
X161280000Y-138270000D01*
X163000000Y-138960000D02*
X163000000Y-138270000D01*
X163000000Y-128340000D02*
X163000000Y-129030000D01*
%TO.C,R111*%
X163000000Y-145340000D02*
X163000000Y-146030000D01*
X163000000Y-155960000D02*
X163000000Y-155270000D01*
X161280000Y-146030000D02*
X161280000Y-155270000D01*
X164720000Y-146030000D02*
X161280000Y-146030000D01*
X164720000Y-155270000D02*
X164720000Y-146030000D01*
X161280000Y-155270000D02*
X164720000Y-155270000D01*
%TO.C,R112*%
X150730000Y-59280000D02*
X150730000Y-62720000D01*
X150730000Y-62720000D02*
X159970000Y-62720000D01*
X159970000Y-62720000D02*
X159970000Y-59280000D01*
X159970000Y-59280000D02*
X150730000Y-59280000D01*
X150040000Y-61000000D02*
X150730000Y-61000000D01*
X160660000Y-61000000D02*
X159970000Y-61000000D01*
%TO.C,RV100*%
X149880000Y-69330000D02*
X154546000Y-69330000D01*
X158455000Y-69330000D02*
X161470000Y-69330000D01*
X149880000Y-81670000D02*
X154546000Y-81670000D01*
X158455000Y-81670000D02*
X161470000Y-81670000D01*
X149880000Y-69330000D02*
X149880000Y-72129000D01*
X149880000Y-73871000D02*
X149880000Y-74630000D01*
X149880000Y-76371000D02*
X149880000Y-77130000D01*
X149880000Y-78870000D02*
X149880000Y-81670000D01*
X161470000Y-69330000D02*
X161470000Y-81670000D01*
%TO.C,SW100*%
X97000000Y-112500000D02*
X101500000Y-112500000D01*
X95750000Y-108500000D02*
X95750000Y-110000000D01*
X101500000Y-106000000D02*
X97000000Y-106000000D01*
X102750000Y-110000000D02*
X102750000Y-108500000D01*
%TO.C,SW101*%
X150750000Y-109000000D02*
X150750000Y-107500000D01*
X149500000Y-105000000D02*
X145000000Y-105000000D01*
X143750000Y-107500000D02*
X143750000Y-109000000D01*
X145000000Y-111500000D02*
X149500000Y-111500000D01*
%TO.C,U100*%
X148270000Y-32920000D02*
X148270000Y-43080000D01*
X148270000Y-43080000D02*
X143190000Y-43080000D01*
X143190000Y-43080000D02*
X143190000Y-32920000D01*
X143190000Y-32920000D02*
X148270000Y-32920000D01*
%TO.C,U101*%
X113780000Y-64999999D02*
X132220000Y-65000000D01*
X132220000Y-65000000D02*
X132220000Y-53000001D01*
X132220000Y-53000001D02*
X113780000Y-53000000D01*
X113780000Y-53000000D02*
X113780000Y-57000000D01*
X113780000Y-57000000D02*
X114140000Y-57000000D01*
X114140000Y-57000000D02*
X114140000Y-60999999D01*
X114140000Y-60999999D02*
X113780000Y-60999999D01*
X113780000Y-60999999D02*
X113780000Y-64999999D01*
%TO.C,U103*%
X152490000Y-85700001D02*
X131510000Y-85700000D01*
X131510000Y-85700000D02*
X131510000Y-96299999D01*
X131510000Y-96299999D02*
X152490000Y-96300000D01*
X152490000Y-96300000D02*
X152490000Y-92766666D01*
X152490000Y-92766666D02*
X152130000Y-92766666D01*
X152130000Y-92766666D02*
X152130000Y-89233334D01*
X152130000Y-89233334D02*
X152490000Y-89233334D01*
X152490000Y-89233334D02*
X152490000Y-85700001D01*
%TO.C,REF\u002A\u002A*%
D10*
X165666666Y-167452380D02*
X165333333Y-166976190D01*
X165095238Y-167452380D02*
X165095238Y-166452380D01*
X165476190Y-166452380D01*
X165571428Y-166500000D01*
X165619047Y-166547619D01*
X165666666Y-166642857D01*
X165666666Y-166785714D01*
X165619047Y-166880952D01*
X165571428Y-166928571D01*
X165476190Y-166976190D01*
X165095238Y-166976190D01*
X166095238Y-166928571D02*
X166428571Y-166928571D01*
X166571428Y-167452380D02*
X166095238Y-167452380D01*
X166095238Y-166452380D01*
X166571428Y-166452380D01*
X167333333Y-166928571D02*
X167000000Y-166928571D01*
X167000000Y-167452380D02*
X167000000Y-166452380D01*
X167476190Y-166452380D01*
X168000000Y-166452380D02*
X168000000Y-166690476D01*
X167761904Y-166595238D02*
X168000000Y-166690476D01*
X168238095Y-166595238D01*
X167857142Y-166880952D02*
X168000000Y-166690476D01*
X168142857Y-166880952D01*
X168761904Y-166452380D02*
X168761904Y-166690476D01*
X168523809Y-166595238D02*
X168761904Y-166690476D01*
X169000000Y-166595238D01*
X168619047Y-166880952D02*
X168761904Y-166690476D01*
X168904761Y-166880952D01*
X81666666Y-167452380D02*
X81333333Y-166976190D01*
X81095238Y-167452380D02*
X81095238Y-166452380D01*
X81476190Y-166452380D01*
X81571428Y-166500000D01*
X81619047Y-166547619D01*
X81666666Y-166642857D01*
X81666666Y-166785714D01*
X81619047Y-166880952D01*
X81571428Y-166928571D01*
X81476190Y-166976190D01*
X81095238Y-166976190D01*
X82095238Y-166928571D02*
X82428571Y-166928571D01*
X82571428Y-167452380D02*
X82095238Y-167452380D01*
X82095238Y-166452380D01*
X82571428Y-166452380D01*
X83333333Y-166928571D02*
X83000000Y-166928571D01*
X83000000Y-167452380D02*
X83000000Y-166452380D01*
X83476190Y-166452380D01*
X84000000Y-166452380D02*
X84000000Y-166690476D01*
X83761904Y-166595238D02*
X84000000Y-166690476D01*
X84238095Y-166595238D01*
X83857142Y-166880952D02*
X84000000Y-166690476D01*
X84142857Y-166880952D01*
X84761904Y-166452380D02*
X84761904Y-166690476D01*
X84523809Y-166595238D02*
X84761904Y-166690476D01*
X85000000Y-166595238D01*
X84619047Y-166880952D02*
X84761904Y-166690476D01*
X84904761Y-166880952D01*
X157666666Y-168452380D02*
X157333333Y-167976190D01*
X157095238Y-168452380D02*
X157095238Y-167452380D01*
X157476190Y-167452380D01*
X157571428Y-167500000D01*
X157619047Y-167547619D01*
X157666666Y-167642857D01*
X157666666Y-167785714D01*
X157619047Y-167880952D01*
X157571428Y-167928571D01*
X157476190Y-167976190D01*
X157095238Y-167976190D01*
X158095238Y-167928571D02*
X158428571Y-167928571D01*
X158571428Y-168452380D02*
X158095238Y-168452380D01*
X158095238Y-167452380D01*
X158571428Y-167452380D01*
X159333333Y-167928571D02*
X159000000Y-167928571D01*
X159000000Y-168452380D02*
X159000000Y-167452380D01*
X159476190Y-167452380D01*
X160000000Y-167452380D02*
X160000000Y-167690476D01*
X159761904Y-167595238D02*
X160000000Y-167690476D01*
X160238095Y-167595238D01*
X159857142Y-167880952D02*
X160000000Y-167690476D01*
X160142857Y-167880952D01*
X160761904Y-167452380D02*
X160761904Y-167690476D01*
X160523809Y-167595238D02*
X160761904Y-167690476D01*
X161000000Y-167595238D01*
X160619047Y-167880952D02*
X160761904Y-167690476D01*
X160904761Y-167880952D01*
X89666666Y-168452380D02*
X89333333Y-167976190D01*
X89095238Y-168452380D02*
X89095238Y-167452380D01*
X89476190Y-167452380D01*
X89571428Y-167500000D01*
X89619047Y-167547619D01*
X89666666Y-167642857D01*
X89666666Y-167785714D01*
X89619047Y-167880952D01*
X89571428Y-167928571D01*
X89476190Y-167976190D01*
X89095238Y-167976190D01*
X90095238Y-167928571D02*
X90428571Y-167928571D01*
X90571428Y-168452380D02*
X90095238Y-168452380D01*
X90095238Y-167452380D01*
X90571428Y-167452380D01*
X91333333Y-167928571D02*
X91000000Y-167928571D01*
X91000000Y-168452380D02*
X91000000Y-167452380D01*
X91476190Y-167452380D01*
X92000000Y-167452380D02*
X92000000Y-167690476D01*
X91761904Y-167595238D02*
X92000000Y-167690476D01*
X92238095Y-167595238D01*
X91857142Y-167880952D02*
X92000000Y-167690476D01*
X92142857Y-167880952D01*
X92761904Y-167452380D02*
X92761904Y-167690476D01*
X92523809Y-167595238D02*
X92761904Y-167690476D01*
X93000000Y-167595238D01*
X92619047Y-167880952D02*
X92761904Y-167690476D01*
X92904761Y-167880952D01*
%TO.C,U102*%
X119942380Y-79714285D02*
X120751904Y-79714285D01*
X120847142Y-79666666D01*
X120894761Y-79619047D01*
X120942380Y-79523809D01*
X120942380Y-79333333D01*
X120894761Y-79238095D01*
X120847142Y-79190476D01*
X120751904Y-79142857D01*
X119942380Y-79142857D01*
X120942380Y-78142857D02*
X120942380Y-78714285D01*
X120942380Y-78428571D02*
X119942380Y-78428571D01*
X120085238Y-78523809D01*
X120180476Y-78619047D01*
X120228095Y-78714285D01*
X119942380Y-77523809D02*
X119942380Y-77428571D01*
X119990000Y-77333333D01*
X120037619Y-77285714D01*
X120132857Y-77238095D01*
X120323333Y-77190476D01*
X120561428Y-77190476D01*
X120751904Y-77238095D01*
X120847142Y-77285714D01*
X120894761Y-77333333D01*
X120942380Y-77428571D01*
X120942380Y-77523809D01*
X120894761Y-77619047D01*
X120847142Y-77666666D01*
X120751904Y-77714285D01*
X120561428Y-77761904D01*
X120323333Y-77761904D01*
X120132857Y-77714285D01*
X120037619Y-77666666D01*
X119990000Y-77619047D01*
X119942380Y-77523809D01*
X120037619Y-76809523D02*
X119990000Y-76761904D01*
X119942380Y-76666666D01*
X119942380Y-76428571D01*
X119990000Y-76333333D01*
X120037619Y-76285714D01*
X120132857Y-76238095D01*
X120228095Y-76238095D01*
X120370952Y-76285714D01*
X120942380Y-76857142D01*
X120942380Y-76238095D01*
%TO.C,C100*%
X160757142Y-41369047D02*
X160804761Y-41416666D01*
X160852380Y-41559523D01*
X160852380Y-41654761D01*
X160804761Y-41797619D01*
X160709523Y-41892857D01*
X160614285Y-41940476D01*
X160423809Y-41988095D01*
X160280952Y-41988095D01*
X160090476Y-41940476D01*
X159995238Y-41892857D01*
X159900000Y-41797619D01*
X159852380Y-41654761D01*
X159852380Y-41559523D01*
X159900000Y-41416666D01*
X159947619Y-41369047D01*
X160852380Y-40416666D02*
X160852380Y-40988095D01*
X160852380Y-40702380D02*
X159852380Y-40702380D01*
X159995238Y-40797619D01*
X160090476Y-40892857D01*
X160138095Y-40988095D01*
X159852380Y-39797619D02*
X159852380Y-39702380D01*
X159900000Y-39607142D01*
X159947619Y-39559523D01*
X160042857Y-39511904D01*
X160233333Y-39464285D01*
X160471428Y-39464285D01*
X160661904Y-39511904D01*
X160757142Y-39559523D01*
X160804761Y-39607142D01*
X160852380Y-39702380D01*
X160852380Y-39797619D01*
X160804761Y-39892857D01*
X160757142Y-39940476D01*
X160661904Y-39988095D01*
X160471428Y-40035714D01*
X160233333Y-40035714D01*
X160042857Y-39988095D01*
X159947619Y-39940476D01*
X159900000Y-39892857D01*
X159852380Y-39797619D01*
X159852380Y-38845238D02*
X159852380Y-38750000D01*
X159900000Y-38654761D01*
X159947619Y-38607142D01*
X160042857Y-38559523D01*
X160233333Y-38511904D01*
X160471428Y-38511904D01*
X160661904Y-38559523D01*
X160757142Y-38607142D01*
X160804761Y-38654761D01*
X160852380Y-38750000D01*
X160852380Y-38845238D01*
X160804761Y-38940476D01*
X160757142Y-38988095D01*
X160661904Y-39035714D01*
X160471428Y-39083333D01*
X160233333Y-39083333D01*
X160042857Y-39035714D01*
X159947619Y-38988095D01*
X159900000Y-38940476D01*
X159852380Y-38845238D01*
%TO.C,C101*%
X139757142Y-40869047D02*
X139804761Y-40916666D01*
X139852380Y-41059523D01*
X139852380Y-41154761D01*
X139804761Y-41297619D01*
X139709523Y-41392857D01*
X139614285Y-41440476D01*
X139423809Y-41488095D01*
X139280952Y-41488095D01*
X139090476Y-41440476D01*
X138995238Y-41392857D01*
X138900000Y-41297619D01*
X138852380Y-41154761D01*
X138852380Y-41059523D01*
X138900000Y-40916666D01*
X138947619Y-40869047D01*
X139852380Y-39916666D02*
X139852380Y-40488095D01*
X139852380Y-40202380D02*
X138852380Y-40202380D01*
X138995238Y-40297619D01*
X139090476Y-40392857D01*
X139138095Y-40488095D01*
X138852380Y-39297619D02*
X138852380Y-39202380D01*
X138900000Y-39107142D01*
X138947619Y-39059523D01*
X139042857Y-39011904D01*
X139233333Y-38964285D01*
X139471428Y-38964285D01*
X139661904Y-39011904D01*
X139757142Y-39059523D01*
X139804761Y-39107142D01*
X139852380Y-39202380D01*
X139852380Y-39297619D01*
X139804761Y-39392857D01*
X139757142Y-39440476D01*
X139661904Y-39488095D01*
X139471428Y-39535714D01*
X139233333Y-39535714D01*
X139042857Y-39488095D01*
X138947619Y-39440476D01*
X138900000Y-39392857D01*
X138852380Y-39297619D01*
X139852380Y-38011904D02*
X139852380Y-38583333D01*
X139852380Y-38297619D02*
X138852380Y-38297619D01*
X138995238Y-38392857D01*
X139090476Y-38488095D01*
X139138095Y-38583333D01*
%TO.C,D100*%
X92579523Y-151492380D02*
X92579523Y-150492380D01*
X92817619Y-150492380D01*
X92960476Y-150540000D01*
X93055714Y-150635238D01*
X93103333Y-150730476D01*
X93150952Y-150920952D01*
X93150952Y-151063809D01*
X93103333Y-151254285D01*
X93055714Y-151349523D01*
X92960476Y-151444761D01*
X92817619Y-151492380D01*
X92579523Y-151492380D01*
X94103333Y-151492380D02*
X93531904Y-151492380D01*
X93817619Y-151492380D02*
X93817619Y-150492380D01*
X93722380Y-150635238D01*
X93627142Y-150730476D01*
X93531904Y-150778095D01*
X94722380Y-150492380D02*
X94817619Y-150492380D01*
X94912857Y-150540000D01*
X94960476Y-150587619D01*
X95008095Y-150682857D01*
X95055714Y-150873333D01*
X95055714Y-151111428D01*
X95008095Y-151301904D01*
X94960476Y-151397142D01*
X94912857Y-151444761D01*
X94817619Y-151492380D01*
X94722380Y-151492380D01*
X94627142Y-151444761D01*
X94579523Y-151397142D01*
X94531904Y-151301904D01*
X94484285Y-151111428D01*
X94484285Y-150873333D01*
X94531904Y-150682857D01*
X94579523Y-150587619D01*
X94627142Y-150540000D01*
X94722380Y-150492380D01*
X95674761Y-150492380D02*
X95770000Y-150492380D01*
X95865238Y-150540000D01*
X95912857Y-150587619D01*
X95960476Y-150682857D01*
X96008095Y-150873333D01*
X96008095Y-151111428D01*
X95960476Y-151301904D01*
X95912857Y-151397142D01*
X95865238Y-151444761D01*
X95770000Y-151492380D01*
X95674761Y-151492380D01*
X95579523Y-151444761D01*
X95531904Y-151397142D01*
X95484285Y-151301904D01*
X95436666Y-151111428D01*
X95436666Y-150873333D01*
X95484285Y-150682857D01*
X95531904Y-150587619D01*
X95579523Y-150540000D01*
X95674761Y-150492380D01*
%TO.C,D101*%
X102579523Y-121492380D02*
X102579523Y-120492380D01*
X102817619Y-120492380D01*
X102960476Y-120540000D01*
X103055714Y-120635238D01*
X103103333Y-120730476D01*
X103150952Y-120920952D01*
X103150952Y-121063809D01*
X103103333Y-121254285D01*
X103055714Y-121349523D01*
X102960476Y-121444761D01*
X102817619Y-121492380D01*
X102579523Y-121492380D01*
X104103333Y-121492380D02*
X103531904Y-121492380D01*
X103817619Y-121492380D02*
X103817619Y-120492380D01*
X103722380Y-120635238D01*
X103627142Y-120730476D01*
X103531904Y-120778095D01*
X104722380Y-120492380D02*
X104817619Y-120492380D01*
X104912857Y-120540000D01*
X104960476Y-120587619D01*
X105008095Y-120682857D01*
X105055714Y-120873333D01*
X105055714Y-121111428D01*
X105008095Y-121301904D01*
X104960476Y-121397142D01*
X104912857Y-121444761D01*
X104817619Y-121492380D01*
X104722380Y-121492380D01*
X104627142Y-121444761D01*
X104579523Y-121397142D01*
X104531904Y-121301904D01*
X104484285Y-121111428D01*
X104484285Y-120873333D01*
X104531904Y-120682857D01*
X104579523Y-120587619D01*
X104627142Y-120540000D01*
X104722380Y-120492380D01*
X106008095Y-121492380D02*
X105436666Y-121492380D01*
X105722380Y-121492380D02*
X105722380Y-120492380D01*
X105627142Y-120635238D01*
X105531904Y-120730476D01*
X105436666Y-120778095D01*
%TO.C,D102*%
X102579523Y-131492380D02*
X102579523Y-130492380D01*
X102817619Y-130492380D01*
X102960476Y-130540000D01*
X103055714Y-130635238D01*
X103103333Y-130730476D01*
X103150952Y-130920952D01*
X103150952Y-131063809D01*
X103103333Y-131254285D01*
X103055714Y-131349523D01*
X102960476Y-131444761D01*
X102817619Y-131492380D01*
X102579523Y-131492380D01*
X104103333Y-131492380D02*
X103531904Y-131492380D01*
X103817619Y-131492380D02*
X103817619Y-130492380D01*
X103722380Y-130635238D01*
X103627142Y-130730476D01*
X103531904Y-130778095D01*
X104722380Y-130492380D02*
X104817619Y-130492380D01*
X104912857Y-130540000D01*
X104960476Y-130587619D01*
X105008095Y-130682857D01*
X105055714Y-130873333D01*
X105055714Y-131111428D01*
X105008095Y-131301904D01*
X104960476Y-131397142D01*
X104912857Y-131444761D01*
X104817619Y-131492380D01*
X104722380Y-131492380D01*
X104627142Y-131444761D01*
X104579523Y-131397142D01*
X104531904Y-131301904D01*
X104484285Y-131111428D01*
X104484285Y-130873333D01*
X104531904Y-130682857D01*
X104579523Y-130587619D01*
X104627142Y-130540000D01*
X104722380Y-130492380D01*
X105436666Y-130587619D02*
X105484285Y-130540000D01*
X105579523Y-130492380D01*
X105817619Y-130492380D01*
X105912857Y-130540000D01*
X105960476Y-130587619D01*
X106008095Y-130682857D01*
X106008095Y-130778095D01*
X105960476Y-130920952D01*
X105389047Y-131492380D01*
X106008095Y-131492380D01*
%TO.C,D103*%
X102579523Y-141492380D02*
X102579523Y-140492380D01*
X102817619Y-140492380D01*
X102960476Y-140540000D01*
X103055714Y-140635238D01*
X103103333Y-140730476D01*
X103150952Y-140920952D01*
X103150952Y-141063809D01*
X103103333Y-141254285D01*
X103055714Y-141349523D01*
X102960476Y-141444761D01*
X102817619Y-141492380D01*
X102579523Y-141492380D01*
X104103333Y-141492380D02*
X103531904Y-141492380D01*
X103817619Y-141492380D02*
X103817619Y-140492380D01*
X103722380Y-140635238D01*
X103627142Y-140730476D01*
X103531904Y-140778095D01*
X104722380Y-140492380D02*
X104817619Y-140492380D01*
X104912857Y-140540000D01*
X104960476Y-140587619D01*
X105008095Y-140682857D01*
X105055714Y-140873333D01*
X105055714Y-141111428D01*
X105008095Y-141301904D01*
X104960476Y-141397142D01*
X104912857Y-141444761D01*
X104817619Y-141492380D01*
X104722380Y-141492380D01*
X104627142Y-141444761D01*
X104579523Y-141397142D01*
X104531904Y-141301904D01*
X104484285Y-141111428D01*
X104484285Y-140873333D01*
X104531904Y-140682857D01*
X104579523Y-140587619D01*
X104627142Y-140540000D01*
X104722380Y-140492380D01*
X105389047Y-140492380D02*
X106008095Y-140492380D01*
X105674761Y-140873333D01*
X105817619Y-140873333D01*
X105912857Y-140920952D01*
X105960476Y-140968571D01*
X106008095Y-141063809D01*
X106008095Y-141301904D01*
X105960476Y-141397142D01*
X105912857Y-141444761D01*
X105817619Y-141492380D01*
X105531904Y-141492380D01*
X105436666Y-141444761D01*
X105389047Y-141397142D01*
%TO.C,D104*%
X102579523Y-151492380D02*
X102579523Y-150492380D01*
X102817619Y-150492380D01*
X102960476Y-150540000D01*
X103055714Y-150635238D01*
X103103333Y-150730476D01*
X103150952Y-150920952D01*
X103150952Y-151063809D01*
X103103333Y-151254285D01*
X103055714Y-151349523D01*
X102960476Y-151444761D01*
X102817619Y-151492380D01*
X102579523Y-151492380D01*
X104103333Y-151492380D02*
X103531904Y-151492380D01*
X103817619Y-151492380D02*
X103817619Y-150492380D01*
X103722380Y-150635238D01*
X103627142Y-150730476D01*
X103531904Y-150778095D01*
X104722380Y-150492380D02*
X104817619Y-150492380D01*
X104912857Y-150540000D01*
X104960476Y-150587619D01*
X105008095Y-150682857D01*
X105055714Y-150873333D01*
X105055714Y-151111428D01*
X105008095Y-151301904D01*
X104960476Y-151397142D01*
X104912857Y-151444761D01*
X104817619Y-151492380D01*
X104722380Y-151492380D01*
X104627142Y-151444761D01*
X104579523Y-151397142D01*
X104531904Y-151301904D01*
X104484285Y-151111428D01*
X104484285Y-150873333D01*
X104531904Y-150682857D01*
X104579523Y-150587619D01*
X104627142Y-150540000D01*
X104722380Y-150492380D01*
X105912857Y-150825714D02*
X105912857Y-151492380D01*
X105674761Y-150444761D02*
X105436666Y-151159047D01*
X106055714Y-151159047D01*
%TO.C,D105*%
X136579523Y-131492380D02*
X136579523Y-130492380D01*
X136817619Y-130492380D01*
X136960476Y-130540000D01*
X137055714Y-130635238D01*
X137103333Y-130730476D01*
X137150952Y-130920952D01*
X137150952Y-131063809D01*
X137103333Y-131254285D01*
X137055714Y-131349523D01*
X136960476Y-131444761D01*
X136817619Y-131492380D01*
X136579523Y-131492380D01*
X138103333Y-131492380D02*
X137531904Y-131492380D01*
X137817619Y-131492380D02*
X137817619Y-130492380D01*
X137722380Y-130635238D01*
X137627142Y-130730476D01*
X137531904Y-130778095D01*
X138722380Y-130492380D02*
X138817619Y-130492380D01*
X138912857Y-130540000D01*
X138960476Y-130587619D01*
X139008095Y-130682857D01*
X139055714Y-130873333D01*
X139055714Y-131111428D01*
X139008095Y-131301904D01*
X138960476Y-131397142D01*
X138912857Y-131444761D01*
X138817619Y-131492380D01*
X138722380Y-131492380D01*
X138627142Y-131444761D01*
X138579523Y-131397142D01*
X138531904Y-131301904D01*
X138484285Y-131111428D01*
X138484285Y-130873333D01*
X138531904Y-130682857D01*
X138579523Y-130587619D01*
X138627142Y-130540000D01*
X138722380Y-130492380D01*
X139960476Y-130492380D02*
X139484285Y-130492380D01*
X139436666Y-130968571D01*
X139484285Y-130920952D01*
X139579523Y-130873333D01*
X139817619Y-130873333D01*
X139912857Y-130920952D01*
X139960476Y-130968571D01*
X140008095Y-131063809D01*
X140008095Y-131301904D01*
X139960476Y-131397142D01*
X139912857Y-131444761D01*
X139817619Y-131492380D01*
X139579523Y-131492380D01*
X139484285Y-131444761D01*
X139436666Y-131397142D01*
%TO.C,D106*%
X136579523Y-141492380D02*
X136579523Y-140492380D01*
X136817619Y-140492380D01*
X136960476Y-140540000D01*
X137055714Y-140635238D01*
X137103333Y-140730476D01*
X137150952Y-140920952D01*
X137150952Y-141063809D01*
X137103333Y-141254285D01*
X137055714Y-141349523D01*
X136960476Y-141444761D01*
X136817619Y-141492380D01*
X136579523Y-141492380D01*
X138103333Y-141492380D02*
X137531904Y-141492380D01*
X137817619Y-141492380D02*
X137817619Y-140492380D01*
X137722380Y-140635238D01*
X137627142Y-140730476D01*
X137531904Y-140778095D01*
X138722380Y-140492380D02*
X138817619Y-140492380D01*
X138912857Y-140540000D01*
X138960476Y-140587619D01*
X139008095Y-140682857D01*
X139055714Y-140873333D01*
X139055714Y-141111428D01*
X139008095Y-141301904D01*
X138960476Y-141397142D01*
X138912857Y-141444761D01*
X138817619Y-141492380D01*
X138722380Y-141492380D01*
X138627142Y-141444761D01*
X138579523Y-141397142D01*
X138531904Y-141301904D01*
X138484285Y-141111428D01*
X138484285Y-140873333D01*
X138531904Y-140682857D01*
X138579523Y-140587619D01*
X138627142Y-140540000D01*
X138722380Y-140492380D01*
X139912857Y-140492380D02*
X139722380Y-140492380D01*
X139627142Y-140540000D01*
X139579523Y-140587619D01*
X139484285Y-140730476D01*
X139436666Y-140920952D01*
X139436666Y-141301904D01*
X139484285Y-141397142D01*
X139531904Y-141444761D01*
X139627142Y-141492380D01*
X139817619Y-141492380D01*
X139912857Y-141444761D01*
X139960476Y-141397142D01*
X140008095Y-141301904D01*
X140008095Y-141063809D01*
X139960476Y-140968571D01*
X139912857Y-140920952D01*
X139817619Y-140873333D01*
X139627142Y-140873333D01*
X139531904Y-140920952D01*
X139484285Y-140968571D01*
X139436666Y-141063809D01*
%TO.C,D107*%
X136579523Y-151492380D02*
X136579523Y-150492380D01*
X136817619Y-150492380D01*
X136960476Y-150540000D01*
X137055714Y-150635238D01*
X137103333Y-150730476D01*
X137150952Y-150920952D01*
X137150952Y-151063809D01*
X137103333Y-151254285D01*
X137055714Y-151349523D01*
X136960476Y-151444761D01*
X136817619Y-151492380D01*
X136579523Y-151492380D01*
X138103333Y-151492380D02*
X137531904Y-151492380D01*
X137817619Y-151492380D02*
X137817619Y-150492380D01*
X137722380Y-150635238D01*
X137627142Y-150730476D01*
X137531904Y-150778095D01*
X138722380Y-150492380D02*
X138817619Y-150492380D01*
X138912857Y-150540000D01*
X138960476Y-150587619D01*
X139008095Y-150682857D01*
X139055714Y-150873333D01*
X139055714Y-151111428D01*
X139008095Y-151301904D01*
X138960476Y-151397142D01*
X138912857Y-151444761D01*
X138817619Y-151492380D01*
X138722380Y-151492380D01*
X138627142Y-151444761D01*
X138579523Y-151397142D01*
X138531904Y-151301904D01*
X138484285Y-151111428D01*
X138484285Y-150873333D01*
X138531904Y-150682857D01*
X138579523Y-150587619D01*
X138627142Y-150540000D01*
X138722380Y-150492380D01*
X139389047Y-150492380D02*
X140055714Y-150492380D01*
X139627142Y-151492380D01*
%TO.C,D108*%
X146579523Y-121492380D02*
X146579523Y-120492380D01*
X146817619Y-120492380D01*
X146960476Y-120540000D01*
X147055714Y-120635238D01*
X147103333Y-120730476D01*
X147150952Y-120920952D01*
X147150952Y-121063809D01*
X147103333Y-121254285D01*
X147055714Y-121349523D01*
X146960476Y-121444761D01*
X146817619Y-121492380D01*
X146579523Y-121492380D01*
X148103333Y-121492380D02*
X147531904Y-121492380D01*
X147817619Y-121492380D02*
X147817619Y-120492380D01*
X147722380Y-120635238D01*
X147627142Y-120730476D01*
X147531904Y-120778095D01*
X148722380Y-120492380D02*
X148817619Y-120492380D01*
X148912857Y-120540000D01*
X148960476Y-120587619D01*
X149008095Y-120682857D01*
X149055714Y-120873333D01*
X149055714Y-121111428D01*
X149008095Y-121301904D01*
X148960476Y-121397142D01*
X148912857Y-121444761D01*
X148817619Y-121492380D01*
X148722380Y-121492380D01*
X148627142Y-121444761D01*
X148579523Y-121397142D01*
X148531904Y-121301904D01*
X148484285Y-121111428D01*
X148484285Y-120873333D01*
X148531904Y-120682857D01*
X148579523Y-120587619D01*
X148627142Y-120540000D01*
X148722380Y-120492380D01*
X149627142Y-120920952D02*
X149531904Y-120873333D01*
X149484285Y-120825714D01*
X149436666Y-120730476D01*
X149436666Y-120682857D01*
X149484285Y-120587619D01*
X149531904Y-120540000D01*
X149627142Y-120492380D01*
X149817619Y-120492380D01*
X149912857Y-120540000D01*
X149960476Y-120587619D01*
X150008095Y-120682857D01*
X150008095Y-120730476D01*
X149960476Y-120825714D01*
X149912857Y-120873333D01*
X149817619Y-120920952D01*
X149627142Y-120920952D01*
X149531904Y-120968571D01*
X149484285Y-121016190D01*
X149436666Y-121111428D01*
X149436666Y-121301904D01*
X149484285Y-121397142D01*
X149531904Y-121444761D01*
X149627142Y-121492380D01*
X149817619Y-121492380D01*
X149912857Y-121444761D01*
X149960476Y-121397142D01*
X150008095Y-121301904D01*
X150008095Y-121111428D01*
X149960476Y-121016190D01*
X149912857Y-120968571D01*
X149817619Y-120920952D01*
%TO.C,D109*%
X146579523Y-131492380D02*
X146579523Y-130492380D01*
X146817619Y-130492380D01*
X146960476Y-130540000D01*
X147055714Y-130635238D01*
X147103333Y-130730476D01*
X147150952Y-130920952D01*
X147150952Y-131063809D01*
X147103333Y-131254285D01*
X147055714Y-131349523D01*
X146960476Y-131444761D01*
X146817619Y-131492380D01*
X146579523Y-131492380D01*
X148103333Y-131492380D02*
X147531904Y-131492380D01*
X147817619Y-131492380D02*
X147817619Y-130492380D01*
X147722380Y-130635238D01*
X147627142Y-130730476D01*
X147531904Y-130778095D01*
X148722380Y-130492380D02*
X148817619Y-130492380D01*
X148912857Y-130540000D01*
X148960476Y-130587619D01*
X149008095Y-130682857D01*
X149055714Y-130873333D01*
X149055714Y-131111428D01*
X149008095Y-131301904D01*
X148960476Y-131397142D01*
X148912857Y-131444761D01*
X148817619Y-131492380D01*
X148722380Y-131492380D01*
X148627142Y-131444761D01*
X148579523Y-131397142D01*
X148531904Y-131301904D01*
X148484285Y-131111428D01*
X148484285Y-130873333D01*
X148531904Y-130682857D01*
X148579523Y-130587619D01*
X148627142Y-130540000D01*
X148722380Y-130492380D01*
X149531904Y-131492380D02*
X149722380Y-131492380D01*
X149817619Y-131444761D01*
X149865238Y-131397142D01*
X149960476Y-131254285D01*
X150008095Y-131063809D01*
X150008095Y-130682857D01*
X149960476Y-130587619D01*
X149912857Y-130540000D01*
X149817619Y-130492380D01*
X149627142Y-130492380D01*
X149531904Y-130540000D01*
X149484285Y-130587619D01*
X149436666Y-130682857D01*
X149436666Y-130920952D01*
X149484285Y-131016190D01*
X149531904Y-131063809D01*
X149627142Y-131111428D01*
X149817619Y-131111428D01*
X149912857Y-131063809D01*
X149960476Y-131016190D01*
X150008095Y-130920952D01*
%TO.C,D110*%
X146579523Y-141492380D02*
X146579523Y-140492380D01*
X146817619Y-140492380D01*
X146960476Y-140540000D01*
X147055714Y-140635238D01*
X147103333Y-140730476D01*
X147150952Y-140920952D01*
X147150952Y-141063809D01*
X147103333Y-141254285D01*
X147055714Y-141349523D01*
X146960476Y-141444761D01*
X146817619Y-141492380D01*
X146579523Y-141492380D01*
X148103333Y-141492380D02*
X147531904Y-141492380D01*
X147817619Y-141492380D02*
X147817619Y-140492380D01*
X147722380Y-140635238D01*
X147627142Y-140730476D01*
X147531904Y-140778095D01*
X149055714Y-141492380D02*
X148484285Y-141492380D01*
X148770000Y-141492380D02*
X148770000Y-140492380D01*
X148674761Y-140635238D01*
X148579523Y-140730476D01*
X148484285Y-140778095D01*
X149674761Y-140492380D02*
X149770000Y-140492380D01*
X149865238Y-140540000D01*
X149912857Y-140587619D01*
X149960476Y-140682857D01*
X150008095Y-140873333D01*
X150008095Y-141111428D01*
X149960476Y-141301904D01*
X149912857Y-141397142D01*
X149865238Y-141444761D01*
X149770000Y-141492380D01*
X149674761Y-141492380D01*
X149579523Y-141444761D01*
X149531904Y-141397142D01*
X149484285Y-141301904D01*
X149436666Y-141111428D01*
X149436666Y-140873333D01*
X149484285Y-140682857D01*
X149531904Y-140587619D01*
X149579523Y-140540000D01*
X149674761Y-140492380D01*
%TO.C,D111*%
X146579523Y-151492380D02*
X146579523Y-150492380D01*
X146817619Y-150492380D01*
X146960476Y-150540000D01*
X147055714Y-150635238D01*
X147103333Y-150730476D01*
X147150952Y-150920952D01*
X147150952Y-151063809D01*
X147103333Y-151254285D01*
X147055714Y-151349523D01*
X146960476Y-151444761D01*
X146817619Y-151492380D01*
X146579523Y-151492380D01*
X148103333Y-151492380D02*
X147531904Y-151492380D01*
X147817619Y-151492380D02*
X147817619Y-150492380D01*
X147722380Y-150635238D01*
X147627142Y-150730476D01*
X147531904Y-150778095D01*
X149055714Y-151492380D02*
X148484285Y-151492380D01*
X148770000Y-151492380D02*
X148770000Y-150492380D01*
X148674761Y-150635238D01*
X148579523Y-150730476D01*
X148484285Y-150778095D01*
X150008095Y-151492380D02*
X149436666Y-151492380D01*
X149722380Y-151492380D02*
X149722380Y-150492380D01*
X149627142Y-150635238D01*
X149531904Y-150730476D01*
X149436666Y-150778095D01*
%TO.C,R100*%
X91732380Y-142769047D02*
X91256190Y-143102380D01*
X91732380Y-143340476D02*
X90732380Y-143340476D01*
X90732380Y-142959523D01*
X90780000Y-142864285D01*
X90827619Y-142816666D01*
X90922857Y-142769047D01*
X91065714Y-142769047D01*
X91160952Y-142816666D01*
X91208571Y-142864285D01*
X91256190Y-142959523D01*
X91256190Y-143340476D01*
X91732380Y-141816666D02*
X91732380Y-142388095D01*
X91732380Y-142102380D02*
X90732380Y-142102380D01*
X90875238Y-142197619D01*
X90970476Y-142292857D01*
X91018095Y-142388095D01*
X90732380Y-141197619D02*
X90732380Y-141102380D01*
X90780000Y-141007142D01*
X90827619Y-140959523D01*
X90922857Y-140911904D01*
X91113333Y-140864285D01*
X91351428Y-140864285D01*
X91541904Y-140911904D01*
X91637142Y-140959523D01*
X91684761Y-141007142D01*
X91732380Y-141102380D01*
X91732380Y-141197619D01*
X91684761Y-141292857D01*
X91637142Y-141340476D01*
X91541904Y-141388095D01*
X91351428Y-141435714D01*
X91113333Y-141435714D01*
X90922857Y-141388095D01*
X90827619Y-141340476D01*
X90780000Y-141292857D01*
X90732380Y-141197619D01*
X90732380Y-140245238D02*
X90732380Y-140150000D01*
X90780000Y-140054761D01*
X90827619Y-140007142D01*
X90922857Y-139959523D01*
X91113333Y-139911904D01*
X91351428Y-139911904D01*
X91541904Y-139959523D01*
X91637142Y-140007142D01*
X91684761Y-140054761D01*
X91732380Y-140150000D01*
X91732380Y-140245238D01*
X91684761Y-140340476D01*
X91637142Y-140388095D01*
X91541904Y-140435714D01*
X91351428Y-140483333D01*
X91113333Y-140483333D01*
X90922857Y-140435714D01*
X90827619Y-140388095D01*
X90780000Y-140340476D01*
X90732380Y-140245238D01*
%TO.C,R101*%
X114732380Y-100769047D02*
X114256190Y-101102380D01*
X114732380Y-101340476D02*
X113732380Y-101340476D01*
X113732380Y-100959523D01*
X113780000Y-100864285D01*
X113827619Y-100816666D01*
X113922857Y-100769047D01*
X114065714Y-100769047D01*
X114160952Y-100816666D01*
X114208571Y-100864285D01*
X114256190Y-100959523D01*
X114256190Y-101340476D01*
X114732380Y-99816666D02*
X114732380Y-100388095D01*
X114732380Y-100102380D02*
X113732380Y-100102380D01*
X113875238Y-100197619D01*
X113970476Y-100292857D01*
X114018095Y-100388095D01*
X113732380Y-99197619D02*
X113732380Y-99102380D01*
X113780000Y-99007142D01*
X113827619Y-98959523D01*
X113922857Y-98911904D01*
X114113333Y-98864285D01*
X114351428Y-98864285D01*
X114541904Y-98911904D01*
X114637142Y-98959523D01*
X114684761Y-99007142D01*
X114732380Y-99102380D01*
X114732380Y-99197619D01*
X114684761Y-99292857D01*
X114637142Y-99340476D01*
X114541904Y-99388095D01*
X114351428Y-99435714D01*
X114113333Y-99435714D01*
X113922857Y-99388095D01*
X113827619Y-99340476D01*
X113780000Y-99292857D01*
X113732380Y-99197619D01*
X114732380Y-97911904D02*
X114732380Y-98483333D01*
X114732380Y-98197619D02*
X113732380Y-98197619D01*
X113875238Y-98292857D01*
X113970476Y-98388095D01*
X114018095Y-98483333D01*
%TO.C,R102*%
X114732380Y-117769047D02*
X114256190Y-118102380D01*
X114732380Y-118340476D02*
X113732380Y-118340476D01*
X113732380Y-117959523D01*
X113780000Y-117864285D01*
X113827619Y-117816666D01*
X113922857Y-117769047D01*
X114065714Y-117769047D01*
X114160952Y-117816666D01*
X114208571Y-117864285D01*
X114256190Y-117959523D01*
X114256190Y-118340476D01*
X114732380Y-116816666D02*
X114732380Y-117388095D01*
X114732380Y-117102380D02*
X113732380Y-117102380D01*
X113875238Y-117197619D01*
X113970476Y-117292857D01*
X114018095Y-117388095D01*
X113732380Y-116197619D02*
X113732380Y-116102380D01*
X113780000Y-116007142D01*
X113827619Y-115959523D01*
X113922857Y-115911904D01*
X114113333Y-115864285D01*
X114351428Y-115864285D01*
X114541904Y-115911904D01*
X114637142Y-115959523D01*
X114684761Y-116007142D01*
X114732380Y-116102380D01*
X114732380Y-116197619D01*
X114684761Y-116292857D01*
X114637142Y-116340476D01*
X114541904Y-116388095D01*
X114351428Y-116435714D01*
X114113333Y-116435714D01*
X113922857Y-116388095D01*
X113827619Y-116340476D01*
X113780000Y-116292857D01*
X113732380Y-116197619D01*
X113827619Y-115483333D02*
X113780000Y-115435714D01*
X113732380Y-115340476D01*
X113732380Y-115102380D01*
X113780000Y-115007142D01*
X113827619Y-114959523D01*
X113922857Y-114911904D01*
X114018095Y-114911904D01*
X114160952Y-114959523D01*
X114732380Y-115530952D01*
X114732380Y-114911904D01*
%TO.C,R103*%
X114732380Y-134769047D02*
X114256190Y-135102380D01*
X114732380Y-135340476D02*
X113732380Y-135340476D01*
X113732380Y-134959523D01*
X113780000Y-134864285D01*
X113827619Y-134816666D01*
X113922857Y-134769047D01*
X114065714Y-134769047D01*
X114160952Y-134816666D01*
X114208571Y-134864285D01*
X114256190Y-134959523D01*
X114256190Y-135340476D01*
X114732380Y-133816666D02*
X114732380Y-134388095D01*
X114732380Y-134102380D02*
X113732380Y-134102380D01*
X113875238Y-134197619D01*
X113970476Y-134292857D01*
X114018095Y-134388095D01*
X113732380Y-133197619D02*
X113732380Y-133102380D01*
X113780000Y-133007142D01*
X113827619Y-132959523D01*
X113922857Y-132911904D01*
X114113333Y-132864285D01*
X114351428Y-132864285D01*
X114541904Y-132911904D01*
X114637142Y-132959523D01*
X114684761Y-133007142D01*
X114732380Y-133102380D01*
X114732380Y-133197619D01*
X114684761Y-133292857D01*
X114637142Y-133340476D01*
X114541904Y-133388095D01*
X114351428Y-133435714D01*
X114113333Y-133435714D01*
X113922857Y-133388095D01*
X113827619Y-133340476D01*
X113780000Y-133292857D01*
X113732380Y-133197619D01*
X113732380Y-132530952D02*
X113732380Y-131911904D01*
X114113333Y-132245238D01*
X114113333Y-132102380D01*
X114160952Y-132007142D01*
X114208571Y-131959523D01*
X114303809Y-131911904D01*
X114541904Y-131911904D01*
X114637142Y-131959523D01*
X114684761Y-132007142D01*
X114732380Y-132102380D01*
X114732380Y-132388095D01*
X114684761Y-132483333D01*
X114637142Y-132530952D01*
%TO.C,R104*%
X114732380Y-151769047D02*
X114256190Y-152102380D01*
X114732380Y-152340476D02*
X113732380Y-152340476D01*
X113732380Y-151959523D01*
X113780000Y-151864285D01*
X113827619Y-151816666D01*
X113922857Y-151769047D01*
X114065714Y-151769047D01*
X114160952Y-151816666D01*
X114208571Y-151864285D01*
X114256190Y-151959523D01*
X114256190Y-152340476D01*
X114732380Y-150816666D02*
X114732380Y-151388095D01*
X114732380Y-151102380D02*
X113732380Y-151102380D01*
X113875238Y-151197619D01*
X113970476Y-151292857D01*
X114018095Y-151388095D01*
X113732380Y-150197619D02*
X113732380Y-150102380D01*
X113780000Y-150007142D01*
X113827619Y-149959523D01*
X113922857Y-149911904D01*
X114113333Y-149864285D01*
X114351428Y-149864285D01*
X114541904Y-149911904D01*
X114637142Y-149959523D01*
X114684761Y-150007142D01*
X114732380Y-150102380D01*
X114732380Y-150197619D01*
X114684761Y-150292857D01*
X114637142Y-150340476D01*
X114541904Y-150388095D01*
X114351428Y-150435714D01*
X114113333Y-150435714D01*
X113922857Y-150388095D01*
X113827619Y-150340476D01*
X113780000Y-150292857D01*
X113732380Y-150197619D01*
X114065714Y-149007142D02*
X114732380Y-149007142D01*
X113684761Y-149245238D02*
X114399047Y-149483333D01*
X114399047Y-148864285D01*
%TO.C,R105*%
X125732380Y-117769047D02*
X125256190Y-118102380D01*
X125732380Y-118340476D02*
X124732380Y-118340476D01*
X124732380Y-117959523D01*
X124780000Y-117864285D01*
X124827619Y-117816666D01*
X124922857Y-117769047D01*
X125065714Y-117769047D01*
X125160952Y-117816666D01*
X125208571Y-117864285D01*
X125256190Y-117959523D01*
X125256190Y-118340476D01*
X125732380Y-116816666D02*
X125732380Y-117388095D01*
X125732380Y-117102380D02*
X124732380Y-117102380D01*
X124875238Y-117197619D01*
X124970476Y-117292857D01*
X125018095Y-117388095D01*
X124732380Y-116197619D02*
X124732380Y-116102380D01*
X124780000Y-116007142D01*
X124827619Y-115959523D01*
X124922857Y-115911904D01*
X125113333Y-115864285D01*
X125351428Y-115864285D01*
X125541904Y-115911904D01*
X125637142Y-115959523D01*
X125684761Y-116007142D01*
X125732380Y-116102380D01*
X125732380Y-116197619D01*
X125684761Y-116292857D01*
X125637142Y-116340476D01*
X125541904Y-116388095D01*
X125351428Y-116435714D01*
X125113333Y-116435714D01*
X124922857Y-116388095D01*
X124827619Y-116340476D01*
X124780000Y-116292857D01*
X124732380Y-116197619D01*
X124732380Y-114959523D02*
X124732380Y-115435714D01*
X125208571Y-115483333D01*
X125160952Y-115435714D01*
X125113333Y-115340476D01*
X125113333Y-115102380D01*
X125160952Y-115007142D01*
X125208571Y-114959523D01*
X125303809Y-114911904D01*
X125541904Y-114911904D01*
X125637142Y-114959523D01*
X125684761Y-115007142D01*
X125732380Y-115102380D01*
X125732380Y-115340476D01*
X125684761Y-115435714D01*
X125637142Y-115483333D01*
%TO.C,R106*%
X125732380Y-134769047D02*
X125256190Y-135102380D01*
X125732380Y-135340476D02*
X124732380Y-135340476D01*
X124732380Y-134959523D01*
X124780000Y-134864285D01*
X124827619Y-134816666D01*
X124922857Y-134769047D01*
X125065714Y-134769047D01*
X125160952Y-134816666D01*
X125208571Y-134864285D01*
X125256190Y-134959523D01*
X125256190Y-135340476D01*
X125732380Y-133816666D02*
X125732380Y-134388095D01*
X125732380Y-134102380D02*
X124732380Y-134102380D01*
X124875238Y-134197619D01*
X124970476Y-134292857D01*
X125018095Y-134388095D01*
X124732380Y-133197619D02*
X124732380Y-133102380D01*
X124780000Y-133007142D01*
X124827619Y-132959523D01*
X124922857Y-132911904D01*
X125113333Y-132864285D01*
X125351428Y-132864285D01*
X125541904Y-132911904D01*
X125637142Y-132959523D01*
X125684761Y-133007142D01*
X125732380Y-133102380D01*
X125732380Y-133197619D01*
X125684761Y-133292857D01*
X125637142Y-133340476D01*
X125541904Y-133388095D01*
X125351428Y-133435714D01*
X125113333Y-133435714D01*
X124922857Y-133388095D01*
X124827619Y-133340476D01*
X124780000Y-133292857D01*
X124732380Y-133197619D01*
X124732380Y-132007142D02*
X124732380Y-132197619D01*
X124780000Y-132292857D01*
X124827619Y-132340476D01*
X124970476Y-132435714D01*
X125160952Y-132483333D01*
X125541904Y-132483333D01*
X125637142Y-132435714D01*
X125684761Y-132388095D01*
X125732380Y-132292857D01*
X125732380Y-132102380D01*
X125684761Y-132007142D01*
X125637142Y-131959523D01*
X125541904Y-131911904D01*
X125303809Y-131911904D01*
X125208571Y-131959523D01*
X125160952Y-132007142D01*
X125113333Y-132102380D01*
X125113333Y-132292857D01*
X125160952Y-132388095D01*
X125208571Y-132435714D01*
X125303809Y-132483333D01*
%TO.C,R107*%
X125732380Y-151769047D02*
X125256190Y-152102380D01*
X125732380Y-152340476D02*
X124732380Y-152340476D01*
X124732380Y-151959523D01*
X124780000Y-151864285D01*
X124827619Y-151816666D01*
X124922857Y-151769047D01*
X125065714Y-151769047D01*
X125160952Y-151816666D01*
X125208571Y-151864285D01*
X125256190Y-151959523D01*
X125256190Y-152340476D01*
X125732380Y-150816666D02*
X125732380Y-151388095D01*
X125732380Y-151102380D02*
X124732380Y-151102380D01*
X124875238Y-151197619D01*
X124970476Y-151292857D01*
X125018095Y-151388095D01*
X124732380Y-150197619D02*
X124732380Y-150102380D01*
X124780000Y-150007142D01*
X124827619Y-149959523D01*
X124922857Y-149911904D01*
X125113333Y-149864285D01*
X125351428Y-149864285D01*
X125541904Y-149911904D01*
X125637142Y-149959523D01*
X125684761Y-150007142D01*
X125732380Y-150102380D01*
X125732380Y-150197619D01*
X125684761Y-150292857D01*
X125637142Y-150340476D01*
X125541904Y-150388095D01*
X125351428Y-150435714D01*
X125113333Y-150435714D01*
X124922857Y-150388095D01*
X124827619Y-150340476D01*
X124780000Y-150292857D01*
X124732380Y-150197619D01*
X124732380Y-149530952D02*
X124732380Y-148864285D01*
X125732380Y-149292857D01*
%TO.C,R108*%
X160732380Y-100769047D02*
X160256190Y-101102380D01*
X160732380Y-101340476D02*
X159732380Y-101340476D01*
X159732380Y-100959523D01*
X159780000Y-100864285D01*
X159827619Y-100816666D01*
X159922857Y-100769047D01*
X160065714Y-100769047D01*
X160160952Y-100816666D01*
X160208571Y-100864285D01*
X160256190Y-100959523D01*
X160256190Y-101340476D01*
X160732380Y-99816666D02*
X160732380Y-100388095D01*
X160732380Y-100102380D02*
X159732380Y-100102380D01*
X159875238Y-100197619D01*
X159970476Y-100292857D01*
X160018095Y-100388095D01*
X159732380Y-99197619D02*
X159732380Y-99102380D01*
X159780000Y-99007142D01*
X159827619Y-98959523D01*
X159922857Y-98911904D01*
X160113333Y-98864285D01*
X160351428Y-98864285D01*
X160541904Y-98911904D01*
X160637142Y-98959523D01*
X160684761Y-99007142D01*
X160732380Y-99102380D01*
X160732380Y-99197619D01*
X160684761Y-99292857D01*
X160637142Y-99340476D01*
X160541904Y-99388095D01*
X160351428Y-99435714D01*
X160113333Y-99435714D01*
X159922857Y-99388095D01*
X159827619Y-99340476D01*
X159780000Y-99292857D01*
X159732380Y-99197619D01*
X160160952Y-98292857D02*
X160113333Y-98388095D01*
X160065714Y-98435714D01*
X159970476Y-98483333D01*
X159922857Y-98483333D01*
X159827619Y-98435714D01*
X159780000Y-98388095D01*
X159732380Y-98292857D01*
X159732380Y-98102380D01*
X159780000Y-98007142D01*
X159827619Y-97959523D01*
X159922857Y-97911904D01*
X159970476Y-97911904D01*
X160065714Y-97959523D01*
X160113333Y-98007142D01*
X160160952Y-98102380D01*
X160160952Y-98292857D01*
X160208571Y-98388095D01*
X160256190Y-98435714D01*
X160351428Y-98483333D01*
X160541904Y-98483333D01*
X160637142Y-98435714D01*
X160684761Y-98388095D01*
X160732380Y-98292857D01*
X160732380Y-98102380D01*
X160684761Y-98007142D01*
X160637142Y-97959523D01*
X160541904Y-97911904D01*
X160351428Y-97911904D01*
X160256190Y-97959523D01*
X160208571Y-98007142D01*
X160160952Y-98102380D01*
%TO.C,R109*%
X160732380Y-117769047D02*
X160256190Y-118102380D01*
X160732380Y-118340476D02*
X159732380Y-118340476D01*
X159732380Y-117959523D01*
X159780000Y-117864285D01*
X159827619Y-117816666D01*
X159922857Y-117769047D01*
X160065714Y-117769047D01*
X160160952Y-117816666D01*
X160208571Y-117864285D01*
X160256190Y-117959523D01*
X160256190Y-118340476D01*
X160732380Y-116816666D02*
X160732380Y-117388095D01*
X160732380Y-117102380D02*
X159732380Y-117102380D01*
X159875238Y-117197619D01*
X159970476Y-117292857D01*
X160018095Y-117388095D01*
X159732380Y-116197619D02*
X159732380Y-116102380D01*
X159780000Y-116007142D01*
X159827619Y-115959523D01*
X159922857Y-115911904D01*
X160113333Y-115864285D01*
X160351428Y-115864285D01*
X160541904Y-115911904D01*
X160637142Y-115959523D01*
X160684761Y-116007142D01*
X160732380Y-116102380D01*
X160732380Y-116197619D01*
X160684761Y-116292857D01*
X160637142Y-116340476D01*
X160541904Y-116388095D01*
X160351428Y-116435714D01*
X160113333Y-116435714D01*
X159922857Y-116388095D01*
X159827619Y-116340476D01*
X159780000Y-116292857D01*
X159732380Y-116197619D01*
X160732380Y-115388095D02*
X160732380Y-115197619D01*
X160684761Y-115102380D01*
X160637142Y-115054761D01*
X160494285Y-114959523D01*
X160303809Y-114911904D01*
X159922857Y-114911904D01*
X159827619Y-114959523D01*
X159780000Y-115007142D01*
X159732380Y-115102380D01*
X159732380Y-115292857D01*
X159780000Y-115388095D01*
X159827619Y-115435714D01*
X159922857Y-115483333D01*
X160160952Y-115483333D01*
X160256190Y-115435714D01*
X160303809Y-115388095D01*
X160351428Y-115292857D01*
X160351428Y-115102380D01*
X160303809Y-115007142D01*
X160256190Y-114959523D01*
X160160952Y-114911904D01*
%TO.C,R110*%
X160732380Y-134769047D02*
X160256190Y-135102380D01*
X160732380Y-135340476D02*
X159732380Y-135340476D01*
X159732380Y-134959523D01*
X159780000Y-134864285D01*
X159827619Y-134816666D01*
X159922857Y-134769047D01*
X160065714Y-134769047D01*
X160160952Y-134816666D01*
X160208571Y-134864285D01*
X160256190Y-134959523D01*
X160256190Y-135340476D01*
X160732380Y-133816666D02*
X160732380Y-134388095D01*
X160732380Y-134102380D02*
X159732380Y-134102380D01*
X159875238Y-134197619D01*
X159970476Y-134292857D01*
X160018095Y-134388095D01*
X160732380Y-132864285D02*
X160732380Y-133435714D01*
X160732380Y-133150000D02*
X159732380Y-133150000D01*
X159875238Y-133245238D01*
X159970476Y-133340476D01*
X160018095Y-133435714D01*
X159732380Y-132245238D02*
X159732380Y-132150000D01*
X159780000Y-132054761D01*
X159827619Y-132007142D01*
X159922857Y-131959523D01*
X160113333Y-131911904D01*
X160351428Y-131911904D01*
X160541904Y-131959523D01*
X160637142Y-132007142D01*
X160684761Y-132054761D01*
X160732380Y-132150000D01*
X160732380Y-132245238D01*
X160684761Y-132340476D01*
X160637142Y-132388095D01*
X160541904Y-132435714D01*
X160351428Y-132483333D01*
X160113333Y-132483333D01*
X159922857Y-132435714D01*
X159827619Y-132388095D01*
X159780000Y-132340476D01*
X159732380Y-132245238D01*
%TO.C,R111*%
X160732380Y-151769047D02*
X160256190Y-152102380D01*
X160732380Y-152340476D02*
X159732380Y-152340476D01*
X159732380Y-151959523D01*
X159780000Y-151864285D01*
X159827619Y-151816666D01*
X159922857Y-151769047D01*
X160065714Y-151769047D01*
X160160952Y-151816666D01*
X160208571Y-151864285D01*
X160256190Y-151959523D01*
X160256190Y-152340476D01*
X160732380Y-150816666D02*
X160732380Y-151388095D01*
X160732380Y-151102380D02*
X159732380Y-151102380D01*
X159875238Y-151197619D01*
X159970476Y-151292857D01*
X160018095Y-151388095D01*
X160732380Y-149864285D02*
X160732380Y-150435714D01*
X160732380Y-150150000D02*
X159732380Y-150150000D01*
X159875238Y-150245238D01*
X159970476Y-150340476D01*
X160018095Y-150435714D01*
X160732380Y-148911904D02*
X160732380Y-149483333D01*
X160732380Y-149197619D02*
X159732380Y-149197619D01*
X159875238Y-149292857D01*
X159970476Y-149388095D01*
X160018095Y-149483333D01*
%TO.C,R112*%
X154230952Y-58732380D02*
X153897619Y-58256190D01*
X153659523Y-58732380D02*
X153659523Y-57732380D01*
X154040476Y-57732380D01*
X154135714Y-57780000D01*
X154183333Y-57827619D01*
X154230952Y-57922857D01*
X154230952Y-58065714D01*
X154183333Y-58160952D01*
X154135714Y-58208571D01*
X154040476Y-58256190D01*
X153659523Y-58256190D01*
X155183333Y-58732380D02*
X154611904Y-58732380D01*
X154897619Y-58732380D02*
X154897619Y-57732380D01*
X154802380Y-57875238D01*
X154707142Y-57970476D01*
X154611904Y-58018095D01*
X156135714Y-58732380D02*
X155564285Y-58732380D01*
X155850000Y-58732380D02*
X155850000Y-57732380D01*
X155754761Y-57875238D01*
X155659523Y-57970476D01*
X155564285Y-58018095D01*
X156516666Y-57827619D02*
X156564285Y-57780000D01*
X156659523Y-57732380D01*
X156897619Y-57732380D01*
X156992857Y-57780000D01*
X157040476Y-57827619D01*
X157088095Y-57922857D01*
X157088095Y-58018095D01*
X157040476Y-58160952D01*
X156469047Y-58732380D01*
X157088095Y-58732380D01*
%TO.C,RV100*%
X153177380Y-67952380D02*
X152844047Y-67476190D01*
X152605952Y-67952380D02*
X152605952Y-66952380D01*
X152986904Y-66952380D01*
X153082142Y-67000000D01*
X153129761Y-67047619D01*
X153177380Y-67142857D01*
X153177380Y-67285714D01*
X153129761Y-67380952D01*
X153082142Y-67428571D01*
X152986904Y-67476190D01*
X152605952Y-67476190D01*
X153463095Y-66952380D02*
X153796428Y-67952380D01*
X154129761Y-66952380D01*
X154986904Y-67952380D02*
X154415476Y-67952380D01*
X154701190Y-67952380D02*
X154701190Y-66952380D01*
X154605952Y-67095238D01*
X154510714Y-67190476D01*
X154415476Y-67238095D01*
X155605952Y-66952380D02*
X155701190Y-66952380D01*
X155796428Y-67000000D01*
X155844047Y-67047619D01*
X155891666Y-67142857D01*
X155939285Y-67333333D01*
X155939285Y-67571428D01*
X155891666Y-67761904D01*
X155844047Y-67857142D01*
X155796428Y-67904761D01*
X155701190Y-67952380D01*
X155605952Y-67952380D01*
X155510714Y-67904761D01*
X155463095Y-67857142D01*
X155415476Y-67761904D01*
X155367857Y-67571428D01*
X155367857Y-67333333D01*
X155415476Y-67142857D01*
X155463095Y-67047619D01*
X155510714Y-67000000D01*
X155605952Y-66952380D01*
X156558333Y-66952380D02*
X156653571Y-66952380D01*
X156748809Y-67000000D01*
X156796428Y-67047619D01*
X156844047Y-67142857D01*
X156891666Y-67333333D01*
X156891666Y-67571428D01*
X156844047Y-67761904D01*
X156796428Y-67857142D01*
X156748809Y-67904761D01*
X156653571Y-67952380D01*
X156558333Y-67952380D01*
X156463095Y-67904761D01*
X156415476Y-67857142D01*
X156367857Y-67761904D01*
X156320238Y-67571428D01*
X156320238Y-67333333D01*
X156367857Y-67142857D01*
X156415476Y-67047619D01*
X156463095Y-67000000D01*
X156558333Y-66952380D01*
%TO.C,SW100*%
X96964285Y-105404761D02*
X97107142Y-105452380D01*
X97345238Y-105452380D01*
X97440476Y-105404761D01*
X97488095Y-105357142D01*
X97535714Y-105261904D01*
X97535714Y-105166666D01*
X97488095Y-105071428D01*
X97440476Y-105023809D01*
X97345238Y-104976190D01*
X97154761Y-104928571D01*
X97059523Y-104880952D01*
X97011904Y-104833333D01*
X96964285Y-104738095D01*
X96964285Y-104642857D01*
X97011904Y-104547619D01*
X97059523Y-104500000D01*
X97154761Y-104452380D01*
X97392857Y-104452380D01*
X97535714Y-104500000D01*
X97869047Y-104452380D02*
X98107142Y-105452380D01*
X98297619Y-104738095D01*
X98488095Y-105452380D01*
X98726190Y-104452380D01*
X99630952Y-105452380D02*
X99059523Y-105452380D01*
X99345238Y-105452380D02*
X99345238Y-104452380D01*
X99250000Y-104595238D01*
X99154761Y-104690476D01*
X99059523Y-104738095D01*
X100250000Y-104452380D02*
X100345238Y-104452380D01*
X100440476Y-104500000D01*
X100488095Y-104547619D01*
X100535714Y-104642857D01*
X100583333Y-104833333D01*
X100583333Y-105071428D01*
X100535714Y-105261904D01*
X100488095Y-105357142D01*
X100440476Y-105404761D01*
X100345238Y-105452380D01*
X100250000Y-105452380D01*
X100154761Y-105404761D01*
X100107142Y-105357142D01*
X100059523Y-105261904D01*
X100011904Y-105071428D01*
X100011904Y-104833333D01*
X100059523Y-104642857D01*
X100107142Y-104547619D01*
X100154761Y-104500000D01*
X100250000Y-104452380D01*
X101202380Y-104452380D02*
X101297619Y-104452380D01*
X101392857Y-104500000D01*
X101440476Y-104547619D01*
X101488095Y-104642857D01*
X101535714Y-104833333D01*
X101535714Y-105071428D01*
X101488095Y-105261904D01*
X101440476Y-105357142D01*
X101392857Y-105404761D01*
X101297619Y-105452380D01*
X101202380Y-105452380D01*
X101107142Y-105404761D01*
X101059523Y-105357142D01*
X101011904Y-105261904D01*
X100964285Y-105071428D01*
X100964285Y-104833333D01*
X101011904Y-104642857D01*
X101059523Y-104547619D01*
X101107142Y-104500000D01*
X101202380Y-104452380D01*
%TO.C,SW101*%
X144964285Y-104404761D02*
X145107142Y-104452380D01*
X145345238Y-104452380D01*
X145440476Y-104404761D01*
X145488095Y-104357142D01*
X145535714Y-104261904D01*
X145535714Y-104166666D01*
X145488095Y-104071428D01*
X145440476Y-104023809D01*
X145345238Y-103976190D01*
X145154761Y-103928571D01*
X145059523Y-103880952D01*
X145011904Y-103833333D01*
X144964285Y-103738095D01*
X144964285Y-103642857D01*
X145011904Y-103547619D01*
X145059523Y-103500000D01*
X145154761Y-103452380D01*
X145392857Y-103452380D01*
X145535714Y-103500000D01*
X145869047Y-103452380D02*
X146107142Y-104452380D01*
X146297619Y-103738095D01*
X146488095Y-104452380D01*
X146726190Y-103452380D01*
X147630952Y-104452380D02*
X147059523Y-104452380D01*
X147345238Y-104452380D02*
X147345238Y-103452380D01*
X147250000Y-103595238D01*
X147154761Y-103690476D01*
X147059523Y-103738095D01*
X148250000Y-103452380D02*
X148345238Y-103452380D01*
X148440476Y-103500000D01*
X148488095Y-103547619D01*
X148535714Y-103642857D01*
X148583333Y-103833333D01*
X148583333Y-104071428D01*
X148535714Y-104261904D01*
X148488095Y-104357142D01*
X148440476Y-104404761D01*
X148345238Y-104452380D01*
X148250000Y-104452380D01*
X148154761Y-104404761D01*
X148107142Y-104357142D01*
X148059523Y-104261904D01*
X148011904Y-104071428D01*
X148011904Y-103833333D01*
X148059523Y-103642857D01*
X148107142Y-103547619D01*
X148154761Y-103500000D01*
X148250000Y-103452380D01*
X149535714Y-104452380D02*
X148964285Y-104452380D01*
X149250000Y-104452380D02*
X149250000Y-103452380D01*
X149154761Y-103595238D01*
X149059523Y-103690476D01*
X148964285Y-103738095D01*
%TO.C,U100*%
X148992380Y-39714285D02*
X149801904Y-39714285D01*
X149897142Y-39666666D01*
X149944761Y-39619047D01*
X149992380Y-39523809D01*
X149992380Y-39333333D01*
X149944761Y-39238095D01*
X149897142Y-39190476D01*
X149801904Y-39142857D01*
X148992380Y-39142857D01*
X149992380Y-38142857D02*
X149992380Y-38714285D01*
X149992380Y-38428571D02*
X148992380Y-38428571D01*
X149135238Y-38523809D01*
X149230476Y-38619047D01*
X149278095Y-38714285D01*
X148992380Y-37523809D02*
X148992380Y-37428571D01*
X149040000Y-37333333D01*
X149087619Y-37285714D01*
X149182857Y-37238095D01*
X149373333Y-37190476D01*
X149611428Y-37190476D01*
X149801904Y-37238095D01*
X149897142Y-37285714D01*
X149944761Y-37333333D01*
X149992380Y-37428571D01*
X149992380Y-37523809D01*
X149944761Y-37619047D01*
X149897142Y-37666666D01*
X149801904Y-37714285D01*
X149611428Y-37761904D01*
X149373333Y-37761904D01*
X149182857Y-37714285D01*
X149087619Y-37666666D01*
X149040000Y-37619047D01*
X148992380Y-37523809D01*
X148992380Y-36571428D02*
X148992380Y-36476190D01*
X149040000Y-36380952D01*
X149087619Y-36333333D01*
X149182857Y-36285714D01*
X149373333Y-36238095D01*
X149611428Y-36238095D01*
X149801904Y-36285714D01*
X149897142Y-36333333D01*
X149944761Y-36380952D01*
X149992380Y-36476190D01*
X149992380Y-36571428D01*
X149944761Y-36666666D01*
X149897142Y-36714285D01*
X149801904Y-36761904D01*
X149611428Y-36809523D01*
X149373333Y-36809523D01*
X149182857Y-36761904D01*
X149087619Y-36714285D01*
X149040000Y-36666666D01*
X148992380Y-36571428D01*
%TO.C,U101*%
X113327619Y-57285714D02*
X112518095Y-57285714D01*
X112422857Y-57333333D01*
X112375238Y-57380952D01*
X112327619Y-57476190D01*
X112327619Y-57666666D01*
X112375238Y-57761904D01*
X112422857Y-57809523D01*
X112518095Y-57857142D01*
X113327619Y-57857142D01*
X112327619Y-58857142D02*
X112327619Y-58285714D01*
X112327619Y-58571428D02*
X113327619Y-58571428D01*
X113184761Y-58476190D01*
X113089523Y-58380952D01*
X113041904Y-58285714D01*
X113327619Y-59476190D02*
X113327619Y-59571428D01*
X113280000Y-59666666D01*
X113232380Y-59714285D01*
X113137142Y-59761904D01*
X112946666Y-59809523D01*
X112708571Y-59809523D01*
X112518095Y-59761904D01*
X112422857Y-59714285D01*
X112375238Y-59666666D01*
X112327619Y-59571428D01*
X112327619Y-59476190D01*
X112375238Y-59380952D01*
X112422857Y-59333333D01*
X112518095Y-59285714D01*
X112708571Y-59238095D01*
X112946666Y-59238095D01*
X113137142Y-59285714D01*
X113232380Y-59333333D01*
X113280000Y-59380952D01*
X113327619Y-59476190D01*
X112327619Y-60761904D02*
X112327619Y-60190476D01*
X112327619Y-60476190D02*
X113327619Y-60476190D01*
X113184761Y-60380952D01*
X113089523Y-60285714D01*
X113041904Y-60190476D01*
%TO.C,U103*%
X152942380Y-92714285D02*
X153751904Y-92714285D01*
X153847142Y-92666666D01*
X153894761Y-92619047D01*
X153942380Y-92523809D01*
X153942380Y-92333333D01*
X153894761Y-92238095D01*
X153847142Y-92190476D01*
X153751904Y-92142857D01*
X152942380Y-92142857D01*
X153942380Y-91142857D02*
X153942380Y-91714285D01*
X153942380Y-91428571D02*
X152942380Y-91428571D01*
X153085238Y-91523809D01*
X153180476Y-91619047D01*
X153228095Y-91714285D01*
X152942380Y-90523809D02*
X152942380Y-90428571D01*
X152990000Y-90333333D01*
X153037619Y-90285714D01*
X153132857Y-90238095D01*
X153323333Y-90190476D01*
X153561428Y-90190476D01*
X153751904Y-90238095D01*
X153847142Y-90285714D01*
X153894761Y-90333333D01*
X153942380Y-90428571D01*
X153942380Y-90523809D01*
X153894761Y-90619047D01*
X153847142Y-90666666D01*
X153751904Y-90714285D01*
X153561428Y-90761904D01*
X153323333Y-90761904D01*
X153132857Y-90714285D01*
X153037619Y-90666666D01*
X152990000Y-90619047D01*
X152942380Y-90523809D01*
X152942380Y-89857142D02*
X152942380Y-89238095D01*
X153323333Y-89571428D01*
X153323333Y-89428571D01*
X153370952Y-89333333D01*
X153418571Y-89285714D01*
X153513809Y-89238095D01*
X153751904Y-89238095D01*
X153847142Y-89285714D01*
X153894761Y-89333333D01*
X153942380Y-89428571D01*
X153942380Y-89714285D01*
X153894761Y-89809523D01*
X153847142Y-89857142D01*
%TD*%
M02*
