%FSLAX45Y45*%
G04 Gerber Fmt 4.5, Leading zero omitted, Abs format (unit mm)*
G04 Created by KiCad (PCBNEW 5.1.8-db9833491~87~ubuntu18.04.1) date 2020-11-23 07:54:48*
%MOMM*%
%LPD*%
G01*
G04 APERTURE LIST*
%TA.AperFunction,Profile*%
%ADD10C,0.050000*%
%TD*%
%ADD11C,0.200000*%
%ADD12C,0.300000*%
G04 APERTURE END LIST*
D10*
X17000000Y-3000000D02*
X8000000Y-3000000D01*
X17000000Y-17500000D02*
X17000000Y-3000000D01*
X8000000Y-17500000D02*
X17000000Y-17500000D01*
X8000000Y-3000000D02*
X8000000Y-17500000D01*
D11*
X8480000Y-7480000D02*
X8520000Y-7520000D01*
X8520000Y-7480000D02*
X8480000Y-7520000D01*
X8480000Y-12480000D02*
X8520000Y-12520000D01*
X8520000Y-12480000D02*
X8480000Y-12520000D01*
X10980000Y-6680000D02*
X11020000Y-6720000D01*
X11020000Y-6680000D02*
X10980000Y-6720000D01*
X12180000Y-8480000D02*
X12220000Y-8520000D01*
X12220000Y-8480000D02*
X12180000Y-8520000D01*
X16280000Y-8880000D02*
X16320000Y-8920000D01*
X16320000Y-8880000D02*
X16280000Y-8920000D01*
X14730000Y-3546000D02*
G75*
G03*
X14730000Y-3546000I-30000J0D01*
G01*
X14730000Y-3800000D02*
G75*
G03*
X14730000Y-3800000I-30000J0D01*
G01*
X14730000Y-4054000D02*
G75*
G03*
X14730000Y-4054000I-30000J0D01*
G01*
X8800000Y-13960000D02*
X8800000Y-14040000D01*
X8760000Y-14000000D02*
X8840000Y-14000000D01*
X8800000Y-14960000D02*
X8800000Y-15040000D01*
X8760000Y-15000000D02*
X8840000Y-15000000D01*
X12300000Y-3660000D02*
X12300000Y-3740000D01*
X12260000Y-3700000D02*
X12340000Y-3700000D01*
X12300000Y-4060000D02*
X12300000Y-4140000D01*
X12260000Y-4100000D02*
X12340000Y-4100000D01*
X12300000Y-4460000D02*
X12300000Y-4540000D01*
X12260000Y-4500000D02*
X12340000Y-4500000D01*
X11538000Y-5460000D02*
X11538000Y-5540000D01*
X11498000Y-5500000D02*
X11578000Y-5500000D01*
X11538000Y-6260000D02*
X11538000Y-6340000D01*
X11498000Y-6300000D02*
X11578000Y-6300000D01*
X11792000Y-5460000D02*
X11792000Y-5540000D01*
X11752000Y-5500000D02*
X11832000Y-5500000D01*
X11792000Y-6260000D02*
X11792000Y-6340000D01*
X11752000Y-6300000D02*
X11832000Y-6300000D01*
X12046000Y-5460000D02*
X12046000Y-5540000D01*
X12006000Y-5500000D02*
X12086000Y-5500000D01*
X12046000Y-6260000D02*
X12046000Y-6340000D01*
X12006000Y-6300000D02*
X12086000Y-6300000D01*
X12300000Y-5460000D02*
X12300000Y-5540000D01*
X12260000Y-5500000D02*
X12340000Y-5500000D01*
X12300000Y-6260000D02*
X12300000Y-6340000D01*
X12260000Y-6300000D02*
X12340000Y-6300000D01*
X12554000Y-5460000D02*
X12554000Y-5540000D01*
X12514000Y-5500000D02*
X12594000Y-5500000D01*
X12554000Y-6260000D02*
X12554000Y-6340000D01*
X12514000Y-6300000D02*
X12594000Y-6300000D01*
X12808000Y-5460000D02*
X12808000Y-5540000D01*
X12768000Y-5500000D02*
X12848000Y-5500000D01*
X12808000Y-6260000D02*
X12808000Y-6340000D01*
X12768000Y-6300000D02*
X12848000Y-6300000D01*
X13062000Y-5460000D02*
X13062000Y-5540000D01*
X13022000Y-5500000D02*
X13102000Y-5500000D01*
X13062000Y-6260000D02*
X13062000Y-6340000D01*
X13022000Y-6300000D02*
X13102000Y-6300000D01*
X16300000Y-14390000D02*
X16300000Y-14470000D01*
X16260000Y-14430000D02*
X16340000Y-14430000D01*
X16300000Y-15660000D02*
X16300000Y-15740000D01*
X16260000Y-15700000D02*
X16340000Y-15700000D01*
X15600000Y-3860000D02*
X15600000Y-3940000D01*
X15560000Y-3900000D02*
X15640000Y-3900000D01*
X15600000Y-4110000D02*
X15600000Y-4190000D01*
X15560000Y-4150000D02*
X15640000Y-4150000D01*
X12800000Y-10990000D02*
X12800000Y-11070000D01*
X12760000Y-11030000D02*
X12840000Y-11030000D01*
X12800000Y-12260000D02*
X12800000Y-12340000D01*
X12760000Y-12300000D02*
X12840000Y-12300000D01*
X12800000Y-12690000D02*
X12800000Y-12770000D01*
X12760000Y-12730000D02*
X12840000Y-12730000D01*
X12800000Y-13960000D02*
X12800000Y-14040000D01*
X12760000Y-14000000D02*
X12840000Y-14000000D01*
X13500000Y-3810000D02*
X13500000Y-3890000D01*
X13460000Y-3850000D02*
X13540000Y-3850000D01*
X13500000Y-4060000D02*
X13500000Y-4140000D01*
X13460000Y-4100000D02*
X13540000Y-4100000D01*
X16300000Y-9290000D02*
X16300000Y-9370000D01*
X16260000Y-9330000D02*
X16340000Y-9330000D01*
X16300000Y-10560000D02*
X16300000Y-10640000D01*
X16260000Y-10600000D02*
X16340000Y-10600000D01*
X11700000Y-10990000D02*
X11700000Y-11070000D01*
X11660000Y-11030000D02*
X11740000Y-11030000D01*
X11700000Y-12260000D02*
X11700000Y-12340000D01*
X11660000Y-12300000D02*
X11740000Y-12300000D01*
X13311000Y-8730000D02*
X13311000Y-8810000D01*
X13271000Y-8770000D02*
X13351000Y-8770000D01*
X13311000Y-9390000D02*
X13311000Y-9470000D01*
X13271000Y-9430000D02*
X13351000Y-9430000D01*
X13565000Y-8730000D02*
X13565000Y-8810000D01*
X13525000Y-8770000D02*
X13605000Y-8770000D01*
X13565000Y-9390000D02*
X13565000Y-9470000D01*
X13525000Y-9430000D02*
X13605000Y-9430000D01*
X13819000Y-8730000D02*
X13819000Y-8810000D01*
X13779000Y-8770000D02*
X13859000Y-8770000D01*
X13819000Y-9390000D02*
X13819000Y-9470000D01*
X13779000Y-9430000D02*
X13859000Y-9430000D01*
X14073000Y-8730000D02*
X14073000Y-8810000D01*
X14033000Y-8770000D02*
X14113000Y-8770000D01*
X14073000Y-9390000D02*
X14073000Y-9470000D01*
X14033000Y-9430000D02*
X14113000Y-9430000D01*
X14327000Y-8730000D02*
X14327000Y-8810000D01*
X14287000Y-8770000D02*
X14367000Y-8770000D01*
X14327000Y-9390000D02*
X14327000Y-9470000D01*
X14287000Y-9430000D02*
X14367000Y-9430000D01*
X14581000Y-8730000D02*
X14581000Y-8810000D01*
X14541000Y-8770000D02*
X14621000Y-8770000D01*
X14581000Y-9390000D02*
X14581000Y-9470000D01*
X14541000Y-9430000D02*
X14621000Y-9430000D01*
X14835000Y-8730000D02*
X14835000Y-8810000D01*
X14795000Y-8770000D02*
X14875000Y-8770000D01*
X14835000Y-9390000D02*
X14835000Y-9470000D01*
X14795000Y-9430000D02*
X14875000Y-9430000D01*
X15089000Y-8730000D02*
X15089000Y-8810000D01*
X15049000Y-8770000D02*
X15129000Y-8770000D01*
X15089000Y-9390000D02*
X15089000Y-9470000D01*
X15049000Y-9430000D02*
X15129000Y-9430000D01*
X11700000Y-12690000D02*
X11700000Y-12770000D01*
X11660000Y-12730000D02*
X11740000Y-12730000D01*
X11700000Y-13960000D02*
X11700000Y-14040000D01*
X11660000Y-14000000D02*
X11740000Y-14000000D01*
X11700000Y-9290000D02*
X11700000Y-9370000D01*
X11660000Y-9330000D02*
X11740000Y-9330000D01*
X11700000Y-10560000D02*
X11700000Y-10640000D01*
X11660000Y-10600000D02*
X11740000Y-10600000D01*
X16300000Y-12690000D02*
X16300000Y-12770000D01*
X16260000Y-12730000D02*
X16340000Y-12730000D01*
X16300000Y-13960000D02*
X16300000Y-14040000D01*
X16260000Y-14000000D02*
X16340000Y-14000000D01*
X10011000Y-7430000D02*
X10011000Y-7510000D01*
X9971000Y-7470000D02*
X10051000Y-7470000D01*
X10011000Y-8090000D02*
X10011000Y-8170000D01*
X9971000Y-8130000D02*
X10051000Y-8130000D01*
X10265000Y-7430000D02*
X10265000Y-7510000D01*
X10225000Y-7470000D02*
X10305000Y-7470000D01*
X10265000Y-8090000D02*
X10265000Y-8170000D01*
X10225000Y-8130000D02*
X10305000Y-8130000D01*
X10519000Y-7430000D02*
X10519000Y-7510000D01*
X10479000Y-7470000D02*
X10559000Y-7470000D01*
X10519000Y-8090000D02*
X10519000Y-8170000D01*
X10479000Y-8130000D02*
X10559000Y-8130000D01*
X10773000Y-7430000D02*
X10773000Y-7510000D01*
X10733000Y-7470000D02*
X10813000Y-7470000D01*
X10773000Y-8090000D02*
X10773000Y-8170000D01*
X10733000Y-8130000D02*
X10813000Y-8130000D01*
X11027000Y-7430000D02*
X11027000Y-7510000D01*
X10987000Y-7470000D02*
X11067000Y-7470000D01*
X11027000Y-8090000D02*
X11027000Y-8170000D01*
X10987000Y-8130000D02*
X11067000Y-8130000D01*
X11281000Y-7430000D02*
X11281000Y-7510000D01*
X11241000Y-7470000D02*
X11321000Y-7470000D01*
X11281000Y-8090000D02*
X11281000Y-8170000D01*
X11241000Y-8130000D02*
X11321000Y-8130000D01*
X11535000Y-7430000D02*
X11535000Y-7510000D01*
X11495000Y-7470000D02*
X11575000Y-7470000D01*
X11535000Y-8090000D02*
X11535000Y-8170000D01*
X11495000Y-8130000D02*
X11575000Y-8130000D01*
X11789000Y-7430000D02*
X11789000Y-7510000D01*
X11749000Y-7470000D02*
X11829000Y-7470000D01*
X11789000Y-8090000D02*
X11789000Y-8170000D01*
X11749000Y-8130000D02*
X11829000Y-8130000D01*
X9400000Y-13490000D02*
X9400000Y-13570000D01*
X9360000Y-13530000D02*
X9440000Y-13530000D01*
X9400000Y-14760000D02*
X9400000Y-14840000D01*
X9360000Y-14800000D02*
X9440000Y-14800000D01*
X16300000Y-10990000D02*
X16300000Y-11070000D01*
X16260000Y-11030000D02*
X16340000Y-11030000D01*
X16300000Y-12260000D02*
X16300000Y-12340000D01*
X16260000Y-12300000D02*
X16340000Y-12300000D01*
X11700000Y-14390000D02*
X11700000Y-14470000D01*
X11660000Y-14430000D02*
X11740000Y-14430000D01*
X11700000Y-15660000D02*
X11700000Y-15740000D01*
X11660000Y-15700000D02*
X11740000Y-15700000D01*
X14900000Y-6060000D02*
X14900000Y-6140000D01*
X14860000Y-6100000D02*
X14940000Y-6100000D01*
X16170000Y-6060000D02*
X16170000Y-6140000D01*
X16130000Y-6100000D02*
X16210000Y-6100000D01*
X12800000Y-14390000D02*
X12800000Y-14470000D01*
X12760000Y-14430000D02*
X12840000Y-14430000D01*
X12800000Y-15660000D02*
X12800000Y-15740000D01*
X12760000Y-15700000D02*
X12840000Y-15700000D01*
X14731820Y-14531820D02*
X14731820Y-14468180D01*
X14668180Y-14468180D01*
X14668180Y-14531820D01*
X14731820Y-14531820D01*
X14985820Y-14531820D02*
X14985820Y-14468180D01*
X14922180Y-14468180D01*
X14922180Y-14531820D01*
X14985820Y-14531820D01*
X13731820Y-13531820D02*
X13731820Y-13468180D01*
X13668180Y-13468180D01*
X13668180Y-13531820D01*
X13731820Y-13531820D01*
X13985820Y-13531820D02*
X13985820Y-13468180D01*
X13922180Y-13468180D01*
X13922180Y-13531820D01*
X13985820Y-13531820D01*
X10331820Y-15531820D02*
X10331820Y-15468180D01*
X10268180Y-15468180D01*
X10268180Y-15531820D01*
X10331820Y-15531820D01*
X10585820Y-15531820D02*
X10585820Y-15468180D01*
X10522180Y-15468180D01*
X10522180Y-15531820D01*
X10585820Y-15531820D01*
X14731820Y-13531820D02*
X14731820Y-13468180D01*
X14668180Y-13468180D01*
X14668180Y-13531820D01*
X14731820Y-13531820D01*
X14985820Y-13531820D02*
X14985820Y-13468180D01*
X14922180Y-13468180D01*
X14922180Y-13531820D01*
X14985820Y-13531820D01*
X13731820Y-15531820D02*
X13731820Y-15468180D01*
X13668180Y-15468180D01*
X13668180Y-15531820D01*
X13731820Y-15531820D01*
X13985820Y-15531820D02*
X13985820Y-15468180D01*
X13922180Y-15468180D01*
X13922180Y-15531820D01*
X13985820Y-15531820D01*
X10331820Y-12531820D02*
X10331820Y-12468180D01*
X10268180Y-12468180D01*
X10268180Y-12531820D01*
X10331820Y-12531820D01*
X10585820Y-12531820D02*
X10585820Y-12468180D01*
X10522180Y-12468180D01*
X10522180Y-12531820D01*
X10585820Y-12531820D01*
X10331820Y-13531820D02*
X10331820Y-13468180D01*
X10268180Y-13468180D01*
X10268180Y-13531820D01*
X10331820Y-13531820D01*
X10585820Y-13531820D02*
X10585820Y-13468180D01*
X10522180Y-13468180D01*
X10522180Y-13531820D01*
X10585820Y-13531820D01*
X13731820Y-14531820D02*
X13731820Y-14468180D01*
X13668180Y-14468180D01*
X13668180Y-14531820D01*
X13731820Y-14531820D01*
X13985820Y-14531820D02*
X13985820Y-14468180D01*
X13922180Y-14468180D01*
X13922180Y-14531820D01*
X13985820Y-14531820D01*
X10331820Y-14531820D02*
X10331820Y-14468180D01*
X10268180Y-14468180D01*
X10268180Y-14531820D01*
X10331820Y-14531820D01*
X10585820Y-14531820D02*
X10585820Y-14468180D01*
X10522180Y-14468180D01*
X10522180Y-14531820D01*
X10585820Y-14531820D01*
X9331820Y-15531820D02*
X9331820Y-15468180D01*
X9268180Y-15468180D01*
X9268180Y-15531820D01*
X9331820Y-15531820D01*
X9585820Y-15531820D02*
X9585820Y-15468180D01*
X9522180Y-15468180D01*
X9522180Y-15531820D01*
X9585820Y-15531820D01*
X14731820Y-15531820D02*
X14731820Y-15468180D01*
X14668180Y-15468180D01*
X14668180Y-15531820D01*
X14731820Y-15531820D01*
X14985820Y-15531820D02*
X14985820Y-15468180D01*
X14922180Y-15468180D01*
X14922180Y-15531820D01*
X14985820Y-15531820D01*
X14731820Y-12531820D02*
X14731820Y-12468180D01*
X14668180Y-12468180D01*
X14668180Y-12531820D01*
X14731820Y-12531820D01*
X14985820Y-12531820D02*
X14985820Y-12468180D01*
X14922180Y-12468180D01*
X14922180Y-12531820D01*
X14985820Y-12531820D01*
X14900000Y-7350000D02*
X14950000Y-7300000D01*
X14900000Y-7250000D01*
X14850000Y-7300000D01*
X14900000Y-7350000D01*
X14900000Y-7600000D02*
X14950000Y-7550000D01*
X14900000Y-7500000D01*
X14850000Y-7550000D01*
X14900000Y-7600000D01*
X14900000Y-7850000D02*
X14950000Y-7800000D01*
X14900000Y-7750000D01*
X14850000Y-7800000D01*
X14900000Y-7850000D01*
X14345000Y-10545000D02*
X14455000Y-10655000D01*
X14455000Y-10545000D02*
X14345000Y-10655000D01*
X14455000Y-10600000D02*
G75*
G03*
X14455000Y-10600000I-55000J0D01*
G01*
X14345000Y-10995000D02*
X14455000Y-11105000D01*
X14455000Y-10995000D02*
X14345000Y-11105000D01*
X14455000Y-11050000D02*
G75*
G03*
X14455000Y-11050000I-55000J0D01*
G01*
X14995000Y-10545000D02*
X15105000Y-10655000D01*
X15105000Y-10545000D02*
X14995000Y-10655000D01*
X15105000Y-10600000D02*
G75*
G03*
X15105000Y-10600000I-55000J0D01*
G01*
X14995000Y-10995000D02*
X15105000Y-11105000D01*
X15105000Y-10995000D02*
X14995000Y-11105000D01*
X15105000Y-11050000D02*
G75*
G03*
X15105000Y-11050000I-55000J0D01*
G01*
X9545000Y-10645000D02*
X9655000Y-10755000D01*
X9655000Y-10645000D02*
X9545000Y-10755000D01*
X9655000Y-10700000D02*
G75*
G03*
X9655000Y-10700000I-55000J0D01*
G01*
X9545000Y-11095000D02*
X9655000Y-11205000D01*
X9655000Y-11095000D02*
X9545000Y-11205000D01*
X9655000Y-11150000D02*
G75*
G03*
X9655000Y-11150000I-55000J0D01*
G01*
X10195000Y-10645000D02*
X10305000Y-10755000D01*
X10305000Y-10645000D02*
X10195000Y-10755000D01*
X10305000Y-10700000D02*
G75*
G03*
X10305000Y-10700000I-55000J0D01*
G01*
X10195000Y-11095000D02*
X10305000Y-11205000D01*
X10305000Y-11095000D02*
X10195000Y-11205000D01*
X10305000Y-11150000D02*
G75*
G03*
X10305000Y-11150000I-55000J0D01*
G01*
D12*
X8283928Y-17968214D02*
X8283928Y-17668214D01*
X8355357Y-17668214D01*
X8398214Y-17682500D01*
X8426786Y-17711072D01*
X8441071Y-17739643D01*
X8455357Y-17796786D01*
X8455357Y-17839643D01*
X8441071Y-17896786D01*
X8426786Y-17925357D01*
X8398214Y-17953929D01*
X8355357Y-17968214D01*
X8283928Y-17968214D01*
X8583928Y-17968214D02*
X8583928Y-17768214D01*
X8583928Y-17825357D02*
X8598214Y-17796786D01*
X8612500Y-17782500D01*
X8641071Y-17768214D01*
X8669643Y-17768214D01*
X8769643Y-17968214D02*
X8769643Y-17768214D01*
X8769643Y-17668214D02*
X8755357Y-17682500D01*
X8769643Y-17696786D01*
X8783928Y-17682500D01*
X8769643Y-17668214D01*
X8769643Y-17696786D01*
X8955357Y-17968214D02*
X8926786Y-17953929D01*
X8912500Y-17925357D01*
X8912500Y-17668214D01*
X9112500Y-17968214D02*
X9083928Y-17953929D01*
X9069643Y-17925357D01*
X9069643Y-17668214D01*
X9455357Y-17968214D02*
X9455357Y-17668214D01*
X9555357Y-17882500D01*
X9655357Y-17668214D01*
X9655357Y-17968214D01*
X9926786Y-17968214D02*
X9926786Y-17811072D01*
X9912500Y-17782500D01*
X9883928Y-17768214D01*
X9826786Y-17768214D01*
X9798214Y-17782500D01*
X9926786Y-17953929D02*
X9898214Y-17968214D01*
X9826786Y-17968214D01*
X9798214Y-17953929D01*
X9783928Y-17925357D01*
X9783928Y-17896786D01*
X9798214Y-17868214D01*
X9826786Y-17853929D01*
X9898214Y-17853929D01*
X9926786Y-17839643D01*
X10069643Y-17768214D02*
X10069643Y-18068214D01*
X10069643Y-17782500D02*
X10098214Y-17768214D01*
X10155357Y-17768214D01*
X10183928Y-17782500D01*
X10198214Y-17796786D01*
X10212500Y-17825357D01*
X10212500Y-17911072D01*
X10198214Y-17939643D01*
X10183928Y-17953929D01*
X10155357Y-17968214D01*
X10098214Y-17968214D01*
X10069643Y-17953929D01*
X10341071Y-17939643D02*
X10355357Y-17953929D01*
X10341071Y-17968214D01*
X10326786Y-17953929D01*
X10341071Y-17939643D01*
X10341071Y-17968214D01*
X10341071Y-17782500D02*
X10355357Y-17796786D01*
X10341071Y-17811072D01*
X10326786Y-17796786D01*
X10341071Y-17782500D01*
X10341071Y-17811072D01*
X7957500Y-18442500D02*
X7997500Y-18482500D01*
X7997500Y-18442500D02*
X7957500Y-18482500D01*
X8341071Y-18298214D02*
X8369643Y-18298214D01*
X8398214Y-18312500D01*
X8412500Y-18326786D01*
X8426786Y-18355357D01*
X8441071Y-18412500D01*
X8441071Y-18483929D01*
X8426786Y-18541072D01*
X8412500Y-18569643D01*
X8398214Y-18583929D01*
X8369643Y-18598214D01*
X8341071Y-18598214D01*
X8312500Y-18583929D01*
X8298214Y-18569643D01*
X8283928Y-18541072D01*
X8269643Y-18483929D01*
X8269643Y-18412500D01*
X8283928Y-18355357D01*
X8298214Y-18326786D01*
X8312500Y-18312500D01*
X8341071Y-18298214D01*
X8569643Y-18569643D02*
X8583928Y-18583929D01*
X8569643Y-18598214D01*
X8555357Y-18583929D01*
X8569643Y-18569643D01*
X8569643Y-18598214D01*
X8841071Y-18398214D02*
X8841071Y-18598214D01*
X8769643Y-18283929D02*
X8698214Y-18498214D01*
X8883928Y-18498214D01*
X9055357Y-18298214D02*
X9083928Y-18298214D01*
X9112500Y-18312500D01*
X9126786Y-18326786D01*
X9141071Y-18355357D01*
X9155357Y-18412500D01*
X9155357Y-18483929D01*
X9141071Y-18541072D01*
X9126786Y-18569643D01*
X9112500Y-18583929D01*
X9083928Y-18598214D01*
X9055357Y-18598214D01*
X9026786Y-18583929D01*
X9012500Y-18569643D01*
X8998214Y-18541072D01*
X8983928Y-18483929D01*
X8983928Y-18412500D01*
X8998214Y-18355357D01*
X9012500Y-18326786D01*
X9026786Y-18312500D01*
X9055357Y-18298214D01*
X9283928Y-18598214D02*
X9283928Y-18398214D01*
X9283928Y-18426786D02*
X9298214Y-18412500D01*
X9326786Y-18398214D01*
X9369643Y-18398214D01*
X9398214Y-18412500D01*
X9412500Y-18441072D01*
X9412500Y-18598214D01*
X9412500Y-18441072D02*
X9426786Y-18412500D01*
X9455357Y-18398214D01*
X9498214Y-18398214D01*
X9526786Y-18412500D01*
X9541071Y-18441072D01*
X9541071Y-18598214D01*
X9683928Y-18598214D02*
X9683928Y-18398214D01*
X9683928Y-18426786D02*
X9698214Y-18412500D01*
X9726786Y-18398214D01*
X9769643Y-18398214D01*
X9798214Y-18412500D01*
X9812500Y-18441072D01*
X9812500Y-18598214D01*
X9812500Y-18441072D02*
X9826786Y-18412500D01*
X9855357Y-18398214D01*
X9898214Y-18398214D01*
X9926786Y-18412500D01*
X9941071Y-18441072D01*
X9941071Y-18598214D01*
X10526786Y-18283929D02*
X10269643Y-18669643D01*
X10912500Y-18298214D02*
X10941071Y-18298214D01*
X10969643Y-18312500D01*
X10983928Y-18326786D01*
X10998214Y-18355357D01*
X11012500Y-18412500D01*
X11012500Y-18483929D01*
X10998214Y-18541072D01*
X10983928Y-18569643D01*
X10969643Y-18583929D01*
X10941071Y-18598214D01*
X10912500Y-18598214D01*
X10883928Y-18583929D01*
X10869643Y-18569643D01*
X10855357Y-18541072D01*
X10841071Y-18483929D01*
X10841071Y-18412500D01*
X10855357Y-18355357D01*
X10869643Y-18326786D01*
X10883928Y-18312500D01*
X10912500Y-18298214D01*
X11141071Y-18569643D02*
X11155357Y-18583929D01*
X11141071Y-18598214D01*
X11126786Y-18583929D01*
X11141071Y-18569643D01*
X11141071Y-18598214D01*
X11341071Y-18298214D02*
X11369643Y-18298214D01*
X11398214Y-18312500D01*
X11412500Y-18326786D01*
X11426786Y-18355357D01*
X11441071Y-18412500D01*
X11441071Y-18483929D01*
X11426786Y-18541072D01*
X11412500Y-18569643D01*
X11398214Y-18583929D01*
X11369643Y-18598214D01*
X11341071Y-18598214D01*
X11312500Y-18583929D01*
X11298214Y-18569643D01*
X11283928Y-18541072D01*
X11269643Y-18483929D01*
X11269643Y-18412500D01*
X11283928Y-18355357D01*
X11298214Y-18326786D01*
X11312500Y-18312500D01*
X11341071Y-18298214D01*
X11726786Y-18598214D02*
X11555357Y-18598214D01*
X11641071Y-18598214D02*
X11641071Y-18298214D01*
X11612500Y-18341072D01*
X11583928Y-18369643D01*
X11555357Y-18383929D01*
X11983928Y-18298214D02*
X11926786Y-18298214D01*
X11898214Y-18312500D01*
X11883928Y-18326786D01*
X11855357Y-18369643D01*
X11841071Y-18426786D01*
X11841071Y-18541072D01*
X11855357Y-18569643D01*
X11869643Y-18583929D01*
X11898214Y-18598214D01*
X11955357Y-18598214D01*
X11983928Y-18583929D01*
X11998214Y-18569643D01*
X12012500Y-18541072D01*
X12012500Y-18469643D01*
X11998214Y-18441072D01*
X11983928Y-18426786D01*
X11955357Y-18412500D01*
X11898214Y-18412500D01*
X11869643Y-18426786D01*
X11855357Y-18441072D01*
X11841071Y-18469643D01*
X12126786Y-18298214D02*
X12126786Y-18355357D01*
X12241071Y-18298214D02*
X12241071Y-18355357D01*
X12683928Y-18712500D02*
X12669643Y-18698214D01*
X12641071Y-18655357D01*
X12626786Y-18626786D01*
X12612500Y-18583929D01*
X12598214Y-18512500D01*
X12598214Y-18455357D01*
X12612500Y-18383929D01*
X12626786Y-18341072D01*
X12641071Y-18312500D01*
X12669643Y-18269643D01*
X12683928Y-18255357D01*
X12941071Y-18298214D02*
X12798214Y-18298214D01*
X12783928Y-18441072D01*
X12798214Y-18426786D01*
X12826786Y-18412500D01*
X12898214Y-18412500D01*
X12926786Y-18426786D01*
X12941071Y-18441072D01*
X12955357Y-18469643D01*
X12955357Y-18541072D01*
X12941071Y-18569643D01*
X12926786Y-18583929D01*
X12898214Y-18598214D01*
X12826786Y-18598214D01*
X12798214Y-18583929D01*
X12783928Y-18569643D01*
X13312500Y-18598214D02*
X13312500Y-18298214D01*
X13441071Y-18598214D02*
X13441071Y-18441072D01*
X13426786Y-18412500D01*
X13398214Y-18398214D01*
X13355357Y-18398214D01*
X13326786Y-18412500D01*
X13312500Y-18426786D01*
X13626786Y-18598214D02*
X13598214Y-18583929D01*
X13583928Y-18569643D01*
X13569643Y-18541072D01*
X13569643Y-18455357D01*
X13583928Y-18426786D01*
X13598214Y-18412500D01*
X13626786Y-18398214D01*
X13669643Y-18398214D01*
X13698214Y-18412500D01*
X13712500Y-18426786D01*
X13726786Y-18455357D01*
X13726786Y-18541072D01*
X13712500Y-18569643D01*
X13698214Y-18583929D01*
X13669643Y-18598214D01*
X13626786Y-18598214D01*
X13898214Y-18598214D02*
X13869643Y-18583929D01*
X13855357Y-18555357D01*
X13855357Y-18298214D01*
X14126786Y-18583929D02*
X14098214Y-18598214D01*
X14041071Y-18598214D01*
X14012500Y-18583929D01*
X13998214Y-18555357D01*
X13998214Y-18441072D01*
X14012500Y-18412500D01*
X14041071Y-18398214D01*
X14098214Y-18398214D01*
X14126786Y-18412500D01*
X14141071Y-18441072D01*
X14141071Y-18469643D01*
X13998214Y-18498214D01*
X14255357Y-18583929D02*
X14283928Y-18598214D01*
X14341071Y-18598214D01*
X14369643Y-18583929D01*
X14383928Y-18555357D01*
X14383928Y-18541072D01*
X14369643Y-18512500D01*
X14341071Y-18498214D01*
X14298214Y-18498214D01*
X14269643Y-18483929D01*
X14255357Y-18455357D01*
X14255357Y-18441072D01*
X14269643Y-18412500D01*
X14298214Y-18398214D01*
X14341071Y-18398214D01*
X14369643Y-18412500D01*
X14483928Y-18712500D02*
X14498214Y-18698214D01*
X14526786Y-18655357D01*
X14541071Y-18626786D01*
X14555357Y-18583929D01*
X14569643Y-18512500D01*
X14569643Y-18455357D01*
X14555357Y-18383929D01*
X14541071Y-18341072D01*
X14526786Y-18312500D01*
X14498214Y-18269643D01*
X14483928Y-18255357D01*
X7997500Y-18858500D02*
G75*
G03*
X7997500Y-18858500I-30000J0D01*
G01*
X8341071Y-18694214D02*
X8369643Y-18694214D01*
X8398214Y-18708500D01*
X8412500Y-18722786D01*
X8426786Y-18751357D01*
X8441071Y-18808500D01*
X8441071Y-18879929D01*
X8426786Y-18937072D01*
X8412500Y-18965643D01*
X8398214Y-18979929D01*
X8369643Y-18994214D01*
X8341071Y-18994214D01*
X8312500Y-18979929D01*
X8298214Y-18965643D01*
X8283928Y-18937072D01*
X8269643Y-18879929D01*
X8269643Y-18808500D01*
X8283928Y-18751357D01*
X8298214Y-18722786D01*
X8312500Y-18708500D01*
X8341071Y-18694214D01*
X8569643Y-18965643D02*
X8583928Y-18979929D01*
X8569643Y-18994214D01*
X8555357Y-18979929D01*
X8569643Y-18965643D01*
X8569643Y-18994214D01*
X8841071Y-18694214D02*
X8783928Y-18694214D01*
X8755357Y-18708500D01*
X8741071Y-18722786D01*
X8712500Y-18765643D01*
X8698214Y-18822786D01*
X8698214Y-18937072D01*
X8712500Y-18965643D01*
X8726786Y-18979929D01*
X8755357Y-18994214D01*
X8812500Y-18994214D01*
X8841071Y-18979929D01*
X8855357Y-18965643D01*
X8869643Y-18937072D01*
X8869643Y-18865643D01*
X8855357Y-18837072D01*
X8841071Y-18822786D01*
X8812500Y-18808500D01*
X8755357Y-18808500D01*
X8726786Y-18822786D01*
X8712500Y-18837072D01*
X8698214Y-18865643D01*
X9055357Y-18694214D02*
X9083928Y-18694214D01*
X9112500Y-18708500D01*
X9126786Y-18722786D01*
X9141071Y-18751357D01*
X9155357Y-18808500D01*
X9155357Y-18879929D01*
X9141071Y-18937072D01*
X9126786Y-18965643D01*
X9112500Y-18979929D01*
X9083928Y-18994214D01*
X9055357Y-18994214D01*
X9026786Y-18979929D01*
X9012500Y-18965643D01*
X8998214Y-18937072D01*
X8983928Y-18879929D01*
X8983928Y-18808500D01*
X8998214Y-18751357D01*
X9012500Y-18722786D01*
X9026786Y-18708500D01*
X9055357Y-18694214D01*
X9283928Y-18994214D02*
X9283928Y-18794214D01*
X9283928Y-18822786D02*
X9298214Y-18808500D01*
X9326786Y-18794214D01*
X9369643Y-18794214D01*
X9398214Y-18808500D01*
X9412500Y-18837072D01*
X9412500Y-18994214D01*
X9412500Y-18837072D02*
X9426786Y-18808500D01*
X9455357Y-18794214D01*
X9498214Y-18794214D01*
X9526786Y-18808500D01*
X9541071Y-18837072D01*
X9541071Y-18994214D01*
X9683928Y-18994214D02*
X9683928Y-18794214D01*
X9683928Y-18822786D02*
X9698214Y-18808500D01*
X9726786Y-18794214D01*
X9769643Y-18794214D01*
X9798214Y-18808500D01*
X9812500Y-18837072D01*
X9812500Y-18994214D01*
X9812500Y-18837072D02*
X9826786Y-18808500D01*
X9855357Y-18794214D01*
X9898214Y-18794214D01*
X9926786Y-18808500D01*
X9941071Y-18837072D01*
X9941071Y-18994214D01*
X10526786Y-18679929D02*
X10269643Y-19065643D01*
X10912500Y-18694214D02*
X10941071Y-18694214D01*
X10969643Y-18708500D01*
X10983928Y-18722786D01*
X10998214Y-18751357D01*
X11012500Y-18808500D01*
X11012500Y-18879929D01*
X10998214Y-18937072D01*
X10983928Y-18965643D01*
X10969643Y-18979929D01*
X10941071Y-18994214D01*
X10912500Y-18994214D01*
X10883928Y-18979929D01*
X10869643Y-18965643D01*
X10855357Y-18937072D01*
X10841071Y-18879929D01*
X10841071Y-18808500D01*
X10855357Y-18751357D01*
X10869643Y-18722786D01*
X10883928Y-18708500D01*
X10912500Y-18694214D01*
X11141071Y-18965643D02*
X11155357Y-18979929D01*
X11141071Y-18994214D01*
X11126786Y-18979929D01*
X11141071Y-18965643D01*
X11141071Y-18994214D01*
X11341071Y-18694214D02*
X11369643Y-18694214D01*
X11398214Y-18708500D01*
X11412500Y-18722786D01*
X11426786Y-18751357D01*
X11441071Y-18808500D01*
X11441071Y-18879929D01*
X11426786Y-18937072D01*
X11412500Y-18965643D01*
X11398214Y-18979929D01*
X11369643Y-18994214D01*
X11341071Y-18994214D01*
X11312500Y-18979929D01*
X11298214Y-18965643D01*
X11283928Y-18937072D01*
X11269643Y-18879929D01*
X11269643Y-18808500D01*
X11283928Y-18751357D01*
X11298214Y-18722786D01*
X11312500Y-18708500D01*
X11341071Y-18694214D01*
X11555357Y-18722786D02*
X11569643Y-18708500D01*
X11598214Y-18694214D01*
X11669643Y-18694214D01*
X11698214Y-18708500D01*
X11712500Y-18722786D01*
X11726786Y-18751357D01*
X11726786Y-18779929D01*
X11712500Y-18822786D01*
X11541071Y-18994214D01*
X11726786Y-18994214D01*
X11983928Y-18794214D02*
X11983928Y-18994214D01*
X11912500Y-18679929D02*
X11841071Y-18894214D01*
X12026786Y-18894214D01*
X12126786Y-18694214D02*
X12126786Y-18751357D01*
X12241071Y-18694214D02*
X12241071Y-18751357D01*
X12683928Y-19108500D02*
X12669643Y-19094214D01*
X12641071Y-19051357D01*
X12626786Y-19022786D01*
X12612500Y-18979929D01*
X12598214Y-18908500D01*
X12598214Y-18851357D01*
X12612500Y-18779929D01*
X12626786Y-18737072D01*
X12641071Y-18708500D01*
X12669643Y-18665643D01*
X12683928Y-18651357D01*
X12769643Y-18694214D02*
X12955357Y-18694214D01*
X12855357Y-18808500D01*
X12898214Y-18808500D01*
X12926786Y-18822786D01*
X12941071Y-18837072D01*
X12955357Y-18865643D01*
X12955357Y-18937072D01*
X12941071Y-18965643D01*
X12926786Y-18979929D01*
X12898214Y-18994214D01*
X12812500Y-18994214D01*
X12783928Y-18979929D01*
X12769643Y-18965643D01*
X13312500Y-18994214D02*
X13312500Y-18694214D01*
X13441071Y-18994214D02*
X13441071Y-18837072D01*
X13426786Y-18808500D01*
X13398214Y-18794214D01*
X13355357Y-18794214D01*
X13326786Y-18808500D01*
X13312500Y-18822786D01*
X13626786Y-18994214D02*
X13598214Y-18979929D01*
X13583928Y-18965643D01*
X13569643Y-18937072D01*
X13569643Y-18851357D01*
X13583928Y-18822786D01*
X13598214Y-18808500D01*
X13626786Y-18794214D01*
X13669643Y-18794214D01*
X13698214Y-18808500D01*
X13712500Y-18822786D01*
X13726786Y-18851357D01*
X13726786Y-18937072D01*
X13712500Y-18965643D01*
X13698214Y-18979929D01*
X13669643Y-18994214D01*
X13626786Y-18994214D01*
X13898214Y-18994214D02*
X13869643Y-18979929D01*
X13855357Y-18951357D01*
X13855357Y-18694214D01*
X14126786Y-18979929D02*
X14098214Y-18994214D01*
X14041071Y-18994214D01*
X14012500Y-18979929D01*
X13998214Y-18951357D01*
X13998214Y-18837072D01*
X14012500Y-18808500D01*
X14041071Y-18794214D01*
X14098214Y-18794214D01*
X14126786Y-18808500D01*
X14141071Y-18837072D01*
X14141071Y-18865643D01*
X13998214Y-18894214D01*
X14255357Y-18979929D02*
X14283928Y-18994214D01*
X14341071Y-18994214D01*
X14369643Y-18979929D01*
X14383928Y-18951357D01*
X14383928Y-18937072D01*
X14369643Y-18908500D01*
X14341071Y-18894214D01*
X14298214Y-18894214D01*
X14269643Y-18879929D01*
X14255357Y-18851357D01*
X14255357Y-18837072D01*
X14269643Y-18808500D01*
X14298214Y-18794214D01*
X14341071Y-18794214D01*
X14369643Y-18808500D01*
X14483928Y-19108500D02*
X14498214Y-19094214D01*
X14526786Y-19051357D01*
X14541071Y-19022786D01*
X14555357Y-18979929D01*
X14569643Y-18908500D01*
X14569643Y-18851357D01*
X14555357Y-18779929D01*
X14541071Y-18737072D01*
X14526786Y-18708500D01*
X14498214Y-18665643D01*
X14483928Y-18651357D01*
X7957500Y-19214500D02*
X7957500Y-19294500D01*
X7917500Y-19254500D02*
X7997500Y-19254500D01*
X8341071Y-19090214D02*
X8369643Y-19090214D01*
X8398214Y-19104500D01*
X8412500Y-19118786D01*
X8426786Y-19147357D01*
X8441071Y-19204500D01*
X8441071Y-19275929D01*
X8426786Y-19333072D01*
X8412500Y-19361643D01*
X8398214Y-19375929D01*
X8369643Y-19390214D01*
X8341071Y-19390214D01*
X8312500Y-19375929D01*
X8298214Y-19361643D01*
X8283928Y-19333072D01*
X8269643Y-19275929D01*
X8269643Y-19204500D01*
X8283928Y-19147357D01*
X8298214Y-19118786D01*
X8312500Y-19104500D01*
X8341071Y-19090214D01*
X8569643Y-19361643D02*
X8583928Y-19375929D01*
X8569643Y-19390214D01*
X8555357Y-19375929D01*
X8569643Y-19361643D01*
X8569643Y-19390214D01*
X8755357Y-19218786D02*
X8726786Y-19204500D01*
X8712500Y-19190214D01*
X8698214Y-19161643D01*
X8698214Y-19147357D01*
X8712500Y-19118786D01*
X8726786Y-19104500D01*
X8755357Y-19090214D01*
X8812500Y-19090214D01*
X8841071Y-19104500D01*
X8855357Y-19118786D01*
X8869643Y-19147357D01*
X8869643Y-19161643D01*
X8855357Y-19190214D01*
X8841071Y-19204500D01*
X8812500Y-19218786D01*
X8755357Y-19218786D01*
X8726786Y-19233072D01*
X8712500Y-19247357D01*
X8698214Y-19275929D01*
X8698214Y-19333072D01*
X8712500Y-19361643D01*
X8726786Y-19375929D01*
X8755357Y-19390214D01*
X8812500Y-19390214D01*
X8841071Y-19375929D01*
X8855357Y-19361643D01*
X8869643Y-19333072D01*
X8869643Y-19275929D01*
X8855357Y-19247357D01*
X8841071Y-19233072D01*
X8812500Y-19218786D01*
X9055357Y-19090214D02*
X9083928Y-19090214D01*
X9112500Y-19104500D01*
X9126786Y-19118786D01*
X9141071Y-19147357D01*
X9155357Y-19204500D01*
X9155357Y-19275929D01*
X9141071Y-19333072D01*
X9126786Y-19361643D01*
X9112500Y-19375929D01*
X9083928Y-19390214D01*
X9055357Y-19390214D01*
X9026786Y-19375929D01*
X9012500Y-19361643D01*
X8998214Y-19333072D01*
X8983928Y-19275929D01*
X8983928Y-19204500D01*
X8998214Y-19147357D01*
X9012500Y-19118786D01*
X9026786Y-19104500D01*
X9055357Y-19090214D01*
X9283928Y-19390214D02*
X9283928Y-19190214D01*
X9283928Y-19218786D02*
X9298214Y-19204500D01*
X9326786Y-19190214D01*
X9369643Y-19190214D01*
X9398214Y-19204500D01*
X9412500Y-19233072D01*
X9412500Y-19390214D01*
X9412500Y-19233072D02*
X9426786Y-19204500D01*
X9455357Y-19190214D01*
X9498214Y-19190214D01*
X9526786Y-19204500D01*
X9541071Y-19233072D01*
X9541071Y-19390214D01*
X9683928Y-19390214D02*
X9683928Y-19190214D01*
X9683928Y-19218786D02*
X9698214Y-19204500D01*
X9726786Y-19190214D01*
X9769643Y-19190214D01*
X9798214Y-19204500D01*
X9812500Y-19233072D01*
X9812500Y-19390214D01*
X9812500Y-19233072D02*
X9826786Y-19204500D01*
X9855357Y-19190214D01*
X9898214Y-19190214D01*
X9926786Y-19204500D01*
X9941071Y-19233072D01*
X9941071Y-19390214D01*
X10526786Y-19075929D02*
X10269643Y-19461643D01*
X10912500Y-19090214D02*
X10941071Y-19090214D01*
X10969643Y-19104500D01*
X10983928Y-19118786D01*
X10998214Y-19147357D01*
X11012500Y-19204500D01*
X11012500Y-19275929D01*
X10998214Y-19333072D01*
X10983928Y-19361643D01*
X10969643Y-19375929D01*
X10941071Y-19390214D01*
X10912500Y-19390214D01*
X10883928Y-19375929D01*
X10869643Y-19361643D01*
X10855357Y-19333072D01*
X10841071Y-19275929D01*
X10841071Y-19204500D01*
X10855357Y-19147357D01*
X10869643Y-19118786D01*
X10883928Y-19104500D01*
X10912500Y-19090214D01*
X11141071Y-19361643D02*
X11155357Y-19375929D01*
X11141071Y-19390214D01*
X11126786Y-19375929D01*
X11141071Y-19361643D01*
X11141071Y-19390214D01*
X11341071Y-19090214D02*
X11369643Y-19090214D01*
X11398214Y-19104500D01*
X11412500Y-19118786D01*
X11426786Y-19147357D01*
X11441071Y-19204500D01*
X11441071Y-19275929D01*
X11426786Y-19333072D01*
X11412500Y-19361643D01*
X11398214Y-19375929D01*
X11369643Y-19390214D01*
X11341071Y-19390214D01*
X11312500Y-19375929D01*
X11298214Y-19361643D01*
X11283928Y-19333072D01*
X11269643Y-19275929D01*
X11269643Y-19204500D01*
X11283928Y-19147357D01*
X11298214Y-19118786D01*
X11312500Y-19104500D01*
X11341071Y-19090214D01*
X11541071Y-19090214D02*
X11726786Y-19090214D01*
X11626786Y-19204500D01*
X11669643Y-19204500D01*
X11698214Y-19218786D01*
X11712500Y-19233072D01*
X11726786Y-19261643D01*
X11726786Y-19333072D01*
X11712500Y-19361643D01*
X11698214Y-19375929D01*
X11669643Y-19390214D01*
X11583928Y-19390214D01*
X11555357Y-19375929D01*
X11541071Y-19361643D01*
X12012500Y-19390214D02*
X11841071Y-19390214D01*
X11926786Y-19390214D02*
X11926786Y-19090214D01*
X11898214Y-19133072D01*
X11869643Y-19161643D01*
X11841071Y-19175929D01*
X12126786Y-19090214D02*
X12126786Y-19147357D01*
X12241071Y-19090214D02*
X12241071Y-19147357D01*
X12683928Y-19504500D02*
X12669643Y-19490214D01*
X12641071Y-19447357D01*
X12626786Y-19418786D01*
X12612500Y-19375929D01*
X12598214Y-19304500D01*
X12598214Y-19247357D01*
X12612500Y-19175929D01*
X12626786Y-19133072D01*
X12641071Y-19104500D01*
X12669643Y-19061643D01*
X12683928Y-19047357D01*
X12841071Y-19218786D02*
X12812500Y-19204500D01*
X12798214Y-19190214D01*
X12783928Y-19161643D01*
X12783928Y-19147357D01*
X12798214Y-19118786D01*
X12812500Y-19104500D01*
X12841071Y-19090214D01*
X12898214Y-19090214D01*
X12926786Y-19104500D01*
X12941071Y-19118786D01*
X12955357Y-19147357D01*
X12955357Y-19161643D01*
X12941071Y-19190214D01*
X12926786Y-19204500D01*
X12898214Y-19218786D01*
X12841071Y-19218786D01*
X12812500Y-19233072D01*
X12798214Y-19247357D01*
X12783928Y-19275929D01*
X12783928Y-19333072D01*
X12798214Y-19361643D01*
X12812500Y-19375929D01*
X12841071Y-19390214D01*
X12898214Y-19390214D01*
X12926786Y-19375929D01*
X12941071Y-19361643D01*
X12955357Y-19333072D01*
X12955357Y-19275929D01*
X12941071Y-19247357D01*
X12926786Y-19233072D01*
X12898214Y-19218786D01*
X13241071Y-19390214D02*
X13069643Y-19390214D01*
X13155357Y-19390214D02*
X13155357Y-19090214D01*
X13126786Y-19133072D01*
X13098214Y-19161643D01*
X13069643Y-19175929D01*
X13598214Y-19390214D02*
X13598214Y-19090214D01*
X13726786Y-19390214D02*
X13726786Y-19233072D01*
X13712500Y-19204500D01*
X13683928Y-19190214D01*
X13641071Y-19190214D01*
X13612500Y-19204500D01*
X13598214Y-19218786D01*
X13912500Y-19390214D02*
X13883928Y-19375929D01*
X13869643Y-19361643D01*
X13855357Y-19333072D01*
X13855357Y-19247357D01*
X13869643Y-19218786D01*
X13883928Y-19204500D01*
X13912500Y-19190214D01*
X13955357Y-19190214D01*
X13983928Y-19204500D01*
X13998214Y-19218786D01*
X14012500Y-19247357D01*
X14012500Y-19333072D01*
X13998214Y-19361643D01*
X13983928Y-19375929D01*
X13955357Y-19390214D01*
X13912500Y-19390214D01*
X14183928Y-19390214D02*
X14155357Y-19375929D01*
X14141071Y-19347357D01*
X14141071Y-19090214D01*
X14412500Y-19375929D02*
X14383928Y-19390214D01*
X14326786Y-19390214D01*
X14298214Y-19375929D01*
X14283928Y-19347357D01*
X14283928Y-19233072D01*
X14298214Y-19204500D01*
X14326786Y-19190214D01*
X14383928Y-19190214D01*
X14412500Y-19204500D01*
X14426786Y-19233072D01*
X14426786Y-19261643D01*
X14283928Y-19290214D01*
X14541071Y-19375929D02*
X14569643Y-19390214D01*
X14626786Y-19390214D01*
X14655357Y-19375929D01*
X14669643Y-19347357D01*
X14669643Y-19333072D01*
X14655357Y-19304500D01*
X14626786Y-19290214D01*
X14583928Y-19290214D01*
X14555357Y-19275929D01*
X14541071Y-19247357D01*
X14541071Y-19233072D01*
X14555357Y-19204500D01*
X14583928Y-19190214D01*
X14626786Y-19190214D01*
X14655357Y-19204500D01*
X14769643Y-19504500D02*
X14783928Y-19490214D01*
X14812500Y-19447357D01*
X14826786Y-19418786D01*
X14841071Y-19375929D01*
X14855357Y-19304500D01*
X14855357Y-19247357D01*
X14841071Y-19175929D01*
X14826786Y-19133072D01*
X14812500Y-19104500D01*
X14783928Y-19061643D01*
X14769643Y-19047357D01*
X7984320Y-19682320D02*
X7984320Y-19618680D01*
X7920680Y-19618680D01*
X7920680Y-19682320D01*
X7984320Y-19682320D01*
X8341071Y-19486214D02*
X8369643Y-19486214D01*
X8398214Y-19500500D01*
X8412500Y-19514786D01*
X8426786Y-19543357D01*
X8441071Y-19600500D01*
X8441071Y-19671929D01*
X8426786Y-19729072D01*
X8412500Y-19757643D01*
X8398214Y-19771929D01*
X8369643Y-19786214D01*
X8341071Y-19786214D01*
X8312500Y-19771929D01*
X8298214Y-19757643D01*
X8283928Y-19729072D01*
X8269643Y-19671929D01*
X8269643Y-19600500D01*
X8283928Y-19543357D01*
X8298214Y-19514786D01*
X8312500Y-19500500D01*
X8341071Y-19486214D01*
X8569643Y-19757643D02*
X8583928Y-19771929D01*
X8569643Y-19786214D01*
X8555357Y-19771929D01*
X8569643Y-19757643D01*
X8569643Y-19786214D01*
X8726786Y-19786214D02*
X8783928Y-19786214D01*
X8812500Y-19771929D01*
X8826786Y-19757643D01*
X8855357Y-19714786D01*
X8869643Y-19657643D01*
X8869643Y-19543357D01*
X8855357Y-19514786D01*
X8841071Y-19500500D01*
X8812500Y-19486214D01*
X8755357Y-19486214D01*
X8726786Y-19500500D01*
X8712500Y-19514786D01*
X8698214Y-19543357D01*
X8698214Y-19614786D01*
X8712500Y-19643357D01*
X8726786Y-19657643D01*
X8755357Y-19671929D01*
X8812500Y-19671929D01*
X8841071Y-19657643D01*
X8855357Y-19643357D01*
X8869643Y-19614786D01*
X9055357Y-19486214D02*
X9083928Y-19486214D01*
X9112500Y-19500500D01*
X9126786Y-19514786D01*
X9141071Y-19543357D01*
X9155357Y-19600500D01*
X9155357Y-19671929D01*
X9141071Y-19729072D01*
X9126786Y-19757643D01*
X9112500Y-19771929D01*
X9083928Y-19786214D01*
X9055357Y-19786214D01*
X9026786Y-19771929D01*
X9012500Y-19757643D01*
X8998214Y-19729072D01*
X8983928Y-19671929D01*
X8983928Y-19600500D01*
X8998214Y-19543357D01*
X9012500Y-19514786D01*
X9026786Y-19500500D01*
X9055357Y-19486214D01*
X9283928Y-19786214D02*
X9283928Y-19586214D01*
X9283928Y-19614786D02*
X9298214Y-19600500D01*
X9326786Y-19586214D01*
X9369643Y-19586214D01*
X9398214Y-19600500D01*
X9412500Y-19629072D01*
X9412500Y-19786214D01*
X9412500Y-19629072D02*
X9426786Y-19600500D01*
X9455357Y-19586214D01*
X9498214Y-19586214D01*
X9526786Y-19600500D01*
X9541071Y-19629072D01*
X9541071Y-19786214D01*
X9683928Y-19786214D02*
X9683928Y-19586214D01*
X9683928Y-19614786D02*
X9698214Y-19600500D01*
X9726786Y-19586214D01*
X9769643Y-19586214D01*
X9798214Y-19600500D01*
X9812500Y-19629072D01*
X9812500Y-19786214D01*
X9812500Y-19629072D02*
X9826786Y-19600500D01*
X9855357Y-19586214D01*
X9898214Y-19586214D01*
X9926786Y-19600500D01*
X9941071Y-19629072D01*
X9941071Y-19786214D01*
X10526786Y-19471929D02*
X10269643Y-19857643D01*
X10912500Y-19486214D02*
X10941071Y-19486214D01*
X10969643Y-19500500D01*
X10983928Y-19514786D01*
X10998214Y-19543357D01*
X11012500Y-19600500D01*
X11012500Y-19671929D01*
X10998214Y-19729072D01*
X10983928Y-19757643D01*
X10969643Y-19771929D01*
X10941071Y-19786214D01*
X10912500Y-19786214D01*
X10883928Y-19771929D01*
X10869643Y-19757643D01*
X10855357Y-19729072D01*
X10841071Y-19671929D01*
X10841071Y-19600500D01*
X10855357Y-19543357D01*
X10869643Y-19514786D01*
X10883928Y-19500500D01*
X10912500Y-19486214D01*
X11141071Y-19757643D02*
X11155357Y-19771929D01*
X11141071Y-19786214D01*
X11126786Y-19771929D01*
X11141071Y-19757643D01*
X11141071Y-19786214D01*
X11341071Y-19486214D02*
X11369643Y-19486214D01*
X11398214Y-19500500D01*
X11412500Y-19514786D01*
X11426786Y-19543357D01*
X11441071Y-19600500D01*
X11441071Y-19671929D01*
X11426786Y-19729072D01*
X11412500Y-19757643D01*
X11398214Y-19771929D01*
X11369643Y-19786214D01*
X11341071Y-19786214D01*
X11312500Y-19771929D01*
X11298214Y-19757643D01*
X11283928Y-19729072D01*
X11269643Y-19671929D01*
X11269643Y-19600500D01*
X11283928Y-19543357D01*
X11298214Y-19514786D01*
X11312500Y-19500500D01*
X11341071Y-19486214D01*
X11541071Y-19486214D02*
X11726786Y-19486214D01*
X11626786Y-19600500D01*
X11669643Y-19600500D01*
X11698214Y-19614786D01*
X11712500Y-19629072D01*
X11726786Y-19657643D01*
X11726786Y-19729072D01*
X11712500Y-19757643D01*
X11698214Y-19771929D01*
X11669643Y-19786214D01*
X11583928Y-19786214D01*
X11555357Y-19771929D01*
X11541071Y-19757643D01*
X11998214Y-19486214D02*
X11855357Y-19486214D01*
X11841071Y-19629072D01*
X11855357Y-19614786D01*
X11883928Y-19600500D01*
X11955357Y-19600500D01*
X11983928Y-19614786D01*
X11998214Y-19629072D01*
X12012500Y-19657643D01*
X12012500Y-19729072D01*
X11998214Y-19757643D01*
X11983928Y-19771929D01*
X11955357Y-19786214D01*
X11883928Y-19786214D01*
X11855357Y-19771929D01*
X11841071Y-19757643D01*
X12126786Y-19486214D02*
X12126786Y-19543357D01*
X12241071Y-19486214D02*
X12241071Y-19543357D01*
X12683928Y-19900500D02*
X12669643Y-19886214D01*
X12641071Y-19843357D01*
X12626786Y-19814786D01*
X12612500Y-19771929D01*
X12598214Y-19700500D01*
X12598214Y-19643357D01*
X12612500Y-19571929D01*
X12626786Y-19529072D01*
X12641071Y-19500500D01*
X12669643Y-19457643D01*
X12683928Y-19443357D01*
X12783928Y-19514786D02*
X12798214Y-19500500D01*
X12826786Y-19486214D01*
X12898214Y-19486214D01*
X12926786Y-19500500D01*
X12941071Y-19514786D01*
X12955357Y-19543357D01*
X12955357Y-19571929D01*
X12941071Y-19614786D01*
X12769643Y-19786214D01*
X12955357Y-19786214D01*
X13212500Y-19586214D02*
X13212500Y-19786214D01*
X13141071Y-19471929D02*
X13069643Y-19686214D01*
X13255357Y-19686214D01*
X13598214Y-19786214D02*
X13598214Y-19486214D01*
X13726786Y-19786214D02*
X13726786Y-19629072D01*
X13712500Y-19600500D01*
X13683928Y-19586214D01*
X13641071Y-19586214D01*
X13612500Y-19600500D01*
X13598214Y-19614786D01*
X13912500Y-19786214D02*
X13883928Y-19771929D01*
X13869643Y-19757643D01*
X13855357Y-19729072D01*
X13855357Y-19643357D01*
X13869643Y-19614786D01*
X13883928Y-19600500D01*
X13912500Y-19586214D01*
X13955357Y-19586214D01*
X13983928Y-19600500D01*
X13998214Y-19614786D01*
X14012500Y-19643357D01*
X14012500Y-19729072D01*
X13998214Y-19757643D01*
X13983928Y-19771929D01*
X13955357Y-19786214D01*
X13912500Y-19786214D01*
X14183928Y-19786214D02*
X14155357Y-19771929D01*
X14141071Y-19743357D01*
X14141071Y-19486214D01*
X14412500Y-19771929D02*
X14383928Y-19786214D01*
X14326786Y-19786214D01*
X14298214Y-19771929D01*
X14283928Y-19743357D01*
X14283928Y-19629072D01*
X14298214Y-19600500D01*
X14326786Y-19586214D01*
X14383928Y-19586214D01*
X14412500Y-19600500D01*
X14426786Y-19629072D01*
X14426786Y-19657643D01*
X14283928Y-19686214D01*
X14541071Y-19771929D02*
X14569643Y-19786214D01*
X14626786Y-19786214D01*
X14655357Y-19771929D01*
X14669643Y-19743357D01*
X14669643Y-19729072D01*
X14655357Y-19700500D01*
X14626786Y-19686214D01*
X14583928Y-19686214D01*
X14555357Y-19671929D01*
X14541071Y-19643357D01*
X14541071Y-19629072D01*
X14555357Y-19600500D01*
X14583928Y-19586214D01*
X14626786Y-19586214D01*
X14655357Y-19600500D01*
X14769643Y-19900500D02*
X14783928Y-19886214D01*
X14812500Y-19843357D01*
X14826786Y-19814786D01*
X14841071Y-19771929D01*
X14855357Y-19700500D01*
X14855357Y-19643357D01*
X14841071Y-19571929D01*
X14826786Y-19529072D01*
X14812500Y-19500500D01*
X14783928Y-19457643D01*
X14769643Y-19443357D01*
X7947500Y-20096500D02*
X7997500Y-20046500D01*
X7947500Y-19996500D01*
X7897500Y-20046500D01*
X7947500Y-20096500D01*
X8441071Y-20182214D02*
X8269643Y-20182214D01*
X8355357Y-20182214D02*
X8355357Y-19882214D01*
X8326786Y-19925072D01*
X8298214Y-19953643D01*
X8269643Y-19967929D01*
X8569643Y-20153643D02*
X8583928Y-20167929D01*
X8569643Y-20182214D01*
X8555357Y-20167929D01*
X8569643Y-20153643D01*
X8569643Y-20182214D01*
X8769643Y-19882214D02*
X8798214Y-19882214D01*
X8826786Y-19896500D01*
X8841071Y-19910786D01*
X8855357Y-19939357D01*
X8869643Y-19996500D01*
X8869643Y-20067929D01*
X8855357Y-20125072D01*
X8841071Y-20153643D01*
X8826786Y-20167929D01*
X8798214Y-20182214D01*
X8769643Y-20182214D01*
X8741071Y-20167929D01*
X8726786Y-20153643D01*
X8712500Y-20125072D01*
X8698214Y-20067929D01*
X8698214Y-19996500D01*
X8712500Y-19939357D01*
X8726786Y-19910786D01*
X8741071Y-19896500D01*
X8769643Y-19882214D01*
X9055357Y-19882214D02*
X9083928Y-19882214D01*
X9112500Y-19896500D01*
X9126786Y-19910786D01*
X9141071Y-19939357D01*
X9155357Y-19996500D01*
X9155357Y-20067929D01*
X9141071Y-20125072D01*
X9126786Y-20153643D01*
X9112500Y-20167929D01*
X9083928Y-20182214D01*
X9055357Y-20182214D01*
X9026786Y-20167929D01*
X9012500Y-20153643D01*
X8998214Y-20125072D01*
X8983928Y-20067929D01*
X8983928Y-19996500D01*
X8998214Y-19939357D01*
X9012500Y-19910786D01*
X9026786Y-19896500D01*
X9055357Y-19882214D01*
X9283928Y-20182214D02*
X9283928Y-19982214D01*
X9283928Y-20010786D02*
X9298214Y-19996500D01*
X9326786Y-19982214D01*
X9369643Y-19982214D01*
X9398214Y-19996500D01*
X9412500Y-20025072D01*
X9412500Y-20182214D01*
X9412500Y-20025072D02*
X9426786Y-19996500D01*
X9455357Y-19982214D01*
X9498214Y-19982214D01*
X9526786Y-19996500D01*
X9541071Y-20025072D01*
X9541071Y-20182214D01*
X9683928Y-20182214D02*
X9683928Y-19982214D01*
X9683928Y-20010786D02*
X9698214Y-19996500D01*
X9726786Y-19982214D01*
X9769643Y-19982214D01*
X9798214Y-19996500D01*
X9812500Y-20025072D01*
X9812500Y-20182214D01*
X9812500Y-20025072D02*
X9826786Y-19996500D01*
X9855357Y-19982214D01*
X9898214Y-19982214D01*
X9926786Y-19996500D01*
X9941071Y-20025072D01*
X9941071Y-20182214D01*
X10526786Y-19867929D02*
X10269643Y-20253643D01*
X10912500Y-19882214D02*
X10941071Y-19882214D01*
X10969643Y-19896500D01*
X10983928Y-19910786D01*
X10998214Y-19939357D01*
X11012500Y-19996500D01*
X11012500Y-20067929D01*
X10998214Y-20125072D01*
X10983928Y-20153643D01*
X10969643Y-20167929D01*
X10941071Y-20182214D01*
X10912500Y-20182214D01*
X10883928Y-20167929D01*
X10869643Y-20153643D01*
X10855357Y-20125072D01*
X10841071Y-20067929D01*
X10841071Y-19996500D01*
X10855357Y-19939357D01*
X10869643Y-19910786D01*
X10883928Y-19896500D01*
X10912500Y-19882214D01*
X11141071Y-20153643D02*
X11155357Y-20167929D01*
X11141071Y-20182214D01*
X11126786Y-20167929D01*
X11141071Y-20153643D01*
X11141071Y-20182214D01*
X11341071Y-19882214D02*
X11369643Y-19882214D01*
X11398214Y-19896500D01*
X11412500Y-19910786D01*
X11426786Y-19939357D01*
X11441071Y-19996500D01*
X11441071Y-20067929D01*
X11426786Y-20125072D01*
X11412500Y-20153643D01*
X11398214Y-20167929D01*
X11369643Y-20182214D01*
X11341071Y-20182214D01*
X11312500Y-20167929D01*
X11298214Y-20153643D01*
X11283928Y-20125072D01*
X11269643Y-20067929D01*
X11269643Y-19996500D01*
X11283928Y-19939357D01*
X11298214Y-19910786D01*
X11312500Y-19896500D01*
X11341071Y-19882214D01*
X11541071Y-19882214D02*
X11726786Y-19882214D01*
X11626786Y-19996500D01*
X11669643Y-19996500D01*
X11698214Y-20010786D01*
X11712500Y-20025072D01*
X11726786Y-20053643D01*
X11726786Y-20125072D01*
X11712500Y-20153643D01*
X11698214Y-20167929D01*
X11669643Y-20182214D01*
X11583928Y-20182214D01*
X11555357Y-20167929D01*
X11541071Y-20153643D01*
X11869643Y-20182214D02*
X11926786Y-20182214D01*
X11955357Y-20167929D01*
X11969643Y-20153643D01*
X11998214Y-20110786D01*
X12012500Y-20053643D01*
X12012500Y-19939357D01*
X11998214Y-19910786D01*
X11983928Y-19896500D01*
X11955357Y-19882214D01*
X11898214Y-19882214D01*
X11869643Y-19896500D01*
X11855357Y-19910786D01*
X11841071Y-19939357D01*
X11841071Y-20010786D01*
X11855357Y-20039357D01*
X11869643Y-20053643D01*
X11898214Y-20067929D01*
X11955357Y-20067929D01*
X11983928Y-20053643D01*
X11998214Y-20039357D01*
X12012500Y-20010786D01*
X12126786Y-19882214D02*
X12126786Y-19939357D01*
X12241071Y-19882214D02*
X12241071Y-19939357D01*
X12683928Y-20296500D02*
X12669643Y-20282214D01*
X12641071Y-20239357D01*
X12626786Y-20210786D01*
X12612500Y-20167929D01*
X12598214Y-20096500D01*
X12598214Y-20039357D01*
X12612500Y-19967929D01*
X12626786Y-19925072D01*
X12641071Y-19896500D01*
X12669643Y-19853643D01*
X12683928Y-19839357D01*
X12769643Y-19882214D02*
X12955357Y-19882214D01*
X12855357Y-19996500D01*
X12898214Y-19996500D01*
X12926786Y-20010786D01*
X12941071Y-20025072D01*
X12955357Y-20053643D01*
X12955357Y-20125072D01*
X12941071Y-20153643D01*
X12926786Y-20167929D01*
X12898214Y-20182214D01*
X12812500Y-20182214D01*
X12783928Y-20167929D01*
X12769643Y-20153643D01*
X13312500Y-20182214D02*
X13312500Y-19882214D01*
X13441071Y-20182214D02*
X13441071Y-20025072D01*
X13426786Y-19996500D01*
X13398214Y-19982214D01*
X13355357Y-19982214D01*
X13326786Y-19996500D01*
X13312500Y-20010786D01*
X13626786Y-20182214D02*
X13598214Y-20167929D01*
X13583928Y-20153643D01*
X13569643Y-20125072D01*
X13569643Y-20039357D01*
X13583928Y-20010786D01*
X13598214Y-19996500D01*
X13626786Y-19982214D01*
X13669643Y-19982214D01*
X13698214Y-19996500D01*
X13712500Y-20010786D01*
X13726786Y-20039357D01*
X13726786Y-20125072D01*
X13712500Y-20153643D01*
X13698214Y-20167929D01*
X13669643Y-20182214D01*
X13626786Y-20182214D01*
X13898214Y-20182214D02*
X13869643Y-20167929D01*
X13855357Y-20139357D01*
X13855357Y-19882214D01*
X14126786Y-20167929D02*
X14098214Y-20182214D01*
X14041071Y-20182214D01*
X14012500Y-20167929D01*
X13998214Y-20139357D01*
X13998214Y-20025072D01*
X14012500Y-19996500D01*
X14041071Y-19982214D01*
X14098214Y-19982214D01*
X14126786Y-19996500D01*
X14141071Y-20025072D01*
X14141071Y-20053643D01*
X13998214Y-20082214D01*
X14255357Y-20167929D02*
X14283928Y-20182214D01*
X14341071Y-20182214D01*
X14369643Y-20167929D01*
X14383928Y-20139357D01*
X14383928Y-20125072D01*
X14369643Y-20096500D01*
X14341071Y-20082214D01*
X14298214Y-20082214D01*
X14269643Y-20067929D01*
X14255357Y-20039357D01*
X14255357Y-20025072D01*
X14269643Y-19996500D01*
X14298214Y-19982214D01*
X14341071Y-19982214D01*
X14369643Y-19996500D01*
X14483928Y-20296500D02*
X14498214Y-20282214D01*
X14526786Y-20239357D01*
X14541071Y-20210786D01*
X14555357Y-20167929D01*
X14569643Y-20096500D01*
X14569643Y-20039357D01*
X14555357Y-19967929D01*
X14541071Y-19925072D01*
X14526786Y-19896500D01*
X14498214Y-19853643D01*
X14483928Y-19839357D01*
X7887500Y-20387500D02*
X7997500Y-20497500D01*
X7997500Y-20387500D02*
X7887500Y-20497500D01*
X7997500Y-20442500D02*
G75*
G03*
X7997500Y-20442500I-55000J0D01*
G01*
X8441071Y-20578214D02*
X8269643Y-20578214D01*
X8355357Y-20578214D02*
X8355357Y-20278214D01*
X8326786Y-20321072D01*
X8298214Y-20349643D01*
X8269643Y-20363929D01*
X8569643Y-20549643D02*
X8583928Y-20563929D01*
X8569643Y-20578214D01*
X8555357Y-20563929D01*
X8569643Y-20549643D01*
X8569643Y-20578214D01*
X8869643Y-20578214D02*
X8698214Y-20578214D01*
X8783928Y-20578214D02*
X8783928Y-20278214D01*
X8755357Y-20321072D01*
X8726786Y-20349643D01*
X8698214Y-20363929D01*
X9055357Y-20278214D02*
X9083928Y-20278214D01*
X9112500Y-20292500D01*
X9126786Y-20306786D01*
X9141071Y-20335357D01*
X9155357Y-20392500D01*
X9155357Y-20463929D01*
X9141071Y-20521072D01*
X9126786Y-20549643D01*
X9112500Y-20563929D01*
X9083928Y-20578214D01*
X9055357Y-20578214D01*
X9026786Y-20563929D01*
X9012500Y-20549643D01*
X8998214Y-20521072D01*
X8983928Y-20463929D01*
X8983928Y-20392500D01*
X8998214Y-20335357D01*
X9012500Y-20306786D01*
X9026786Y-20292500D01*
X9055357Y-20278214D01*
X9283928Y-20578214D02*
X9283928Y-20378214D01*
X9283928Y-20406786D02*
X9298214Y-20392500D01*
X9326786Y-20378214D01*
X9369643Y-20378214D01*
X9398214Y-20392500D01*
X9412500Y-20421072D01*
X9412500Y-20578214D01*
X9412500Y-20421072D02*
X9426786Y-20392500D01*
X9455357Y-20378214D01*
X9498214Y-20378214D01*
X9526786Y-20392500D01*
X9541071Y-20421072D01*
X9541071Y-20578214D01*
X9683928Y-20578214D02*
X9683928Y-20378214D01*
X9683928Y-20406786D02*
X9698214Y-20392500D01*
X9726786Y-20378214D01*
X9769643Y-20378214D01*
X9798214Y-20392500D01*
X9812500Y-20421072D01*
X9812500Y-20578214D01*
X9812500Y-20421072D02*
X9826786Y-20392500D01*
X9855357Y-20378214D01*
X9898214Y-20378214D01*
X9926786Y-20392500D01*
X9941071Y-20421072D01*
X9941071Y-20578214D01*
X10526786Y-20263929D02*
X10269643Y-20649643D01*
X10912500Y-20278214D02*
X10941071Y-20278214D01*
X10969643Y-20292500D01*
X10983928Y-20306786D01*
X10998214Y-20335357D01*
X11012500Y-20392500D01*
X11012500Y-20463929D01*
X10998214Y-20521072D01*
X10983928Y-20549643D01*
X10969643Y-20563929D01*
X10941071Y-20578214D01*
X10912500Y-20578214D01*
X10883928Y-20563929D01*
X10869643Y-20549643D01*
X10855357Y-20521072D01*
X10841071Y-20463929D01*
X10841071Y-20392500D01*
X10855357Y-20335357D01*
X10869643Y-20306786D01*
X10883928Y-20292500D01*
X10912500Y-20278214D01*
X11141071Y-20549643D02*
X11155357Y-20563929D01*
X11141071Y-20578214D01*
X11126786Y-20563929D01*
X11141071Y-20549643D01*
X11141071Y-20578214D01*
X11341071Y-20278214D02*
X11369643Y-20278214D01*
X11398214Y-20292500D01*
X11412500Y-20306786D01*
X11426786Y-20335357D01*
X11441071Y-20392500D01*
X11441071Y-20463929D01*
X11426786Y-20521072D01*
X11412500Y-20549643D01*
X11398214Y-20563929D01*
X11369643Y-20578214D01*
X11341071Y-20578214D01*
X11312500Y-20563929D01*
X11298214Y-20549643D01*
X11283928Y-20521072D01*
X11269643Y-20463929D01*
X11269643Y-20392500D01*
X11283928Y-20335357D01*
X11298214Y-20306786D01*
X11312500Y-20292500D01*
X11341071Y-20278214D01*
X11698214Y-20378214D02*
X11698214Y-20578214D01*
X11626786Y-20263929D02*
X11555357Y-20478214D01*
X11741071Y-20478214D01*
X11826786Y-20278214D02*
X12012500Y-20278214D01*
X11912500Y-20392500D01*
X11955357Y-20392500D01*
X11983928Y-20406786D01*
X11998214Y-20421072D01*
X12012500Y-20449643D01*
X12012500Y-20521072D01*
X11998214Y-20549643D01*
X11983928Y-20563929D01*
X11955357Y-20578214D01*
X11869643Y-20578214D01*
X11841071Y-20563929D01*
X11826786Y-20549643D01*
X12126786Y-20278214D02*
X12126786Y-20335357D01*
X12241071Y-20278214D02*
X12241071Y-20335357D01*
X12683928Y-20692500D02*
X12669643Y-20678214D01*
X12641071Y-20635357D01*
X12626786Y-20606786D01*
X12612500Y-20563929D01*
X12598214Y-20492500D01*
X12598214Y-20435357D01*
X12612500Y-20363929D01*
X12626786Y-20321072D01*
X12641071Y-20292500D01*
X12669643Y-20249643D01*
X12683928Y-20235357D01*
X12841071Y-20406786D02*
X12812500Y-20392500D01*
X12798214Y-20378214D01*
X12783928Y-20349643D01*
X12783928Y-20335357D01*
X12798214Y-20306786D01*
X12812500Y-20292500D01*
X12841071Y-20278214D01*
X12898214Y-20278214D01*
X12926786Y-20292500D01*
X12941071Y-20306786D01*
X12955357Y-20335357D01*
X12955357Y-20349643D01*
X12941071Y-20378214D01*
X12926786Y-20392500D01*
X12898214Y-20406786D01*
X12841071Y-20406786D01*
X12812500Y-20421072D01*
X12798214Y-20435357D01*
X12783928Y-20463929D01*
X12783928Y-20521072D01*
X12798214Y-20549643D01*
X12812500Y-20563929D01*
X12841071Y-20578214D01*
X12898214Y-20578214D01*
X12926786Y-20563929D01*
X12941071Y-20549643D01*
X12955357Y-20521072D01*
X12955357Y-20463929D01*
X12941071Y-20435357D01*
X12926786Y-20421072D01*
X12898214Y-20406786D01*
X13312500Y-20578214D02*
X13312500Y-20278214D01*
X13441071Y-20578214D02*
X13441071Y-20421072D01*
X13426786Y-20392500D01*
X13398214Y-20378214D01*
X13355357Y-20378214D01*
X13326786Y-20392500D01*
X13312500Y-20406786D01*
X13626786Y-20578214D02*
X13598214Y-20563929D01*
X13583928Y-20549643D01*
X13569643Y-20521072D01*
X13569643Y-20435357D01*
X13583928Y-20406786D01*
X13598214Y-20392500D01*
X13626786Y-20378214D01*
X13669643Y-20378214D01*
X13698214Y-20392500D01*
X13712500Y-20406786D01*
X13726786Y-20435357D01*
X13726786Y-20521072D01*
X13712500Y-20549643D01*
X13698214Y-20563929D01*
X13669643Y-20578214D01*
X13626786Y-20578214D01*
X13898214Y-20578214D02*
X13869643Y-20563929D01*
X13855357Y-20535357D01*
X13855357Y-20278214D01*
X14126786Y-20563929D02*
X14098214Y-20578214D01*
X14041071Y-20578214D01*
X14012500Y-20563929D01*
X13998214Y-20535357D01*
X13998214Y-20421072D01*
X14012500Y-20392500D01*
X14041071Y-20378214D01*
X14098214Y-20378214D01*
X14126786Y-20392500D01*
X14141071Y-20421072D01*
X14141071Y-20449643D01*
X13998214Y-20478214D01*
X14255357Y-20563929D02*
X14283928Y-20578214D01*
X14341071Y-20578214D01*
X14369643Y-20563929D01*
X14383928Y-20535357D01*
X14383928Y-20521072D01*
X14369643Y-20492500D01*
X14341071Y-20478214D01*
X14298214Y-20478214D01*
X14269643Y-20463929D01*
X14255357Y-20435357D01*
X14255357Y-20421072D01*
X14269643Y-20392500D01*
X14298214Y-20378214D01*
X14341071Y-20378214D01*
X14369643Y-20392500D01*
X14483928Y-20692500D02*
X14498214Y-20678214D01*
X14526786Y-20635357D01*
X14541071Y-20606786D01*
X14555357Y-20563929D01*
X14569643Y-20492500D01*
X14569643Y-20435357D01*
X14555357Y-20363929D01*
X14541071Y-20321072D01*
X14526786Y-20292500D01*
X14498214Y-20249643D01*
X14483928Y-20235357D01*
M02*
