%FSLAX45Y45*%
G04 Gerber Fmt 4.5, Leading zero omitted, Abs format (unit mm)*
G04 Created by KiCad (PCBNEW 5.1.8-db9833491~87~ubuntu18.04.1) date 2020-11-23 07:54:48*
%MOMM*%
%LPD*%
G01*
G04 APERTURE LIST*
%TA.AperFunction,Profile*%
%ADD10C,0.050000*%
%TD*%
%ADD11C,0.200000*%
%ADD12C,0.300000*%
G04 APERTURE END LIST*
D10*
X17000000Y-3000000D02*
X8000000Y-3000000D01*
X17000000Y-17500000D02*
X17000000Y-3000000D01*
X8000000Y-17500000D02*
X17000000Y-17500000D01*
X8000000Y-3000000D02*
X8000000Y-17500000D01*
D11*
X15550000Y-6975000D02*
X15750000Y-7175000D01*
X15750000Y-6975000D02*
X15550000Y-7175000D01*
X15550000Y-7925000D02*
X15750000Y-8125000D01*
X15750000Y-7925000D02*
X15550000Y-8125000D01*
X9250000Y-17200000D02*
G75*
G03*
X9250000Y-17200000I-150000J0D01*
G01*
X16050000Y-17200000D02*
G75*
G03*
X16050000Y-17200000I-150000J0D01*
G01*
X16700000Y-17000000D02*
X16700000Y-17400000D01*
X16500000Y-17200000D02*
X16900000Y-17200000D01*
X8300000Y-17000000D02*
X8300000Y-17400000D01*
X8100000Y-17200000D02*
X8500000Y-17200000D01*
D12*
X8283928Y-17968214D02*
X8283928Y-17668214D01*
X8355357Y-17668214D01*
X8398214Y-17682500D01*
X8426786Y-17711072D01*
X8441071Y-17739643D01*
X8455357Y-17796786D01*
X8455357Y-17839643D01*
X8441071Y-17896786D01*
X8426786Y-17925357D01*
X8398214Y-17953929D01*
X8355357Y-17968214D01*
X8283928Y-17968214D01*
X8583928Y-17968214D02*
X8583928Y-17768214D01*
X8583928Y-17825357D02*
X8598214Y-17796786D01*
X8612500Y-17782500D01*
X8641071Y-17768214D01*
X8669643Y-17768214D01*
X8769643Y-17968214D02*
X8769643Y-17768214D01*
X8769643Y-17668214D02*
X8755357Y-17682500D01*
X8769643Y-17696786D01*
X8783928Y-17682500D01*
X8769643Y-17668214D01*
X8769643Y-17696786D01*
X8955357Y-17968214D02*
X8926786Y-17953929D01*
X8912500Y-17925357D01*
X8912500Y-17668214D01*
X9112500Y-17968214D02*
X9083928Y-17953929D01*
X9069643Y-17925357D01*
X9069643Y-17668214D01*
X9455357Y-17968214D02*
X9455357Y-17668214D01*
X9555357Y-17882500D01*
X9655357Y-17668214D01*
X9655357Y-17968214D01*
X9926786Y-17968214D02*
X9926786Y-17811072D01*
X9912500Y-17782500D01*
X9883928Y-17768214D01*
X9826786Y-17768214D01*
X9798214Y-17782500D01*
X9926786Y-17953929D02*
X9898214Y-17968214D01*
X9826786Y-17968214D01*
X9798214Y-17953929D01*
X9783928Y-17925357D01*
X9783928Y-17896786D01*
X9798214Y-17868214D01*
X9826786Y-17853929D01*
X9898214Y-17853929D01*
X9926786Y-17839643D01*
X10069643Y-17768214D02*
X10069643Y-18068214D01*
X10069643Y-17782500D02*
X10098214Y-17768214D01*
X10155357Y-17768214D01*
X10183928Y-17782500D01*
X10198214Y-17796786D01*
X10212500Y-17825357D01*
X10212500Y-17911072D01*
X10198214Y-17939643D01*
X10183928Y-17953929D01*
X10155357Y-17968214D01*
X10098214Y-17968214D01*
X10069643Y-17953929D01*
X10341071Y-17939643D02*
X10355357Y-17953929D01*
X10341071Y-17968214D01*
X10326786Y-17953929D01*
X10341071Y-17939643D01*
X10341071Y-17968214D01*
X10341071Y-17782500D02*
X10355357Y-17796786D01*
X10341071Y-17811072D01*
X10326786Y-17796786D01*
X10341071Y-17782500D01*
X10341071Y-17811072D01*
X7797500Y-18362500D02*
X7997500Y-18562500D01*
X7997500Y-18362500D02*
X7797500Y-18562500D01*
X8269643Y-18326786D02*
X8283928Y-18312500D01*
X8312500Y-18298214D01*
X8383928Y-18298214D01*
X8412500Y-18312500D01*
X8426786Y-18326786D01*
X8441071Y-18355357D01*
X8441071Y-18383929D01*
X8426786Y-18426786D01*
X8255357Y-18598214D01*
X8441071Y-18598214D01*
X8569643Y-18569643D02*
X8583928Y-18583929D01*
X8569643Y-18598214D01*
X8555357Y-18583929D01*
X8569643Y-18569643D01*
X8569643Y-18598214D01*
X8769643Y-18298214D02*
X8798214Y-18298214D01*
X8826786Y-18312500D01*
X8841071Y-18326786D01*
X8855357Y-18355357D01*
X8869643Y-18412500D01*
X8869643Y-18483929D01*
X8855357Y-18541072D01*
X8841071Y-18569643D01*
X8826786Y-18583929D01*
X8798214Y-18598214D01*
X8769643Y-18598214D01*
X8741071Y-18583929D01*
X8726786Y-18569643D01*
X8712500Y-18541072D01*
X8698214Y-18483929D01*
X8698214Y-18412500D01*
X8712500Y-18355357D01*
X8726786Y-18326786D01*
X8741071Y-18312500D01*
X8769643Y-18298214D01*
X9055357Y-18298214D02*
X9083928Y-18298214D01*
X9112500Y-18312500D01*
X9126786Y-18326786D01*
X9141071Y-18355357D01*
X9155357Y-18412500D01*
X9155357Y-18483929D01*
X9141071Y-18541072D01*
X9126786Y-18569643D01*
X9112500Y-18583929D01*
X9083928Y-18598214D01*
X9055357Y-18598214D01*
X9026786Y-18583929D01*
X9012500Y-18569643D01*
X8998214Y-18541072D01*
X8983928Y-18483929D01*
X8983928Y-18412500D01*
X8998214Y-18355357D01*
X9012500Y-18326786D01*
X9026786Y-18312500D01*
X9055357Y-18298214D01*
X9283928Y-18598214D02*
X9283928Y-18398214D01*
X9283928Y-18426786D02*
X9298214Y-18412500D01*
X9326786Y-18398214D01*
X9369643Y-18398214D01*
X9398214Y-18412500D01*
X9412500Y-18441072D01*
X9412500Y-18598214D01*
X9412500Y-18441072D02*
X9426786Y-18412500D01*
X9455357Y-18398214D01*
X9498214Y-18398214D01*
X9526786Y-18412500D01*
X9541071Y-18441072D01*
X9541071Y-18598214D01*
X9683928Y-18598214D02*
X9683928Y-18398214D01*
X9683928Y-18426786D02*
X9698214Y-18412500D01*
X9726786Y-18398214D01*
X9769643Y-18398214D01*
X9798214Y-18412500D01*
X9812500Y-18441072D01*
X9812500Y-18598214D01*
X9812500Y-18441072D02*
X9826786Y-18412500D01*
X9855357Y-18398214D01*
X9898214Y-18398214D01*
X9926786Y-18412500D01*
X9941071Y-18441072D01*
X9941071Y-18598214D01*
X10526786Y-18283929D02*
X10269643Y-18669643D01*
X10912500Y-18298214D02*
X10941071Y-18298214D01*
X10969643Y-18312500D01*
X10983928Y-18326786D01*
X10998214Y-18355357D01*
X11012500Y-18412500D01*
X11012500Y-18483929D01*
X10998214Y-18541072D01*
X10983928Y-18569643D01*
X10969643Y-18583929D01*
X10941071Y-18598214D01*
X10912500Y-18598214D01*
X10883928Y-18583929D01*
X10869643Y-18569643D01*
X10855357Y-18541072D01*
X10841071Y-18483929D01*
X10841071Y-18412500D01*
X10855357Y-18355357D01*
X10869643Y-18326786D01*
X10883928Y-18312500D01*
X10912500Y-18298214D01*
X11141071Y-18569643D02*
X11155357Y-18583929D01*
X11141071Y-18598214D01*
X11126786Y-18583929D01*
X11141071Y-18569643D01*
X11141071Y-18598214D01*
X11341071Y-18298214D02*
X11369643Y-18298214D01*
X11398214Y-18312500D01*
X11412500Y-18326786D01*
X11426786Y-18355357D01*
X11441071Y-18412500D01*
X11441071Y-18483929D01*
X11426786Y-18541072D01*
X11412500Y-18569643D01*
X11398214Y-18583929D01*
X11369643Y-18598214D01*
X11341071Y-18598214D01*
X11312500Y-18583929D01*
X11298214Y-18569643D01*
X11283928Y-18541072D01*
X11269643Y-18483929D01*
X11269643Y-18412500D01*
X11283928Y-18355357D01*
X11298214Y-18326786D01*
X11312500Y-18312500D01*
X11341071Y-18298214D01*
X11541071Y-18298214D02*
X11741071Y-18298214D01*
X11612500Y-18598214D01*
X11869643Y-18598214D02*
X11926786Y-18598214D01*
X11955357Y-18583929D01*
X11969643Y-18569643D01*
X11998214Y-18526786D01*
X12012500Y-18469643D01*
X12012500Y-18355357D01*
X11998214Y-18326786D01*
X11983928Y-18312500D01*
X11955357Y-18298214D01*
X11898214Y-18298214D01*
X11869643Y-18312500D01*
X11855357Y-18326786D01*
X11841071Y-18355357D01*
X11841071Y-18426786D01*
X11855357Y-18455357D01*
X11869643Y-18469643D01*
X11898214Y-18483929D01*
X11955357Y-18483929D01*
X11983928Y-18469643D01*
X11998214Y-18455357D01*
X12012500Y-18426786D01*
X12126786Y-18298214D02*
X12126786Y-18355357D01*
X12241071Y-18298214D02*
X12241071Y-18355357D01*
X12683928Y-18712500D02*
X12669643Y-18698214D01*
X12641071Y-18655357D01*
X12626786Y-18626786D01*
X12612500Y-18583929D01*
X12598214Y-18512500D01*
X12598214Y-18455357D01*
X12612500Y-18383929D01*
X12626786Y-18341072D01*
X12641071Y-18312500D01*
X12669643Y-18269643D01*
X12683928Y-18255357D01*
X12783928Y-18326786D02*
X12798214Y-18312500D01*
X12826786Y-18298214D01*
X12898214Y-18298214D01*
X12926786Y-18312500D01*
X12941071Y-18326786D01*
X12955357Y-18355357D01*
X12955357Y-18383929D01*
X12941071Y-18426786D01*
X12769643Y-18598214D01*
X12955357Y-18598214D01*
X13312500Y-18598214D02*
X13312500Y-18298214D01*
X13441071Y-18598214D02*
X13441071Y-18441072D01*
X13426786Y-18412500D01*
X13398214Y-18398214D01*
X13355357Y-18398214D01*
X13326786Y-18412500D01*
X13312500Y-18426786D01*
X13626786Y-18598214D02*
X13598214Y-18583929D01*
X13583928Y-18569643D01*
X13569643Y-18541072D01*
X13569643Y-18455357D01*
X13583928Y-18426786D01*
X13598214Y-18412500D01*
X13626786Y-18398214D01*
X13669643Y-18398214D01*
X13698214Y-18412500D01*
X13712500Y-18426786D01*
X13726786Y-18455357D01*
X13726786Y-18541072D01*
X13712500Y-18569643D01*
X13698214Y-18583929D01*
X13669643Y-18598214D01*
X13626786Y-18598214D01*
X13898214Y-18598214D02*
X13869643Y-18583929D01*
X13855357Y-18555357D01*
X13855357Y-18298214D01*
X14126786Y-18583929D02*
X14098214Y-18598214D01*
X14041071Y-18598214D01*
X14012500Y-18583929D01*
X13998214Y-18555357D01*
X13998214Y-18441072D01*
X14012500Y-18412500D01*
X14041071Y-18398214D01*
X14098214Y-18398214D01*
X14126786Y-18412500D01*
X14141071Y-18441072D01*
X14141071Y-18469643D01*
X13998214Y-18498214D01*
X14255357Y-18583929D02*
X14283928Y-18598214D01*
X14341071Y-18598214D01*
X14369643Y-18583929D01*
X14383928Y-18555357D01*
X14383928Y-18541072D01*
X14369643Y-18512500D01*
X14341071Y-18498214D01*
X14298214Y-18498214D01*
X14269643Y-18483929D01*
X14255357Y-18455357D01*
X14255357Y-18441072D01*
X14269643Y-18412500D01*
X14298214Y-18398214D01*
X14341071Y-18398214D01*
X14369643Y-18412500D01*
X14483928Y-18712500D02*
X14498214Y-18698214D01*
X14526786Y-18655357D01*
X14541071Y-18626786D01*
X14555357Y-18583929D01*
X14569643Y-18512500D01*
X14569643Y-18455357D01*
X14555357Y-18383929D01*
X14541071Y-18341072D01*
X14526786Y-18312500D01*
X14498214Y-18269643D01*
X14483928Y-18255357D01*
X15026786Y-18712500D02*
X15012500Y-18698214D01*
X14983928Y-18655357D01*
X14969643Y-18626786D01*
X14955357Y-18583929D01*
X14941071Y-18512500D01*
X14941071Y-18455357D01*
X14955357Y-18383929D01*
X14969643Y-18341072D01*
X14983928Y-18312500D01*
X15012500Y-18269643D01*
X15026786Y-18255357D01*
X15141071Y-18398214D02*
X15141071Y-18598214D01*
X15141071Y-18426786D02*
X15155357Y-18412500D01*
X15183928Y-18398214D01*
X15226786Y-18398214D01*
X15255357Y-18412500D01*
X15269643Y-18441072D01*
X15269643Y-18598214D01*
X15455357Y-18598214D02*
X15426786Y-18583929D01*
X15412500Y-18569643D01*
X15398214Y-18541072D01*
X15398214Y-18455357D01*
X15412500Y-18426786D01*
X15426786Y-18412500D01*
X15455357Y-18398214D01*
X15498214Y-18398214D01*
X15526786Y-18412500D01*
X15541071Y-18426786D01*
X15555357Y-18455357D01*
X15555357Y-18541072D01*
X15541071Y-18569643D01*
X15526786Y-18583929D01*
X15498214Y-18598214D01*
X15455357Y-18598214D01*
X15641071Y-18398214D02*
X15755357Y-18398214D01*
X15683928Y-18298214D02*
X15683928Y-18555357D01*
X15698214Y-18583929D01*
X15726786Y-18598214D01*
X15755357Y-18598214D01*
X16083928Y-18398214D02*
X16083928Y-18698214D01*
X16083928Y-18412500D02*
X16112500Y-18398214D01*
X16169643Y-18398214D01*
X16198214Y-18412500D01*
X16212500Y-18426786D01*
X16226786Y-18455357D01*
X16226786Y-18541072D01*
X16212500Y-18569643D01*
X16198214Y-18583929D01*
X16169643Y-18598214D01*
X16112500Y-18598214D01*
X16083928Y-18583929D01*
X16398214Y-18598214D02*
X16369643Y-18583929D01*
X16355357Y-18555357D01*
X16355357Y-18298214D01*
X16641071Y-18598214D02*
X16641071Y-18441072D01*
X16626786Y-18412500D01*
X16598214Y-18398214D01*
X16541071Y-18398214D01*
X16512500Y-18412500D01*
X16641071Y-18583929D02*
X16612500Y-18598214D01*
X16541071Y-18598214D01*
X16512500Y-18583929D01*
X16498214Y-18555357D01*
X16498214Y-18526786D01*
X16512500Y-18498214D01*
X16541071Y-18483929D01*
X16612500Y-18483929D01*
X16641071Y-18469643D01*
X16741071Y-18398214D02*
X16855357Y-18398214D01*
X16783928Y-18298214D02*
X16783928Y-18555357D01*
X16798214Y-18583929D01*
X16826786Y-18598214D01*
X16855357Y-18598214D01*
X17069643Y-18583929D02*
X17041071Y-18598214D01*
X16983928Y-18598214D01*
X16955357Y-18583929D01*
X16941071Y-18555357D01*
X16941071Y-18441072D01*
X16955357Y-18412500D01*
X16983928Y-18398214D01*
X17041071Y-18398214D01*
X17069643Y-18412500D01*
X17083928Y-18441072D01*
X17083928Y-18469643D01*
X16941071Y-18498214D01*
X17341071Y-18598214D02*
X17341071Y-18298214D01*
X17341071Y-18583929D02*
X17312500Y-18598214D01*
X17255357Y-18598214D01*
X17226786Y-18583929D01*
X17212500Y-18569643D01*
X17198214Y-18541072D01*
X17198214Y-18455357D01*
X17212500Y-18426786D01*
X17226786Y-18412500D01*
X17255357Y-18398214D01*
X17312500Y-18398214D01*
X17341071Y-18412500D01*
X17455357Y-18712500D02*
X17469643Y-18698214D01*
X17498214Y-18655357D01*
X17512500Y-18626786D01*
X17526786Y-18583929D01*
X17541071Y-18512500D01*
X17541071Y-18455357D01*
X17526786Y-18383929D01*
X17512500Y-18341072D01*
X17498214Y-18312500D01*
X17469643Y-18269643D01*
X17455357Y-18255357D01*
X7997500Y-18858500D02*
G75*
G03*
X7997500Y-18858500I-150000J0D01*
G01*
X8255357Y-18694214D02*
X8441071Y-18694214D01*
X8341071Y-18808500D01*
X8383928Y-18808500D01*
X8412500Y-18822786D01*
X8426786Y-18837072D01*
X8441071Y-18865643D01*
X8441071Y-18937072D01*
X8426786Y-18965643D01*
X8412500Y-18979929D01*
X8383928Y-18994214D01*
X8298214Y-18994214D01*
X8269643Y-18979929D01*
X8255357Y-18965643D01*
X8569643Y-18965643D02*
X8583928Y-18979929D01*
X8569643Y-18994214D01*
X8555357Y-18979929D01*
X8569643Y-18965643D01*
X8569643Y-18994214D01*
X8769643Y-18694214D02*
X8798214Y-18694214D01*
X8826786Y-18708500D01*
X8841071Y-18722786D01*
X8855357Y-18751357D01*
X8869643Y-18808500D01*
X8869643Y-18879929D01*
X8855357Y-18937072D01*
X8841071Y-18965643D01*
X8826786Y-18979929D01*
X8798214Y-18994214D01*
X8769643Y-18994214D01*
X8741071Y-18979929D01*
X8726786Y-18965643D01*
X8712500Y-18937072D01*
X8698214Y-18879929D01*
X8698214Y-18808500D01*
X8712500Y-18751357D01*
X8726786Y-18722786D01*
X8741071Y-18708500D01*
X8769643Y-18694214D01*
X9055357Y-18694214D02*
X9083928Y-18694214D01*
X9112500Y-18708500D01*
X9126786Y-18722786D01*
X9141071Y-18751357D01*
X9155357Y-18808500D01*
X9155357Y-18879929D01*
X9141071Y-18937072D01*
X9126786Y-18965643D01*
X9112500Y-18979929D01*
X9083928Y-18994214D01*
X9055357Y-18994214D01*
X9026786Y-18979929D01*
X9012500Y-18965643D01*
X8998214Y-18937072D01*
X8983928Y-18879929D01*
X8983928Y-18808500D01*
X8998214Y-18751357D01*
X9012500Y-18722786D01*
X9026786Y-18708500D01*
X9055357Y-18694214D01*
X9283928Y-18994214D02*
X9283928Y-18794214D01*
X9283928Y-18822786D02*
X9298214Y-18808500D01*
X9326786Y-18794214D01*
X9369643Y-18794214D01*
X9398214Y-18808500D01*
X9412500Y-18837072D01*
X9412500Y-18994214D01*
X9412500Y-18837072D02*
X9426786Y-18808500D01*
X9455357Y-18794214D01*
X9498214Y-18794214D01*
X9526786Y-18808500D01*
X9541071Y-18837072D01*
X9541071Y-18994214D01*
X9683928Y-18994214D02*
X9683928Y-18794214D01*
X9683928Y-18822786D02*
X9698214Y-18808500D01*
X9726786Y-18794214D01*
X9769643Y-18794214D01*
X9798214Y-18808500D01*
X9812500Y-18837072D01*
X9812500Y-18994214D01*
X9812500Y-18837072D02*
X9826786Y-18808500D01*
X9855357Y-18794214D01*
X9898214Y-18794214D01*
X9926786Y-18808500D01*
X9941071Y-18837072D01*
X9941071Y-18994214D01*
X10526786Y-18679929D02*
X10269643Y-19065643D01*
X10912500Y-18694214D02*
X10941071Y-18694214D01*
X10969643Y-18708500D01*
X10983928Y-18722786D01*
X10998214Y-18751357D01*
X11012500Y-18808500D01*
X11012500Y-18879929D01*
X10998214Y-18937072D01*
X10983928Y-18965643D01*
X10969643Y-18979929D01*
X10941071Y-18994214D01*
X10912500Y-18994214D01*
X10883928Y-18979929D01*
X10869643Y-18965643D01*
X10855357Y-18937072D01*
X10841071Y-18879929D01*
X10841071Y-18808500D01*
X10855357Y-18751357D01*
X10869643Y-18722786D01*
X10883928Y-18708500D01*
X10912500Y-18694214D01*
X11141071Y-18965643D02*
X11155357Y-18979929D01*
X11141071Y-18994214D01*
X11126786Y-18979929D01*
X11141071Y-18965643D01*
X11141071Y-18994214D01*
X11441071Y-18994214D02*
X11269643Y-18994214D01*
X11355357Y-18994214D02*
X11355357Y-18694214D01*
X11326786Y-18737072D01*
X11298214Y-18765643D01*
X11269643Y-18779929D01*
X11726786Y-18994214D02*
X11555357Y-18994214D01*
X11641071Y-18994214D02*
X11641071Y-18694214D01*
X11612500Y-18737072D01*
X11583928Y-18765643D01*
X11555357Y-18779929D01*
X11898214Y-18822786D02*
X11869643Y-18808500D01*
X11855357Y-18794214D01*
X11841071Y-18765643D01*
X11841071Y-18751357D01*
X11855357Y-18722786D01*
X11869643Y-18708500D01*
X11898214Y-18694214D01*
X11955357Y-18694214D01*
X11983928Y-18708500D01*
X11998214Y-18722786D01*
X12012500Y-18751357D01*
X12012500Y-18765643D01*
X11998214Y-18794214D01*
X11983928Y-18808500D01*
X11955357Y-18822786D01*
X11898214Y-18822786D01*
X11869643Y-18837072D01*
X11855357Y-18851357D01*
X11841071Y-18879929D01*
X11841071Y-18937072D01*
X11855357Y-18965643D01*
X11869643Y-18979929D01*
X11898214Y-18994214D01*
X11955357Y-18994214D01*
X11983928Y-18979929D01*
X11998214Y-18965643D01*
X12012500Y-18937072D01*
X12012500Y-18879929D01*
X11998214Y-18851357D01*
X11983928Y-18837072D01*
X11955357Y-18822786D01*
X12126786Y-18694214D02*
X12126786Y-18751357D01*
X12241071Y-18694214D02*
X12241071Y-18751357D01*
X12683928Y-19108500D02*
X12669643Y-19094214D01*
X12641071Y-19051357D01*
X12626786Y-19022786D01*
X12612500Y-18979929D01*
X12598214Y-18908500D01*
X12598214Y-18851357D01*
X12612500Y-18779929D01*
X12626786Y-18737072D01*
X12641071Y-18708500D01*
X12669643Y-18665643D01*
X12683928Y-18651357D01*
X12783928Y-18722786D02*
X12798214Y-18708500D01*
X12826786Y-18694214D01*
X12898214Y-18694214D01*
X12926786Y-18708500D01*
X12941071Y-18722786D01*
X12955357Y-18751357D01*
X12955357Y-18779929D01*
X12941071Y-18822786D01*
X12769643Y-18994214D01*
X12955357Y-18994214D01*
X13312500Y-18994214D02*
X13312500Y-18694214D01*
X13441071Y-18994214D02*
X13441071Y-18837072D01*
X13426786Y-18808500D01*
X13398214Y-18794214D01*
X13355357Y-18794214D01*
X13326786Y-18808500D01*
X13312500Y-18822786D01*
X13626786Y-18994214D02*
X13598214Y-18979929D01*
X13583928Y-18965643D01*
X13569643Y-18937072D01*
X13569643Y-18851357D01*
X13583928Y-18822786D01*
X13598214Y-18808500D01*
X13626786Y-18794214D01*
X13669643Y-18794214D01*
X13698214Y-18808500D01*
X13712500Y-18822786D01*
X13726786Y-18851357D01*
X13726786Y-18937072D01*
X13712500Y-18965643D01*
X13698214Y-18979929D01*
X13669643Y-18994214D01*
X13626786Y-18994214D01*
X13898214Y-18994214D02*
X13869643Y-18979929D01*
X13855357Y-18951357D01*
X13855357Y-18694214D01*
X14126786Y-18979929D02*
X14098214Y-18994214D01*
X14041071Y-18994214D01*
X14012500Y-18979929D01*
X13998214Y-18951357D01*
X13998214Y-18837072D01*
X14012500Y-18808500D01*
X14041071Y-18794214D01*
X14098214Y-18794214D01*
X14126786Y-18808500D01*
X14141071Y-18837072D01*
X14141071Y-18865643D01*
X13998214Y-18894214D01*
X14255357Y-18979929D02*
X14283928Y-18994214D01*
X14341071Y-18994214D01*
X14369643Y-18979929D01*
X14383928Y-18951357D01*
X14383928Y-18937072D01*
X14369643Y-18908500D01*
X14341071Y-18894214D01*
X14298214Y-18894214D01*
X14269643Y-18879929D01*
X14255357Y-18851357D01*
X14255357Y-18837072D01*
X14269643Y-18808500D01*
X14298214Y-18794214D01*
X14341071Y-18794214D01*
X14369643Y-18808500D01*
X14483928Y-19108500D02*
X14498214Y-19094214D01*
X14526786Y-19051357D01*
X14541071Y-19022786D01*
X14555357Y-18979929D01*
X14569643Y-18908500D01*
X14569643Y-18851357D01*
X14555357Y-18779929D01*
X14541071Y-18737072D01*
X14526786Y-18708500D01*
X14498214Y-18665643D01*
X14483928Y-18651357D01*
X15026786Y-19108500D02*
X15012500Y-19094214D01*
X14983928Y-19051357D01*
X14969643Y-19022786D01*
X14955357Y-18979929D01*
X14941071Y-18908500D01*
X14941071Y-18851357D01*
X14955357Y-18779929D01*
X14969643Y-18737072D01*
X14983928Y-18708500D01*
X15012500Y-18665643D01*
X15026786Y-18651357D01*
X15141071Y-18794214D02*
X15141071Y-18994214D01*
X15141071Y-18822786D02*
X15155357Y-18808500D01*
X15183928Y-18794214D01*
X15226786Y-18794214D01*
X15255357Y-18808500D01*
X15269643Y-18837072D01*
X15269643Y-18994214D01*
X15455357Y-18994214D02*
X15426786Y-18979929D01*
X15412500Y-18965643D01*
X15398214Y-18937072D01*
X15398214Y-18851357D01*
X15412500Y-18822786D01*
X15426786Y-18808500D01*
X15455357Y-18794214D01*
X15498214Y-18794214D01*
X15526786Y-18808500D01*
X15541071Y-18822786D01*
X15555357Y-18851357D01*
X15555357Y-18937072D01*
X15541071Y-18965643D01*
X15526786Y-18979929D01*
X15498214Y-18994214D01*
X15455357Y-18994214D01*
X15641071Y-18794214D02*
X15755357Y-18794214D01*
X15683928Y-18694214D02*
X15683928Y-18951357D01*
X15698214Y-18979929D01*
X15726786Y-18994214D01*
X15755357Y-18994214D01*
X16083928Y-18794214D02*
X16083928Y-19094214D01*
X16083928Y-18808500D02*
X16112500Y-18794214D01*
X16169643Y-18794214D01*
X16198214Y-18808500D01*
X16212500Y-18822786D01*
X16226786Y-18851357D01*
X16226786Y-18937072D01*
X16212500Y-18965643D01*
X16198214Y-18979929D01*
X16169643Y-18994214D01*
X16112500Y-18994214D01*
X16083928Y-18979929D01*
X16398214Y-18994214D02*
X16369643Y-18979929D01*
X16355357Y-18951357D01*
X16355357Y-18694214D01*
X16641071Y-18994214D02*
X16641071Y-18837072D01*
X16626786Y-18808500D01*
X16598214Y-18794214D01*
X16541071Y-18794214D01*
X16512500Y-18808500D01*
X16641071Y-18979929D02*
X16612500Y-18994214D01*
X16541071Y-18994214D01*
X16512500Y-18979929D01*
X16498214Y-18951357D01*
X16498214Y-18922786D01*
X16512500Y-18894214D01*
X16541071Y-18879929D01*
X16612500Y-18879929D01*
X16641071Y-18865643D01*
X16741071Y-18794214D02*
X16855357Y-18794214D01*
X16783928Y-18694214D02*
X16783928Y-18951357D01*
X16798214Y-18979929D01*
X16826786Y-18994214D01*
X16855357Y-18994214D01*
X17069643Y-18979929D02*
X17041071Y-18994214D01*
X16983928Y-18994214D01*
X16955357Y-18979929D01*
X16941071Y-18951357D01*
X16941071Y-18837072D01*
X16955357Y-18808500D01*
X16983928Y-18794214D01*
X17041071Y-18794214D01*
X17069643Y-18808500D01*
X17083928Y-18837072D01*
X17083928Y-18865643D01*
X16941071Y-18894214D01*
X17341071Y-18994214D02*
X17341071Y-18694214D01*
X17341071Y-18979929D02*
X17312500Y-18994214D01*
X17255357Y-18994214D01*
X17226786Y-18979929D01*
X17212500Y-18965643D01*
X17198214Y-18937072D01*
X17198214Y-18851357D01*
X17212500Y-18822786D01*
X17226786Y-18808500D01*
X17255357Y-18794214D01*
X17312500Y-18794214D01*
X17341071Y-18808500D01*
X17455357Y-19108500D02*
X17469643Y-19094214D01*
X17498214Y-19051357D01*
X17512500Y-19022786D01*
X17526786Y-18979929D01*
X17541071Y-18908500D01*
X17541071Y-18851357D01*
X17526786Y-18779929D01*
X17512500Y-18737072D01*
X17498214Y-18708500D01*
X17469643Y-18665643D01*
X17455357Y-18651357D01*
X7797500Y-19088500D02*
X7797500Y-19488500D01*
X7597500Y-19288500D02*
X7997500Y-19288500D01*
X8412500Y-19224214D02*
X8412500Y-19424214D01*
X8341071Y-19109929D02*
X8269643Y-19324214D01*
X8455357Y-19324214D01*
X8569643Y-19395643D02*
X8583928Y-19409929D01*
X8569643Y-19424214D01*
X8555357Y-19409929D01*
X8569643Y-19395643D01*
X8569643Y-19424214D01*
X8769643Y-19124214D02*
X8798214Y-19124214D01*
X8826786Y-19138500D01*
X8841071Y-19152786D01*
X8855357Y-19181357D01*
X8869643Y-19238500D01*
X8869643Y-19309929D01*
X8855357Y-19367072D01*
X8841071Y-19395643D01*
X8826786Y-19409929D01*
X8798214Y-19424214D01*
X8769643Y-19424214D01*
X8741071Y-19409929D01*
X8726786Y-19395643D01*
X8712500Y-19367072D01*
X8698214Y-19309929D01*
X8698214Y-19238500D01*
X8712500Y-19181357D01*
X8726786Y-19152786D01*
X8741071Y-19138500D01*
X8769643Y-19124214D01*
X9055357Y-19124214D02*
X9083928Y-19124214D01*
X9112500Y-19138500D01*
X9126786Y-19152786D01*
X9141071Y-19181357D01*
X9155357Y-19238500D01*
X9155357Y-19309929D01*
X9141071Y-19367072D01*
X9126786Y-19395643D01*
X9112500Y-19409929D01*
X9083928Y-19424214D01*
X9055357Y-19424214D01*
X9026786Y-19409929D01*
X9012500Y-19395643D01*
X8998214Y-19367072D01*
X8983928Y-19309929D01*
X8983928Y-19238500D01*
X8998214Y-19181357D01*
X9012500Y-19152786D01*
X9026786Y-19138500D01*
X9055357Y-19124214D01*
X9283928Y-19424214D02*
X9283928Y-19224214D01*
X9283928Y-19252786D02*
X9298214Y-19238500D01*
X9326786Y-19224214D01*
X9369643Y-19224214D01*
X9398214Y-19238500D01*
X9412500Y-19267072D01*
X9412500Y-19424214D01*
X9412500Y-19267072D02*
X9426786Y-19238500D01*
X9455357Y-19224214D01*
X9498214Y-19224214D01*
X9526786Y-19238500D01*
X9541071Y-19267072D01*
X9541071Y-19424214D01*
X9683928Y-19424214D02*
X9683928Y-19224214D01*
X9683928Y-19252786D02*
X9698214Y-19238500D01*
X9726786Y-19224214D01*
X9769643Y-19224214D01*
X9798214Y-19238500D01*
X9812500Y-19267072D01*
X9812500Y-19424214D01*
X9812500Y-19267072D02*
X9826786Y-19238500D01*
X9855357Y-19224214D01*
X9898214Y-19224214D01*
X9926786Y-19238500D01*
X9941071Y-19267072D01*
X9941071Y-19424214D01*
X10526786Y-19109929D02*
X10269643Y-19495643D01*
X10912500Y-19124214D02*
X10941071Y-19124214D01*
X10969643Y-19138500D01*
X10983928Y-19152786D01*
X10998214Y-19181357D01*
X11012500Y-19238500D01*
X11012500Y-19309929D01*
X10998214Y-19367072D01*
X10983928Y-19395643D01*
X10969643Y-19409929D01*
X10941071Y-19424214D01*
X10912500Y-19424214D01*
X10883928Y-19409929D01*
X10869643Y-19395643D01*
X10855357Y-19367072D01*
X10841071Y-19309929D01*
X10841071Y-19238500D01*
X10855357Y-19181357D01*
X10869643Y-19152786D01*
X10883928Y-19138500D01*
X10912500Y-19124214D01*
X11141071Y-19395643D02*
X11155357Y-19409929D01*
X11141071Y-19424214D01*
X11126786Y-19409929D01*
X11141071Y-19395643D01*
X11141071Y-19424214D01*
X11441071Y-19424214D02*
X11269643Y-19424214D01*
X11355357Y-19424214D02*
X11355357Y-19124214D01*
X11326786Y-19167072D01*
X11298214Y-19195643D01*
X11269643Y-19209929D01*
X11712500Y-19124214D02*
X11569643Y-19124214D01*
X11555357Y-19267072D01*
X11569643Y-19252786D01*
X11598214Y-19238500D01*
X11669643Y-19238500D01*
X11698214Y-19252786D01*
X11712500Y-19267072D01*
X11726786Y-19295643D01*
X11726786Y-19367072D01*
X11712500Y-19395643D01*
X11698214Y-19409929D01*
X11669643Y-19424214D01*
X11598214Y-19424214D01*
X11569643Y-19409929D01*
X11555357Y-19395643D01*
X11826786Y-19124214D02*
X12026786Y-19124214D01*
X11898214Y-19424214D01*
X12126786Y-19124214D02*
X12126786Y-19181357D01*
X12241071Y-19124214D02*
X12241071Y-19181357D01*
X12683928Y-19538500D02*
X12669643Y-19524214D01*
X12641071Y-19481357D01*
X12626786Y-19452786D01*
X12612500Y-19409929D01*
X12598214Y-19338500D01*
X12598214Y-19281357D01*
X12612500Y-19209929D01*
X12626786Y-19167072D01*
X12641071Y-19138500D01*
X12669643Y-19095643D01*
X12683928Y-19081357D01*
X12783928Y-19152786D02*
X12798214Y-19138500D01*
X12826786Y-19124214D01*
X12898214Y-19124214D01*
X12926786Y-19138500D01*
X12941071Y-19152786D01*
X12955357Y-19181357D01*
X12955357Y-19209929D01*
X12941071Y-19252786D01*
X12769643Y-19424214D01*
X12955357Y-19424214D01*
X13312500Y-19424214D02*
X13312500Y-19124214D01*
X13441071Y-19424214D02*
X13441071Y-19267072D01*
X13426786Y-19238500D01*
X13398214Y-19224214D01*
X13355357Y-19224214D01*
X13326786Y-19238500D01*
X13312500Y-19252786D01*
X13626786Y-19424214D02*
X13598214Y-19409929D01*
X13583928Y-19395643D01*
X13569643Y-19367072D01*
X13569643Y-19281357D01*
X13583928Y-19252786D01*
X13598214Y-19238500D01*
X13626786Y-19224214D01*
X13669643Y-19224214D01*
X13698214Y-19238500D01*
X13712500Y-19252786D01*
X13726786Y-19281357D01*
X13726786Y-19367072D01*
X13712500Y-19395643D01*
X13698214Y-19409929D01*
X13669643Y-19424214D01*
X13626786Y-19424214D01*
X13898214Y-19424214D02*
X13869643Y-19409929D01*
X13855357Y-19381357D01*
X13855357Y-19124214D01*
X14126786Y-19409929D02*
X14098214Y-19424214D01*
X14041071Y-19424214D01*
X14012500Y-19409929D01*
X13998214Y-19381357D01*
X13998214Y-19267072D01*
X14012500Y-19238500D01*
X14041071Y-19224214D01*
X14098214Y-19224214D01*
X14126786Y-19238500D01*
X14141071Y-19267072D01*
X14141071Y-19295643D01*
X13998214Y-19324214D01*
X14255357Y-19409929D02*
X14283928Y-19424214D01*
X14341071Y-19424214D01*
X14369643Y-19409929D01*
X14383928Y-19381357D01*
X14383928Y-19367072D01*
X14369643Y-19338500D01*
X14341071Y-19324214D01*
X14298214Y-19324214D01*
X14269643Y-19309929D01*
X14255357Y-19281357D01*
X14255357Y-19267072D01*
X14269643Y-19238500D01*
X14298214Y-19224214D01*
X14341071Y-19224214D01*
X14369643Y-19238500D01*
X14483928Y-19538500D02*
X14498214Y-19524214D01*
X14526786Y-19481357D01*
X14541071Y-19452786D01*
X14555357Y-19409929D01*
X14569643Y-19338500D01*
X14569643Y-19281357D01*
X14555357Y-19209929D01*
X14541071Y-19167072D01*
X14526786Y-19138500D01*
X14498214Y-19095643D01*
X14483928Y-19081357D01*
X15026786Y-19538500D02*
X15012500Y-19524214D01*
X14983928Y-19481357D01*
X14969643Y-19452786D01*
X14955357Y-19409929D01*
X14941071Y-19338500D01*
X14941071Y-19281357D01*
X14955357Y-19209929D01*
X14969643Y-19167072D01*
X14983928Y-19138500D01*
X15012500Y-19095643D01*
X15026786Y-19081357D01*
X15141071Y-19224214D02*
X15141071Y-19424214D01*
X15141071Y-19252786D02*
X15155357Y-19238500D01*
X15183928Y-19224214D01*
X15226786Y-19224214D01*
X15255357Y-19238500D01*
X15269643Y-19267072D01*
X15269643Y-19424214D01*
X15455357Y-19424214D02*
X15426786Y-19409929D01*
X15412500Y-19395643D01*
X15398214Y-19367072D01*
X15398214Y-19281357D01*
X15412500Y-19252786D01*
X15426786Y-19238500D01*
X15455357Y-19224214D01*
X15498214Y-19224214D01*
X15526786Y-19238500D01*
X15541071Y-19252786D01*
X15555357Y-19281357D01*
X15555357Y-19367072D01*
X15541071Y-19395643D01*
X15526786Y-19409929D01*
X15498214Y-19424214D01*
X15455357Y-19424214D01*
X15641071Y-19224214D02*
X15755357Y-19224214D01*
X15683928Y-19124214D02*
X15683928Y-19381357D01*
X15698214Y-19409929D01*
X15726786Y-19424214D01*
X15755357Y-19424214D01*
X16083928Y-19224214D02*
X16083928Y-19524214D01*
X16083928Y-19238500D02*
X16112500Y-19224214D01*
X16169643Y-19224214D01*
X16198214Y-19238500D01*
X16212500Y-19252786D01*
X16226786Y-19281357D01*
X16226786Y-19367072D01*
X16212500Y-19395643D01*
X16198214Y-19409929D01*
X16169643Y-19424214D01*
X16112500Y-19424214D01*
X16083928Y-19409929D01*
X16398214Y-19424214D02*
X16369643Y-19409929D01*
X16355357Y-19381357D01*
X16355357Y-19124214D01*
X16641071Y-19424214D02*
X16641071Y-19267072D01*
X16626786Y-19238500D01*
X16598214Y-19224214D01*
X16541071Y-19224214D01*
X16512500Y-19238500D01*
X16641071Y-19409929D02*
X16612500Y-19424214D01*
X16541071Y-19424214D01*
X16512500Y-19409929D01*
X16498214Y-19381357D01*
X16498214Y-19352786D01*
X16512500Y-19324214D01*
X16541071Y-19309929D01*
X16612500Y-19309929D01*
X16641071Y-19295643D01*
X16741071Y-19224214D02*
X16855357Y-19224214D01*
X16783928Y-19124214D02*
X16783928Y-19381357D01*
X16798214Y-19409929D01*
X16826786Y-19424214D01*
X16855357Y-19424214D01*
X17069643Y-19409929D02*
X17041071Y-19424214D01*
X16983928Y-19424214D01*
X16955357Y-19409929D01*
X16941071Y-19381357D01*
X16941071Y-19267072D01*
X16955357Y-19238500D01*
X16983928Y-19224214D01*
X17041071Y-19224214D01*
X17069643Y-19238500D01*
X17083928Y-19267072D01*
X17083928Y-19295643D01*
X16941071Y-19324214D01*
X17341071Y-19424214D02*
X17341071Y-19124214D01*
X17341071Y-19409929D02*
X17312500Y-19424214D01*
X17255357Y-19424214D01*
X17226786Y-19409929D01*
X17212500Y-19395643D01*
X17198214Y-19367072D01*
X17198214Y-19281357D01*
X17212500Y-19252786D01*
X17226786Y-19238500D01*
X17255357Y-19224214D01*
X17312500Y-19224214D01*
X17341071Y-19238500D01*
X17455357Y-19538500D02*
X17469643Y-19524214D01*
X17498214Y-19481357D01*
X17512500Y-19452786D01*
X17526786Y-19409929D01*
X17541071Y-19338500D01*
X17541071Y-19281357D01*
X17526786Y-19209929D01*
X17512500Y-19167072D01*
X17498214Y-19138500D01*
X17469643Y-19095643D01*
X17455357Y-19081357D01*
M02*
